{"glyphs":{"0":{"ha":815,"x_min":69,"x_max":771,"o":"m 335 -28 q 69 279 69 -28 q 113 576 69 424 q 253 837 156 729 q 506 944 351 944 q 771 636 771 944 q 728 339 771 492 q 587 79 685 186 q 335 -28 489 -28 m 344 28 q 506 133 438 28 q 608 394 574 239 q 642 693 642 550 q 608 842 642 794 q 496 889 574 889 q 335 783 403 889 q 234 521 268 676 q 200 222 200 365 q 234 75 200 122 q 344 28 268 28 z "},"1":{"ha":425,"x_min":78,"x_max":397,"o":"m 111 0 l 247 778 l 97 690 l 78 722 l 328 917 l 397 917 l 236 0 l 111 0 z "},"2":{"ha":739,"x_min":-7,"x_max":708,"o":"m 4 69 q 240 269 79 138 q 431 435 368 374 q 532 568 494 496 q 569 733 569 640 q 528 849 569 810 q 419 889 486 889 q 262 828 335 889 q 149 653 189 767 l 121 653 q 147 763 133 721 q 186 833 160 804 q 312 913 233 881 q 471 944 390 944 q 638 901 567 944 q 708 744 708 857 q 638 530 708 633 q 471 343 568 426 q 224 149 374 260 q 100 56 113 65 l 413 56 q 548 92 497 56 q 611 201 599 128 l 639 201 l 624 111 q 583 31 614 61 q 486 0 553 0 l -7 0 l 4 69 z "},"3":{"ha":738,"x_min":10,"x_max":732,"o":"m 297 -28 q 10 121 108 -28 l 36 146 q 136 57 78 86 q 272 28 194 28 q 402 67 344 28 q 492 170 460 106 q 525 308 525 235 q 481 429 525 386 q 378 472 436 472 q 301 469 328 472 q 247 460 274 465 q 208 451 219 454 l 182 510 l 621 861 l 364 861 q 228 825 279 861 q 164 715 178 789 l 136 715 l 153 806 q 193 886 163 856 q 290 917 224 917 l 732 917 l 722 861 l 289 514 q 417 528 336 528 q 522 510 465 528 q 622 444 579 492 q 665 314 665 396 q 617 141 665 219 q 483 17 568 63 q 297 -28 399 -28 z "},"4":{"ha":763,"x_min":0,"x_max":706,"o":"m 404 0 l 444 236 l 0 236 l 11 292 l 579 917 l 690 917 l 581 292 l 706 292 l 694 236 l 569 236 l 529 0 l 404 0 m 94 292 l 456 292 l 542 783 l 94 292 z "},"5":{"ha":740,"x_min":13,"x_max":724,"o":"m 286 -28 q 125 8 188 -28 q 13 118 63 44 l 43 142 q 142 56 86 83 q 275 28 199 28 q 410 67 353 28 q 499 170 468 106 q 529 313 529 235 q 339 472 529 472 q 219 465 275 472 l 164 458 l 118 514 l 203 917 l 724 917 l 714 861 l 307 861 l 235 521 l 281 524 q 378 528 360 528 q 582 479 496 528 q 668 314 668 431 q 616 136 668 214 q 476 15 564 58 q 286 -28 389 -28 z "},"6":{"ha":747,"x_min":68,"x_max":728,"o":"m 321 -28 q 130 46 192 -28 q 68 268 68 119 q 112 575 68 419 q 257 838 156 731 q 519 944 358 944 q 728 903 625 944 l 717 875 q 538 889 631 889 q 339 795 417 889 q 232 535 261 701 q 331 581 279 564 q 451 597 383 597 q 625 539 568 597 q 682 375 682 481 q 638 182 682 275 q 513 31 594 89 q 321 -28 431 -28 m 331 28 q 450 85 400 28 q 526 223 500 142 q 551 374 551 304 q 400 542 551 542 q 308 524 350 542 q 221 472 267 507 q 199 254 199 344 q 331 28 199 28 z "},"7":{"ha":663,"x_min":93,"x_max":733,"o":"m 599 861 l 321 861 q 185 825 236 861 q 121 715 135 789 l 93 715 l 110 806 q 150 886 119 856 q 247 917 181 917 l 733 917 l 724 861 l 225 0 l 100 0 l 599 861 z "},"8":{"ha":772,"x_min":31,"x_max":733,"o":"m 313 -28 q 109 20 188 -28 q 31 164 31 68 q 103 338 31 267 q 303 465 175 408 q 194 556 233 508 q 154 669 154 603 q 199 819 154 757 q 317 913 243 882 q 483 944 392 944 q 665 903 597 944 q 733 769 733 861 q 674 611 733 681 q 515 493 615 542 q 603 428 571 456 q 658 360 635 400 q 681 267 681 319 q 629 107 681 174 q 493 6 578 40 q 313 -28 408 -28 m 460 528 q 601 767 601 621 q 565 860 601 832 q 474 889 528 889 q 385 867 426 889 q 318 805 343 844 q 293 714 293 765 q 460 528 293 613 m 322 28 q 428 53 378 28 q 510 124 479 78 q 542 228 542 169 q 496 340 542 294 q 360 438 450 386 q 218 329 274 399 q 163 168 163 260 q 208 64 163 100 q 322 28 253 28 z "},"9":{"ha":749,"x_min":46,"x_max":706,"o":"m 254 -28 q 144 -17 193 -28 q 46 14 96 -6 l 58 42 q 236 28 139 28 q 435 122 357 28 q 542 382 513 215 q 443 336 496 353 q 322 319 390 319 q 148 377 204 319 q 92 542 92 435 q 135 735 92 642 q 261 886 179 828 q 453 944 343 944 q 644 870 582 944 q 706 646 706 796 q 662 339 706 493 q 517 78 618 185 q 254 -28 415 -28 m 374 375 q 466 392 424 375 q 553 444 508 410 q 575 663 575 572 q 443 889 575 889 q 324 832 374 889 q 248 693 274 775 q 222 542 222 611 q 374 375 222 375 z "},"\u0000":{"ha":0,"x_min":0,"x_max":0,"o":""},"\r":{"ha":347,"x_min":0,"x_max":0,"o":""}," ":{"ha":347,"x_min":0,"x_max":0,"o":""},"A":{"ha":881,"x_min":-32,"x_max":861,"o":"m 800 -7 q 676 30 733 -7 q 596 174 618 67 l 576 264 l 188 264 l 31 0 l -32 0 l 518 917 l 560 917 l 735 174 q 778 64 751 94 q 861 28 804 33 l 857 0 q 800 -7 829 -7 m 218 319 l 558 319 l 463 722 l 218 319 z "},"Á":{"ha":881,"x_min":-32,"x_max":861,"o":"m 800 -7 q 676 30 733 -7 q 596 174 618 67 l 576 264 l 188 264 l 31 0 l -32 0 l 518 917 l 560 917 l 735 174 q 778 64 751 94 q 861 28 804 33 l 857 0 q 800 -7 829 -7 m 218 319 l 558 319 l 463 722 l 218 319 m 528 972 l 615 1153 l 747 1153 l 583 972 l 528 972 z "},"Ă":{"ha":881,"x_min":-32,"x_max":861,"o":"m 800 -7 q 676 30 733 -7 q 596 174 618 67 l 576 264 l 188 264 l 31 0 l -32 0 l 518 917 l 560 917 l 735 174 q 778 64 751 94 q 861 28 804 33 l 857 0 q 800 -7 829 -7 m 218 319 l 558 319 l 463 722 l 218 319 m 549 988 q 448 1017 486 988 q 388 1099 410 1046 l 419 1119 q 475 1078 443 1092 q 563 1064 507 1064 q 656 1078 618 1064 q 725 1119 693 1092 l 749 1099 q 549 988 669 988 z "},"Ắ":{"ha":881,"x_min":-32,"x_max":861,"o":"m 800 -7 q 676 30 733 -7 q 596 174 618 67 l 576 264 l 188 264 l 31 0 l -32 0 l 518 917 l 560 917 l 735 174 q 778 64 751 94 q 861 28 804 33 l 857 0 q 800 -7 829 -7 m 218 319 l 558 319 l 463 722 l 218 319 m 549 988 q 448 1017 486 988 q 388 1099 410 1046 l 419 1119 q 475 1078 443 1092 q 563 1064 507 1064 q 656 1078 618 1064 q 725 1119 693 1092 l 749 1099 q 549 988 669 988 m 540 1151 l 667 1311 l 785 1311 l 610 1151 l 540 1151 z "},"Ặ":{"ha":881,"x_min":-32,"x_max":861,"o":"m 800 -7 q 676 30 733 -7 q 596 174 618 67 l 576 264 l 188 264 l 31 0 l -32 0 l 518 917 l 560 917 l 735 174 q 778 64 751 94 q 861 28 804 33 l 857 0 q 800 -7 829 -7 m 218 319 l 558 319 l 463 722 l 218 319 m 343 -224 q 306 -209 319 -224 q 292 -171 292 -194 q 314 -121 292 -143 q 365 -99 336 -99 q 403 -113 389 -99 q 418 -150 418 -128 q 395 -201 418 -178 q 343 -224 372 -224 m 549 988 q 448 1017 486 988 q 388 1099 410 1046 l 419 1119 q 475 1078 443 1092 q 563 1064 507 1064 q 656 1078 618 1064 q 725 1119 693 1092 l 749 1099 q 549 988 669 988 z "},"Ằ":{"ha":881,"x_min":-32,"x_max":861,"o":"m 800 -7 q 676 30 733 -7 q 596 174 618 67 l 576 264 l 188 264 l 31 0 l -32 0 l 518 917 l 560 917 l 735 174 q 778 64 751 94 q 861 28 804 33 l 857 0 q 800 -7 829 -7 m 218 319 l 558 319 l 463 722 l 218 319 m 549 988 q 448 1017 486 988 q 388 1099 410 1046 l 419 1119 q 475 1078 443 1092 q 563 1064 507 1064 q 656 1078 618 1064 q 725 1119 693 1092 l 749 1099 q 549 988 669 988 m 550 1144 l 450 1325 l 582 1325 l 606 1144 l 550 1144 z "},"Ẳ":{"ha":881,"x_min":-32,"x_max":861,"o":"m 800 -7 q 676 30 733 -7 q 596 174 618 67 l 576 264 l 188 264 l 31 0 l -32 0 l 518 917 l 560 917 l 735 174 q 778 64 751 94 q 861 28 804 33 l 857 0 q 800 -7 829 -7 m 218 319 l 558 319 l 463 722 l 218 319 m 549 988 q 448 1017 486 988 q 388 1099 410 1046 l 419 1119 q 475 1078 443 1092 q 563 1064 507 1064 q 656 1078 618 1064 q 725 1119 693 1092 l 749 1099 q 549 988 669 988 m 546 1142 q 562 1183 551 1167 q 592 1224 572 1199 q 618 1267 615 1253 q 621 1286 621 1281 q 583 1322 621 1322 q 537 1307 556 1322 q 503 1253 518 1292 l 446 1254 q 475 1319 453 1294 q 528 1362 501 1350 q 593 1374 556 1374 q 663 1352 633 1374 q 692 1290 692 1331 q 689 1267 692 1283 q 676 1241 686 1251 q 644 1213 667 1231 q 608 1178 621 1193 q 589 1142 594 1164 l 546 1142 z "},"Ẵ":{"ha":881,"x_min":-32,"x_max":861,"o":"m 800 -7 q 676 30 733 -7 q 596 174 618 67 l 576 264 l 188 264 l 31 0 l -32 0 l 518 917 l 560 917 l 735 174 q 778 64 751 94 q 861 28 804 33 l 857 0 q 800 -7 829 -7 m 218 319 l 558 319 l 463 722 l 218 319 m 549 988 q 448 1017 486 988 q 388 1099 410 1046 l 419 1119 q 475 1078 443 1092 q 563 1064 507 1064 q 656 1078 618 1064 q 725 1119 693 1092 l 749 1099 q 549 988 669 988 m 431 1174 q 469 1276 444 1246 q 538 1306 494 1306 q 574 1298 558 1306 q 608 1276 590 1290 q 624 1267 611 1275 q 649 1254 636 1258 q 674 1250 661 1250 q 706 1269 689 1250 q 725 1306 722 1288 l 767 1306 q 728 1203 754 1233 q 660 1174 703 1174 q 626 1181 640 1174 q 590 1201 613 1188 q 556 1222 571 1215 q 524 1229 542 1229 q 492 1210 508 1229 q 472 1174 475 1192 l 431 1174 z "},"Â":{"ha":881,"x_min":-32,"x_max":861,"o":"m 800 -7 q 676 30 733 -7 q 596 174 618 67 l 576 264 l 188 264 l 31 0 l -32 0 l 518 917 l 560 917 l 735 174 q 778 64 751 94 q 861 28 804 33 l 857 0 q 800 -7 829 -7 m 218 319 l 558 319 l 463 722 l 218 319 m 357 951 l 496 1111 l 649 1111 l 732 951 l 663 951 l 564 1063 l 426 951 l 357 951 z "},"Ấ":{"ha":881,"x_min":-32,"x_max":986,"o":"m 800 -7 q 676 30 733 -7 q 596 174 618 67 l 576 264 l 188 264 l 31 0 l -32 0 l 518 917 l 560 917 l 735 174 q 778 64 751 94 q 861 28 804 33 l 857 0 q 800 -7 829 -7 m 218 319 l 558 319 l 463 722 l 218 319 m 360 986 l 499 1146 l 651 1146 l 735 986 l 665 986 l 567 1097 l 429 986 l 360 986 m 742 1074 l 868 1233 l 986 1233 l 811 1074 l 742 1074 z "},"Ậ":{"ha":881,"x_min":-32,"x_max":861,"o":"m 800 -7 q 676 30 733 -7 q 596 174 618 67 l 576 264 l 188 264 l 31 0 l -32 0 l 518 917 l 560 917 l 735 174 q 778 64 751 94 q 861 28 804 33 l 857 0 q 800 -7 829 -7 m 218 319 l 558 319 l 463 722 l 218 319 m 343 -224 q 306 -209 319 -224 q 292 -171 292 -194 q 314 -121 292 -143 q 365 -99 336 -99 q 403 -113 389 -99 q 418 -150 418 -128 q 395 -201 418 -178 q 343 -224 372 -224 m 360 986 l 499 1146 l 651 1146 l 735 986 l 665 986 l 567 1097 l 429 986 l 360 986 z "},"Ầ":{"ha":881,"x_min":-32,"x_max":861,"o":"m 800 -7 q 676 30 733 -7 q 596 174 618 67 l 576 264 l 188 264 l 31 0 l -32 0 l 518 917 l 560 917 l 735 174 q 778 64 751 94 q 861 28 804 33 l 857 0 q 800 -7 829 -7 m 218 319 l 558 319 l 463 722 l 218 319 m 360 986 l 499 1146 l 651 1146 l 735 986 l 665 986 l 567 1097 l 429 986 l 360 986 m 764 1096 l 664 1276 l 796 1276 l 819 1096 l 764 1096 z "},"Ẩ":{"ha":881,"x_min":-32,"x_max":904,"o":"m 800 -7 q 676 30 733 -7 q 596 174 618 67 l 576 264 l 188 264 l 31 0 l -32 0 l 518 917 l 560 917 l 735 174 q 778 64 751 94 q 861 28 804 33 l 857 0 q 800 -7 829 -7 m 218 319 l 558 319 l 463 722 l 218 319 m 360 986 l 499 1146 l 651 1146 l 735 986 l 665 986 l 567 1097 l 429 986 l 360 986 m 758 1103 q 774 1144 764 1128 q 804 1185 785 1160 q 831 1228 828 1214 q 833 1247 833 1242 q 796 1283 833 1283 q 749 1268 768 1283 q 715 1214 731 1253 l 658 1215 q 688 1281 665 1256 q 741 1323 714 1311 q 806 1335 768 1335 q 875 1313 846 1335 q 904 1251 904 1292 q 901 1228 904 1244 q 889 1202 899 1213 q 857 1174 879 1192 q 820 1140 833 1154 q 801 1103 807 1125 l 758 1103 z "},"Ẫ":{"ha":881,"x_min":-32,"x_max":861,"o":"m 800 -7 q 676 30 733 -7 q 596 174 618 67 l 576 264 l 188 264 l 31 0 l -32 0 l 518 917 l 560 917 l 735 174 q 778 64 751 94 q 861 28 804 33 l 857 0 q 800 -7 829 -7 m 218 319 l 558 319 l 463 722 l 218 319 m 360 986 l 499 1146 l 651 1146 l 735 986 l 665 986 l 567 1097 l 429 986 l 360 986 m 436 1193 q 475 1295 450 1265 q 543 1325 500 1325 q 580 1317 564 1325 q 614 1296 596 1310 q 629 1286 617 1294 q 654 1274 642 1278 q 679 1269 667 1269 q 711 1288 694 1269 q 731 1325 728 1307 l 772 1325 q 734 1223 760 1253 q 665 1193 708 1193 q 632 1200 646 1193 q 596 1221 618 1207 q 562 1242 576 1235 q 529 1249 547 1249 q 497 1230 514 1249 q 478 1193 481 1211 l 436 1193 z "},"Ä":{"ha":881,"x_min":-32,"x_max":861,"o":"m 800 -7 q 676 30 733 -7 q 596 174 618 67 l 576 264 l 188 264 l 31 0 l -32 0 l 518 917 l 560 917 l 735 174 q 778 64 751 94 q 861 28 804 33 l 857 0 q 800 -7 829 -7 m 218 319 l 558 319 l 463 722 l 218 319 m 442 1007 q 403 1021 418 1007 q 389 1057 389 1035 q 410 1109 389 1086 q 464 1132 432 1132 q 502 1117 488 1132 q 517 1081 517 1103 q 494 1030 517 1053 q 442 1007 471 1007 m 678 1007 q 640 1021 654 1007 q 625 1057 625 1035 q 647 1109 625 1086 q 700 1132 668 1132 q 738 1117 724 1132 q 753 1081 753 1103 q 730 1030 753 1053 q 678 1007 707 1007 z "},"Ạ":{"ha":881,"x_min":-32,"x_max":861,"o":"m 800 -7 q 676 30 733 -7 q 596 174 618 67 l 576 264 l 188 264 l 31 0 l -32 0 l 518 917 l 560 917 l 735 174 q 778 64 751 94 q 861 28 804 33 l 857 0 q 800 -7 829 -7 m 218 319 l 558 319 l 463 722 l 218 319 m 343 -224 q 306 -209 319 -224 q 292 -171 292 -194 q 314 -121 292 -143 q 365 -99 336 -99 q 403 -113 389 -99 q 418 -150 418 -128 q 395 -201 418 -178 q 343 -224 372 -224 z "},"À":{"ha":881,"x_min":-32,"x_max":861,"o":"m 800 -7 q 676 30 733 -7 q 596 174 618 67 l 576 264 l 188 264 l 31 0 l -32 0 l 518 917 l 560 917 l 735 174 q 778 64 751 94 q 861 28 804 33 l 857 0 q 800 -7 829 -7 m 218 319 l 558 319 l 463 722 l 218 319 m 515 993 l 415 1174 l 547 1174 l 571 993 l 515 993 z "},"Ả":{"ha":881,"x_min":-32,"x_max":861,"o":"m 800 -7 q 676 30 733 -7 q 596 174 618 67 l 576 264 l 188 264 l 31 0 l -32 0 l 518 917 l 560 917 l 735 174 q 778 64 751 94 q 861 28 804 33 l 857 0 q 800 -7 829 -7 m 218 319 l 558 319 l 463 722 l 218 319 m 554 988 q 570 1028 560 1013 q 600 1069 581 1044 q 626 1113 624 1099 q 629 1132 629 1126 q 592 1168 629 1168 q 545 1153 564 1168 q 511 1099 526 1138 l 454 1100 q 483 1165 461 1140 q 537 1208 510 1196 q 601 1219 564 1219 q 671 1198 642 1219 q 700 1136 700 1176 q 697 1113 700 1129 q 685 1087 694 1097 q 653 1058 675 1076 q 616 1024 629 1039 q 597 988 603 1010 l 554 988 z "},"Å":{"ha":881,"x_min":-32,"x_max":861,"o":"m 800 -7 q 676 30 733 -7 q 596 174 618 67 l 576 264 l 188 264 l 31 0 l -32 0 l 489 868 q 447 901 464 879 q 429 956 429 922 q 449 1023 429 990 q 502 1076 469 1056 q 571 1097 535 1097 q 641 1068 613 1097 q 669 997 669 1039 q 643 922 669 956 q 572 868 617 889 l 735 174 q 778 64 751 94 q 861 28 804 33 l 857 0 q 800 -7 829 -7 m 567 917 q 601 949 588 929 q 614 994 614 969 q 600 1034 614 1019 q 563 1049 586 1049 q 509 1024 532 1049 q 486 965 486 999 q 511 917 486 936 l 567 917 m 218 319 l 558 319 l 463 722 l 218 319 z "},"Ã":{"ha":881,"x_min":-32,"x_max":861,"o":"m 800 -7 q 676 30 733 -7 q 596 174 618 67 l 576 264 l 188 264 l 31 0 l -32 0 l 518 917 l 560 917 l 735 174 q 778 64 751 94 q 861 28 804 33 l 857 0 q 800 -7 829 -7 m 218 319 l 558 319 l 463 722 l 218 319 m 399 972 q 438 1074 413 1044 q 506 1104 463 1104 q 542 1097 526 1104 q 576 1075 558 1089 q 592 1065 579 1074 q 617 1053 604 1057 q 642 1049 629 1049 q 674 1067 657 1049 q 693 1104 690 1086 l 735 1104 q 697 1002 722 1032 q 628 972 671 972 q 594 979 608 972 q 558 1000 581 986 q 524 1021 539 1014 q 492 1028 510 1028 q 460 1009 476 1028 q 440 972 443 990 l 399 972 z "},"Æ":{"ha":1208,"x_min":-81,"x_max":1197,"o":"m 594 917 l 1096 917 q 1197 836 1197 917 q 1192 800 1197 833 l 1176 701 l 1149 701 q 1153 743 1153 725 q 1003 861 1153 861 l 744 861 l 681 500 l 1056 500 l 1046 444 l 671 444 l 603 56 l 846 56 q 1002 90 942 56 q 1108 208 1063 125 l 1135 201 l 1063 69 q 947 0 1026 0 l 468 0 l 514 264 l 181 264 l -11 0 l -81 0 l 594 917 m 225 319 l 524 319 l 618 854 l 225 319 z "},"B":{"ha":867,"x_min":82,"x_max":815,"o":"m 214 750 q 219 810 219 779 q 201 869 219 849 q 140 889 183 889 l 113 889 l 118 917 l 479 917 q 716 876 617 917 q 815 719 815 835 q 754 568 815 631 q 594 472 693 506 q 744 412 699 456 q 790 301 790 368 q 666 73 790 146 q 360 0 542 0 l 82 0 l 214 750 m 425 493 q 546 519 486 493 q 644 596 606 546 q 683 711 683 646 q 617 828 683 788 q 464 868 551 868 q 357 854 415 868 l 293 493 l 425 493 m 347 49 q 491 74 422 49 q 604 151 560 99 q 649 283 649 204 q 590 398 649 358 q 415 438 531 438 l 283 438 l 218 68 q 347 49 281 49 z "},"C":{"ha":925,"x_min":63,"x_max":906,"o":"m 419 -28 q 228 19 308 -28 q 105 150 147 67 q 63 340 63 233 q 133 617 63 475 q 324 851 203 758 q 590 944 444 944 q 728 928 657 944 q 853 872 800 913 q 906 764 906 832 q 894 663 906 732 l 889 625 l 861 625 q 799 824 858 760 q 622 889 739 889 q 392 808 488 889 q 249 599 297 726 q 201 335 201 471 q 267 114 201 200 q 471 28 333 28 q 657 76 572 28 q 818 222 742 125 l 842 201 q 652 24 753 76 q 419 -28 551 -28 z "},"Ç":{"ha":925,"x_min":63,"x_max":906,"o":"m 344 -215 l 414 -215 q 460 -201 440 -215 q 479 -160 479 -186 q 431 -125 479 -125 l 368 -125 l 385 -28 q 212 26 285 -22 q 101 157 139 75 q 63 340 63 239 q 133 617 63 475 q 324 851 203 758 q 590 944 444 944 q 728 928 657 944 q 853 872 800 913 q 906 764 906 832 q 894 663 906 732 l 889 625 l 861 625 q 799 824 858 760 q 622 889 739 889 q 392 808 488 889 q 249 599 297 726 q 201 335 201 471 q 267 114 201 200 q 471 28 333 28 q 657 76 572 28 q 818 222 742 125 l 842 201 q 663 31 758 83 q 447 -28 568 -22 l 440 -69 l 454 -69 q 523 -90 497 -69 q 549 -150 549 -111 q 512 -236 549 -203 q 418 -272 475 -269 l 335 -272 l 344 -215 z "},"D":{"ha":994,"x_min":82,"x_max":957,"o":"m 214 750 q 219 810 219 779 q 201 869 219 849 q 140 889 183 889 l 113 889 l 118 917 l 482 917 q 838 824 718 917 q 957 563 957 731 q 879 274 957 403 q 665 73 801 146 q 357 0 528 0 l 82 0 l 214 750 m 361 49 q 589 121 488 49 q 747 309 690 193 q 804 553 804 425 q 723 783 804 697 q 503 868 642 868 q 360 846 439 868 l 222 67 q 361 49 300 49 z "},"Ð":{"ha":994,"x_min":53,"x_max":957,"o":"m 157 431 l 53 431 l 63 486 l 167 486 l 214 750 q 219 810 219 779 q 201 869 219 849 q 140 889 183 889 l 113 889 l 118 917 l 482 917 q 838 824 718 917 q 957 563 957 731 q 879 274 957 403 q 665 73 801 146 q 357 0 528 0 l 82 0 l 157 431 m 361 49 q 589 121 488 49 q 747 309 690 193 q 804 553 804 425 q 723 783 804 697 q 503 868 642 868 q 360 846 439 868 l 296 486 l 417 486 l 407 431 l 286 431 l 222 67 q 361 49 300 49 z "},"Đ":{"ha":994,"x_min":53,"x_max":957,"o":"m 157 431 l 53 431 l 63 486 l 167 486 l 214 750 q 219 810 219 779 q 201 869 219 849 q 140 889 183 889 l 113 889 l 118 917 l 482 917 q 838 824 718 917 q 957 563 957 731 q 879 274 957 403 q 665 73 801 146 q 357 0 528 0 l 82 0 l 157 431 m 361 49 q 589 121 488 49 q 747 309 690 193 q 804 553 804 425 q 723 783 804 697 q 503 868 642 868 q 360 846 439 868 l 296 486 l 417 486 l 407 431 l 286 431 l 222 67 q 361 49 300 49 z "},"E":{"ha":824,"x_min":83,"x_max":813,"o":"m 167 483 q 201 683 181 568 q 221 810 221 799 q 203 869 221 849 q 142 889 185 889 l 114 889 l 119 917 l 711 917 q 813 836 813 917 q 807 800 813 833 l 792 701 l 764 701 q 768 743 768 725 q 618 861 768 861 l 360 861 l 296 500 l 671 500 l 661 444 l 286 444 l 218 56 l 461 56 q 617 90 557 56 q 724 208 678 125 l 750 201 l 678 69 q 563 0 642 0 l 83 0 l 167 483 z "},"É":{"ha":824,"x_min":83,"x_max":813,"o":"m 167 483 q 201 683 181 568 q 221 810 221 799 q 203 869 221 849 q 142 889 185 889 l 114 889 l 119 917 l 711 917 q 813 836 813 917 q 807 800 813 833 l 792 701 l 764 701 q 768 743 768 725 q 618 861 768 861 l 360 861 l 296 500 l 671 500 l 661 444 l 286 444 l 218 56 l 461 56 q 617 90 557 56 q 724 208 678 125 l 750 201 l 678 69 q 563 0 642 0 l 83 0 l 167 483 m 490 972 l 578 1153 l 710 1153 l 546 972 l 490 972 z "},"Ê":{"ha":824,"x_min":83,"x_max":813,"o":"m 167 483 q 201 683 181 568 q 221 810 221 799 q 203 869 221 849 q 142 889 185 889 l 114 889 l 119 917 l 711 917 q 813 836 813 917 q 807 800 813 833 l 792 701 l 764 701 q 768 743 768 725 q 618 861 768 861 l 360 861 l 296 500 l 671 500 l 661 444 l 286 444 l 218 56 l 461 56 q 617 90 557 56 q 724 208 678 125 l 750 201 l 678 69 q 563 0 642 0 l 83 0 l 167 483 m 343 1001 l 482 1161 l 635 1161 l 718 1001 l 649 1001 l 550 1113 l 413 1001 l 343 1001 z "},"Ế":{"ha":824,"x_min":83,"x_max":958,"o":"m 167 483 q 201 683 181 568 q 221 810 221 799 q 203 869 221 849 q 142 889 185 889 l 114 889 l 119 917 l 711 917 q 813 836 813 917 q 807 800 813 833 l 792 701 l 764 701 q 768 743 768 725 q 618 861 768 861 l 360 861 l 296 500 l 671 500 l 661 444 l 286 444 l 218 56 l 461 56 q 617 90 557 56 q 724 208 678 125 l 750 201 l 678 69 q 563 0 642 0 l 83 0 l 167 483 m 332 986 l 471 1146 l 624 1146 l 707 986 l 638 986 l 539 1097 l 401 986 l 332 986 m 714 1074 l 840 1233 l 958 1233 l 783 1074 l 714 1074 z "},"Ệ":{"ha":824,"x_min":83,"x_max":813,"o":"m 167 483 q 201 683 181 568 q 221 810 221 799 q 203 869 221 849 q 142 889 185 889 l 114 889 l 119 917 l 711 917 q 813 836 813 917 q 807 800 813 833 l 792 701 l 764 701 q 768 743 768 725 q 618 861 768 861 l 360 861 l 296 500 l 671 500 l 661 444 l 286 444 l 218 56 l 461 56 q 617 90 557 56 q 724 208 678 125 l 750 201 l 678 69 q 563 0 642 0 l 83 0 l 167 483 m 315 -224 q 278 -209 292 -224 q 264 -171 264 -194 q 286 -121 264 -143 q 338 -99 308 -99 q 376 -113 361 -99 q 390 -150 390 -128 q 367 -201 390 -178 q 315 -224 344 -224 m 332 986 l 471 1146 l 624 1146 l 707 986 l 638 986 l 539 1097 l 401 986 l 332 986 z "},"Ề":{"ha":824,"x_min":83,"x_max":813,"o":"m 167 483 q 201 683 181 568 q 221 810 221 799 q 203 869 221 849 q 142 889 185 889 l 114 889 l 119 917 l 711 917 q 813 836 813 917 q 807 800 813 833 l 792 701 l 764 701 q 768 743 768 725 q 618 861 768 861 l 360 861 l 296 500 l 671 500 l 661 444 l 286 444 l 218 56 l 461 56 q 617 90 557 56 q 724 208 678 125 l 750 201 l 678 69 q 563 0 642 0 l 83 0 l 167 483 m 332 986 l 471 1146 l 624 1146 l 707 986 l 638 986 l 539 1097 l 401 986 l 332 986 m 736 1096 l 636 1276 l 768 1276 l 792 1096 l 736 1096 z "},"Ể":{"ha":824,"x_min":83,"x_max":876,"o":"m 167 483 q 201 683 181 568 q 221 810 221 799 q 203 869 221 849 q 142 889 185 889 l 114 889 l 119 917 l 711 917 q 813 836 813 917 q 807 800 813 833 l 792 701 l 764 701 q 768 743 768 725 q 618 861 768 861 l 360 861 l 296 500 l 671 500 l 661 444 l 286 444 l 218 56 l 461 56 q 617 90 557 56 q 724 208 678 125 l 750 201 l 678 69 q 563 0 642 0 l 83 0 l 167 483 m 332 986 l 471 1146 l 624 1146 l 707 986 l 638 986 l 539 1097 l 401 986 l 332 986 m 731 1103 q 747 1144 736 1128 q 776 1185 757 1160 q 803 1228 800 1214 q 806 1247 806 1242 q 768 1283 806 1283 q 722 1268 740 1283 q 688 1214 703 1253 l 631 1215 q 660 1281 638 1256 q 713 1323 686 1311 q 778 1335 740 1335 q 847 1313 818 1335 q 876 1251 876 1292 q 874 1228 876 1244 q 861 1202 871 1213 q 829 1174 851 1192 q 792 1140 806 1154 q 774 1103 779 1125 l 731 1103 z "},"Ễ":{"ha":824,"x_min":83,"x_max":813,"o":"m 167 483 q 201 683 181 568 q 221 810 221 799 q 203 869 221 849 q 142 889 185 889 l 114 889 l 119 917 l 711 917 q 813 836 813 917 q 807 800 813 833 l 792 701 l 764 701 q 768 743 768 725 q 618 861 768 861 l 360 861 l 296 500 l 671 500 l 661 444 l 286 444 l 218 56 l 461 56 q 617 90 557 56 q 724 208 678 125 l 750 201 l 678 69 q 563 0 642 0 l 83 0 l 167 483 m 332 986 l 471 1146 l 624 1146 l 707 986 l 638 986 l 539 1097 l 401 986 l 332 986 m 408 1193 q 447 1295 422 1265 q 515 1325 472 1325 q 552 1317 536 1325 q 586 1296 568 1310 q 601 1286 589 1294 q 626 1274 614 1278 q 651 1269 639 1269 q 683 1288 667 1269 q 703 1325 700 1307 l 744 1325 q 706 1223 732 1253 q 638 1193 681 1193 q 604 1200 618 1193 q 568 1221 590 1207 q 534 1242 549 1235 q 501 1249 519 1249 q 469 1230 486 1249 q 450 1193 453 1211 l 408 1193 z "},"Ë":{"ha":824,"x_min":83,"x_max":813,"o":"m 167 483 q 201 683 181 568 q 221 810 221 799 q 203 869 221 849 q 142 889 185 889 l 114 889 l 119 917 l 711 917 q 813 836 813 917 q 807 800 813 833 l 792 701 l 764 701 q 768 743 768 725 q 618 861 768 861 l 360 861 l 296 500 l 671 500 l 661 444 l 286 444 l 218 56 l 461 56 q 617 90 557 56 q 724 208 678 125 l 750 201 l 678 69 q 563 0 642 0 l 83 0 l 167 483 m 401 1014 q 358 1029 374 1014 q 343 1069 343 1044 q 367 1128 343 1103 q 426 1153 390 1153 q 469 1138 454 1153 q 485 1097 485 1122 q 461 1039 485 1064 q 401 1014 438 1014 m 638 1014 q 594 1029 610 1014 q 579 1069 579 1044 q 603 1128 579 1103 q 663 1153 626 1153 q 706 1138 690 1153 q 721 1097 721 1122 q 697 1039 721 1064 q 638 1014 674 1014 z "},"Ẹ":{"ha":824,"x_min":83,"x_max":813,"o":"m 167 483 q 201 683 181 568 q 221 810 221 799 q 203 869 221 849 q 142 889 185 889 l 114 889 l 119 917 l 711 917 q 813 836 813 917 q 807 800 813 833 l 792 701 l 764 701 q 768 743 768 725 q 618 861 768 861 l 360 861 l 296 500 l 671 500 l 661 444 l 286 444 l 218 56 l 461 56 q 617 90 557 56 q 724 208 678 125 l 750 201 l 678 69 q 563 0 642 0 l 83 0 l 167 483 m 315 -224 q 278 -209 292 -224 q 264 -171 264 -194 q 286 -121 264 -143 q 338 -99 308 -99 q 376 -113 361 -99 q 390 -150 390 -128 q 367 -201 390 -178 q 315 -224 344 -224 z "},"È":{"ha":824,"x_min":83,"x_max":813,"o":"m 167 483 q 201 683 181 568 q 221 810 221 799 q 203 869 221 849 q 142 889 185 889 l 114 889 l 119 917 l 711 917 q 813 836 813 917 q 807 800 813 833 l 792 701 l 764 701 q 768 743 768 725 q 618 861 768 861 l 360 861 l 296 500 l 671 500 l 661 444 l 286 444 l 218 56 l 461 56 q 617 90 557 56 q 724 208 678 125 l 750 201 l 678 69 q 563 0 642 0 l 83 0 l 167 483 m 488 993 l 388 1174 l 519 1174 l 543 993 l 488 993 z "},"Ẻ":{"ha":824,"x_min":83,"x_max":813,"o":"m 167 483 q 201 683 181 568 q 221 810 221 799 q 203 869 221 849 q 142 889 185 889 l 114 889 l 119 917 l 711 917 q 813 836 813 917 q 807 800 813 833 l 792 701 l 764 701 q 768 743 768 725 q 618 861 768 861 l 360 861 l 296 500 l 671 500 l 661 444 l 286 444 l 218 56 l 461 56 q 617 90 557 56 q 724 208 678 125 l 750 201 l 678 69 q 563 0 642 0 l 83 0 l 167 483 m 526 988 q 542 1028 532 1013 q 572 1069 553 1044 q 599 1113 596 1099 q 601 1132 601 1126 q 564 1168 601 1168 q 517 1153 536 1168 q 483 1099 499 1138 l 426 1100 q 456 1165 433 1140 q 509 1208 482 1196 q 574 1219 536 1219 q 643 1198 614 1219 q 672 1136 672 1176 q 669 1113 672 1129 q 657 1087 667 1097 q 625 1058 647 1076 q 588 1024 601 1039 q 569 988 575 1010 l 526 988 z "},"Ẽ":{"ha":824,"x_min":83,"x_max":813,"o":"m 167 483 q 201 683 181 568 q 221 810 221 799 q 203 869 221 849 q 142 889 185 889 l 114 889 l 119 917 l 711 917 q 813 836 813 917 q 807 800 813 833 l 792 701 l 764 701 q 768 743 768 725 q 618 861 768 861 l 360 861 l 296 500 l 671 500 l 661 444 l 286 444 l 218 56 l 461 56 q 617 90 557 56 q 724 208 678 125 l 750 201 l 678 69 q 563 0 642 0 l 83 0 l 167 483 m 368 1042 q 407 1144 382 1114 q 475 1174 432 1174 q 512 1166 496 1174 q 546 1144 528 1158 q 561 1135 549 1143 q 586 1122 574 1126 q 611 1118 599 1118 q 643 1137 626 1118 q 663 1174 660 1156 l 704 1174 q 666 1072 692 1101 q 597 1042 640 1042 q 564 1049 578 1042 q 528 1069 550 1056 q 494 1090 508 1083 q 461 1097 479 1097 q 429 1078 446 1097 q 410 1042 413 1060 l 368 1042 z "},"F":{"ha":738,"x_min":83,"x_max":775,"o":"m 167 483 q 201 683 181 568 q 221 810 221 799 q 203 869 221 849 q 142 889 185 889 l 114 889 l 119 917 l 674 917 q 775 836 775 917 q 769 800 775 833 l 754 701 l 726 701 q 731 743 731 725 q 581 861 731 861 l 360 861 l 294 493 l 608 493 l 599 438 l 285 438 l 208 0 l 83 0 l 167 483 z "},"G":{"ha":1000,"x_min":68,"x_max":996,"o":"m 461 -28 q 253 24 342 -28 q 116 167 164 76 q 68 374 68 258 q 135 644 68 513 q 321 860 201 776 q 590 944 440 944 q 815 906 711 944 q 919 764 919 867 q 906 646 919 721 l 878 646 q 622 889 869 889 q 392 805 488 889 q 249 592 297 721 q 201 328 201 463 q 275 99 201 171 q 471 28 349 28 q 594 40 542 28 q 694 76 646 53 l 738 318 q 767 400 746 365 q 844 458 789 435 q 996 481 899 481 l 990 453 q 901 421 928 453 q 863 321 875 389 l 817 60 q 648 -7 733 14 q 461 -28 563 -28 z "},"Ğ":{"ha":1000,"x_min":68,"x_max":996,"o":"m 461 -28 q 253 24 342 -28 q 116 167 164 76 q 68 374 68 258 q 135 644 68 513 q 321 860 201 776 q 590 944 440 944 q 815 906 711 944 q 919 764 919 867 q 906 646 919 721 l 878 646 q 622 889 869 889 q 392 805 488 889 q 249 592 297 721 q 201 328 201 463 q 275 99 201 171 q 471 28 349 28 q 594 40 542 28 q 694 76 646 53 l 738 318 q 767 400 746 365 q 844 458 789 435 q 996 481 899 481 l 990 453 q 901 421 928 453 q 863 321 875 389 l 817 60 q 648 -7 733 14 q 461 -28 563 -28 m 617 1014 q 458 1139 492 1014 l 489 1160 q 631 1097 529 1097 q 794 1160 735 1097 l 819 1139 q 617 1014 742 1014 z "},"H":{"ha":967,"x_min":82,"x_max":910,"o":"m 214 750 q 219 810 219 779 q 201 869 219 849 q 140 889 183 889 l 113 889 l 118 917 l 243 917 q 324 900 301 917 q 347 832 347 883 q 339 750 347 800 l 294 500 l 711 500 l 785 917 l 910 917 l 778 167 q 771 104 771 122 q 789 47 771 65 q 850 28 807 28 l 878 28 l 874 0 l 749 0 q 667 17 692 0 q 643 85 643 35 q 653 167 643 108 l 701 444 l 285 444 l 207 0 l 82 0 l 214 750 z "},"I":{"ha":401,"x_min":78,"x_max":344,"o":"m 183 0 q 102 17 126 0 q 78 85 78 35 q 88 167 78 108 l 219 917 l 344 917 l 213 167 q 206 104 206 122 q 224 47 206 65 q 285 28 242 28 l 313 28 l 308 0 l 183 0 z "},"Í":{"ha":401,"x_min":78,"x_max":476,"o":"m 183 0 q 102 17 126 0 q 78 85 78 35 q 88 167 78 108 l 219 917 l 344 917 l 213 167 q 206 104 206 122 q 224 47 206 65 q 285 28 242 28 l 313 28 l 308 0 l 183 0 m 257 972 l 344 1153 l 476 1153 l 313 972 l 257 972 z "},"Î":{"ha":401,"x_min":78,"x_max":479,"o":"m 183 0 q 102 17 126 0 q 78 85 78 35 q 88 167 78 108 l 219 917 l 344 917 l 213 167 q 206 104 206 122 q 224 47 206 65 q 285 28 242 28 l 313 28 l 308 0 l 183 0 m 104 965 l 243 1125 l 396 1125 l 479 965 l 410 965 l 311 1076 l 174 965 l 104 965 z "},"Ï":{"ha":401,"x_min":78,"x_max":492,"o":"m 183 0 q 102 17 126 0 q 78 85 78 35 q 88 167 78 108 l 219 917 l 344 917 l 213 167 q 206 104 206 122 q 224 47 206 65 q 285 28 242 28 l 313 28 l 308 0 l 183 0 m 181 1007 q 142 1021 157 1007 q 128 1057 128 1035 q 149 1109 128 1086 q 203 1132 171 1132 q 241 1117 226 1132 q 256 1081 256 1103 q 233 1030 256 1053 q 181 1007 210 1007 m 417 1007 q 378 1021 393 1007 q 364 1057 364 1035 q 385 1109 364 1086 q 439 1132 407 1132 q 477 1117 463 1132 q 492 1081 492 1103 q 469 1030 492 1053 q 417 1007 446 1007 z "},"İ":{"ha":401,"x_min":78,"x_max":375,"o":"m 299 986 q 253 1007 271 986 q 235 1058 235 1028 q 256 1115 235 1092 q 311 1138 276 1138 q 357 1117 339 1138 q 375 1065 375 1096 q 354 1009 375 1032 q 299 986 333 986 m 183 0 q 102 17 126 0 q 78 85 78 35 q 88 167 78 108 l 219 917 l 344 917 l 213 167 q 206 104 206 122 q 224 47 206 65 q 285 28 242 28 l 313 28 l 308 0 l 183 0 z "},"Ị":{"ha":401,"x_min":53,"x_max":344,"o":"m 183 0 q 102 17 126 0 q 78 85 78 35 q 88 167 78 108 l 219 917 l 344 917 l 213 167 q 206 104 206 122 q 224 47 206 65 q 285 28 242 28 l 313 28 l 308 0 l 183 0 m 104 -224 q 67 -209 81 -224 q 53 -171 53 -194 q 75 -121 53 -143 q 126 -99 97 -99 q 165 -113 150 -99 q 179 -150 179 -128 q 156 -201 179 -178 q 104 -224 133 -224 z "},"Ì":{"ha":401,"x_min":78,"x_max":344,"o":"m 183 0 q 102 17 126 0 q 78 85 78 35 q 88 167 78 108 l 219 917 l 344 917 l 213 167 q 206 104 206 122 q 224 47 206 65 q 285 28 242 28 l 313 28 l 308 0 l 183 0 m 254 993 l 154 1174 l 286 1174 l 310 993 l 254 993 z "},"Ỉ":{"ha":401,"x_min":78,"x_max":439,"o":"m 183 0 q 102 17 126 0 q 78 85 78 35 q 88 167 78 108 l 219 917 l 344 917 l 213 167 q 206 104 206 122 q 224 47 206 65 q 285 28 242 28 l 313 28 l 308 0 l 183 0 m 293 988 q 309 1028 299 1013 q 339 1069 319 1044 q 365 1113 363 1099 q 368 1132 368 1126 q 331 1168 368 1168 q 284 1153 303 1168 q 250 1099 265 1138 l 193 1100 q 222 1165 200 1140 q 276 1208 249 1196 q 340 1219 303 1219 q 410 1198 381 1219 q 439 1136 439 1176 q 436 1113 439 1129 q 424 1087 433 1097 q 392 1058 414 1076 q 355 1024 368 1039 q 336 988 342 1010 l 293 988 z "},"Ĩ":{"ha":401,"x_min":78,"x_max":471,"o":"m 183 0 q 102 17 126 0 q 78 85 78 35 q 88 167 78 108 l 219 917 l 344 917 l 213 167 q 206 104 206 122 q 224 47 206 65 q 285 28 242 28 l 313 28 l 308 0 l 183 0 m 135 1042 q 174 1144 149 1114 q 242 1174 199 1174 q 278 1166 263 1174 q 313 1144 294 1158 q 328 1135 315 1143 q 353 1122 340 1126 q 378 1118 365 1118 q 410 1137 393 1118 q 429 1174 426 1156 l 471 1174 q 433 1072 458 1101 q 364 1042 407 1042 q 331 1049 344 1042 q 294 1069 317 1056 q 260 1090 275 1083 q 228 1097 246 1097 q 196 1078 213 1097 q 176 1042 179 1060 l 135 1042 z "},"J":{"ha":367,"x_min":-111,"x_max":340,"o":"m -106 -162 q 5 -92 -40 -162 q 72 108 50 -21 l 215 917 l 340 917 l 197 108 q 144 -65 178 0 q 49 -160 110 -129 q -111 -190 -11 -190 l -106 -162 z "},"K":{"ha":942,"x_min":83,"x_max":967,"o":"m 796 -14 q 665 22 729 -14 q 526 153 600 57 l 289 458 l 208 0 l 83 0 l 167 483 q 201 683 181 568 q 221 810 221 799 q 203 869 221 849 q 142 889 185 889 l 114 889 l 119 917 l 244 917 q 326 899 301 917 q 350 832 350 882 q 340 751 350 814 q 292 479 329 689 l 635 771 q 663 794 661 793 q 781 886 731 856 q 897 917 832 917 l 967 917 l 960 882 q 853 862 900 882 q 742 785 807 842 l 424 514 l 683 181 q 788 76 731 118 q 893 26 844 33 l 889 0 q 796 -14 844 -14 z "},"L":{"ha":774,"x_min":83,"x_max":711,"o":"m 167 483 q 201 683 181 568 q 221 810 221 799 q 203 869 221 849 q 142 889 185 889 l 114 889 l 119 917 l 244 917 q 326 900 303 917 q 349 832 349 883 q 327 684 349 813 q 218 56 306 556 l 711 56 l 701 0 l 83 0 l 167 483 z "},"M":{"ha":1190,"x_min":53,"x_max":1131,"o":"m 1090 -62 q 922 -20 972 -62 q 872 119 872 22 q 885 236 872 169 l 979 771 l 497 0 l 469 0 l 246 785 l 108 0 l 53 0 l 214 917 l 346 917 l 551 194 l 1006 917 l 1131 917 l 1010 236 q 997 117 997 169 q 1094 -35 997 -35 l 1090 -62 z "},"N":{"ha":954,"x_min":86,"x_max":928,"o":"m 269 729 l 142 0 l 86 0 l 147 351 q 222 794 222 779 q 198 865 222 842 q 117 889 174 889 l 103 889 l 108 917 l 199 917 q 305 895 264 917 q 371 833 346 874 l 751 229 l 872 917 l 928 917 l 764 -14 l 736 -14 l 269 729 z "},"Ñ":{"ha":954,"x_min":86,"x_max":928,"o":"m 269 729 l 142 0 l 86 0 l 147 351 q 222 794 222 779 q 198 865 222 842 q 117 889 174 889 l 103 889 l 108 917 l 199 917 q 305 895 264 917 q 371 833 346 874 l 751 229 l 872 917 l 928 917 l 764 -14 l 736 -14 l 269 729 m 432 964 q 471 1066 446 1036 q 539 1096 496 1096 q 576 1088 560 1096 q 610 1067 592 1081 q 625 1057 613 1065 q 650 1044 638 1049 q 675 1040 663 1040 q 707 1059 690 1040 q 726 1096 724 1078 l 768 1096 q 730 994 756 1024 q 661 964 704 964 q 628 971 642 964 q 592 992 614 978 q 558 1013 572 1006 q 525 1019 543 1019 q 493 1001 510 1019 q 474 964 476 982 l 432 964 z "},"O":{"ha":989,"x_min":67,"x_max":947,"o":"m 421 -28 q 230 21 310 -28 q 108 154 150 69 q 67 349 67 239 q 133 628 67 490 q 318 856 199 767 q 592 944 438 944 q 783 896 703 944 q 906 761 864 847 q 947 565 947 675 q 881 286 947 424 q 695 60 815 149 q 421 -28 575 -28 m 431 28 q 640 117 554 28 q 769 338 726 207 q 811 593 811 469 q 752 811 811 733 q 582 889 693 889 q 372 799 457 889 q 244 576 286 708 q 203 321 203 444 q 261 104 203 181 q 431 28 319 28 z "},"Ó":{"ha":989,"x_min":67,"x_max":947,"o":"m 421 -28 q 230 21 310 -28 q 108 154 150 69 q 67 349 67 239 q 133 628 67 490 q 318 856 199 767 q 592 944 438 944 q 783 896 703 944 q 906 761 864 847 q 947 565 947 675 q 881 286 947 424 q 695 60 815 149 q 421 -28 575 -28 m 431 28 q 640 117 554 28 q 769 338 726 207 q 811 593 811 469 q 752 811 811 733 q 582 889 693 889 q 372 799 457 889 q 244 576 286 708 q 203 321 203 444 q 261 104 203 181 q 431 28 319 28 m 572 1000 l 660 1181 l 792 1181 l 628 1000 l 572 1000 z "},"Ô":{"ha":989,"x_min":67,"x_max":947,"o":"m 421 -28 q 230 21 310 -28 q 108 154 150 69 q 67 349 67 239 q 133 628 67 490 q 318 856 199 767 q 592 944 438 944 q 783 896 703 944 q 906 761 864 847 q 947 565 947 675 q 881 286 947 424 q 695 60 815 149 q 421 -28 575 -28 m 431 28 q 640 117 554 28 q 769 338 726 207 q 811 593 811 469 q 752 811 811 733 q 582 889 693 889 q 372 799 457 889 q 244 576 286 708 q 203 321 203 444 q 261 104 203 181 q 431 28 319 28 m 407 1000 l 546 1160 l 699 1160 l 782 1000 l 713 1000 l 614 1111 l 476 1000 l 407 1000 z "},"Ố":{"ha":989,"x_min":67,"x_max":1040,"o":"m 421 -28 q 230 21 310 -28 q 108 154 150 69 q 67 349 67 239 q 133 628 67 490 q 318 856 199 767 q 592 944 438 944 q 783 896 703 944 q 906 761 864 847 q 947 565 947 675 q 881 286 947 424 q 695 60 815 149 q 421 -28 575 -28 m 431 28 q 640 117 554 28 q 769 338 726 207 q 811 593 811 469 q 752 811 811 733 q 582 889 693 889 q 372 799 457 889 q 244 576 286 708 q 203 321 203 444 q 261 104 203 181 q 431 28 319 28 m 414 986 l 553 1146 l 706 1146 l 789 986 l 719 986 l 621 1097 l 483 986 l 414 986 m 796 1074 l 922 1233 l 1040 1233 l 865 1074 l 796 1074 z "},"Ộ":{"ha":989,"x_min":67,"x_max":947,"o":"m 421 -28 q 230 21 310 -28 q 108 154 150 69 q 67 349 67 239 q 133 628 67 490 q 318 856 199 767 q 592 944 438 944 q 783 896 703 944 q 906 761 864 847 q 947 565 947 675 q 881 286 947 424 q 695 60 815 149 q 421 -28 575 -28 m 431 28 q 640 117 554 28 q 769 338 726 207 q 811 593 811 469 q 752 811 811 733 q 582 889 693 889 q 372 799 457 889 q 244 576 286 708 q 203 321 203 444 q 261 104 203 181 q 431 28 319 28 m 397 -224 q 360 -209 374 -224 q 346 -171 346 -194 q 368 -121 346 -143 q 419 -99 390 -99 q 458 -113 443 -99 q 472 -150 472 -128 q 449 -201 472 -178 q 397 -224 426 -224 m 414 986 l 553 1146 l 706 1146 l 789 986 l 719 986 l 621 1097 l 483 986 l 414 986 z "},"Ồ":{"ha":989,"x_min":67,"x_max":947,"o":"m 421 -28 q 230 21 310 -28 q 108 154 150 69 q 67 349 67 239 q 133 628 67 490 q 318 856 199 767 q 592 944 438 944 q 783 896 703 944 q 906 761 864 847 q 947 565 947 675 q 881 286 947 424 q 695 60 815 149 q 421 -28 575 -28 m 431 28 q 640 117 554 28 q 769 338 726 207 q 811 593 811 469 q 752 811 811 733 q 582 889 693 889 q 372 799 457 889 q 244 576 286 708 q 203 321 203 444 q 261 104 203 181 q 431 28 319 28 m 414 986 l 553 1146 l 706 1146 l 789 986 l 719 986 l 621 1097 l 483 986 l 414 986 m 818 1096 l 718 1276 l 850 1276 l 874 1096 l 818 1096 z "},"Ổ":{"ha":989,"x_min":67,"x_max":958,"o":"m 421 -28 q 230 21 310 -28 q 108 154 150 69 q 67 349 67 239 q 133 628 67 490 q 318 856 199 767 q 592 944 438 944 q 783 896 703 944 q 906 761 864 847 q 947 565 947 675 q 881 286 947 424 q 695 60 815 149 q 421 -28 575 -28 m 431 28 q 640 117 554 28 q 769 338 726 207 q 811 593 811 469 q 752 811 811 733 q 582 889 693 889 q 372 799 457 889 q 244 576 286 708 q 203 321 203 444 q 261 104 203 181 q 431 28 319 28 m 414 986 l 553 1146 l 706 1146 l 789 986 l 719 986 l 621 1097 l 483 986 l 414 986 m 813 1103 q 828 1144 818 1128 q 858 1185 839 1160 q 885 1228 882 1214 q 888 1247 888 1242 q 850 1283 888 1283 q 803 1268 822 1283 q 769 1214 785 1253 l 713 1215 q 742 1281 719 1256 q 795 1323 768 1311 q 860 1335 822 1335 q 929 1313 900 1335 q 958 1251 958 1292 q 956 1228 958 1244 q 943 1202 953 1213 q 911 1174 933 1192 q 874 1140 888 1154 q 856 1103 861 1125 l 813 1103 z "},"Ỗ":{"ha":989,"x_min":67,"x_max":947,"o":"m 421 -28 q 230 21 310 -28 q 108 154 150 69 q 67 349 67 239 q 133 628 67 490 q 318 856 199 767 q 592 944 438 944 q 783 896 703 944 q 906 761 864 847 q 947 565 947 675 q 881 286 947 424 q 695 60 815 149 q 421 -28 575 -28 m 431 28 q 640 117 554 28 q 769 338 726 207 q 811 593 811 469 q 752 811 811 733 q 582 889 693 889 q 372 799 457 889 q 244 576 286 708 q 203 321 203 444 q 261 104 203 181 q 431 28 319 28 m 414 986 l 553 1146 l 706 1146 l 789 986 l 719 986 l 621 1097 l 483 986 l 414 986 m 490 1193 q 529 1295 504 1265 q 597 1325 554 1325 q 634 1317 618 1325 q 668 1296 650 1310 q 683 1286 671 1294 q 708 1274 696 1278 q 733 1269 721 1269 q 765 1288 749 1269 q 785 1325 782 1307 l 826 1325 q 788 1223 814 1253 q 719 1193 763 1193 q 686 1200 700 1193 q 650 1221 672 1207 q 616 1242 631 1235 q 583 1249 601 1249 q 551 1230 568 1249 q 532 1193 535 1211 l 490 1193 z "},"Ö":{"ha":989,"x_min":67,"x_max":947,"o":"m 421 -28 q 230 21 310 -28 q 108 154 150 69 q 67 349 67 239 q 133 628 67 490 q 318 856 199 767 q 592 944 438 944 q 783 896 703 944 q 906 761 864 847 q 947 565 947 675 q 881 286 947 424 q 695 60 815 149 q 421 -28 575 -28 m 431 28 q 640 117 554 28 q 769 338 726 207 q 811 593 811 469 q 752 811 811 733 q 582 889 693 889 q 372 799 457 889 q 244 576 286 708 q 203 321 203 444 q 261 104 203 181 q 431 28 319 28 m 496 1007 q 458 1021 472 1007 q 443 1057 443 1035 q 465 1109 443 1086 q 518 1132 486 1132 q 556 1117 542 1132 q 571 1081 571 1103 q 548 1030 571 1053 q 496 1007 525 1007 m 732 1007 q 694 1021 708 1007 q 679 1057 679 1035 q 701 1109 679 1086 q 754 1132 722 1132 q 792 1117 778 1132 q 807 1081 807 1103 q 784 1030 807 1053 q 732 1007 761 1007 z "},"Ọ":{"ha":989,"x_min":67,"x_max":947,"o":"m 421 -28 q 230 21 310 -28 q 108 154 150 69 q 67 349 67 239 q 133 628 67 490 q 318 856 199 767 q 592 944 438 944 q 783 896 703 944 q 906 761 864 847 q 947 565 947 675 q 881 286 947 424 q 695 60 815 149 q 421 -28 575 -28 m 431 28 q 640 117 554 28 q 769 338 726 207 q 811 593 811 469 q 752 811 811 733 q 582 889 693 889 q 372 799 457 889 q 244 576 286 708 q 203 321 203 444 q 261 104 203 181 q 431 28 319 28 m 397 -224 q 360 -209 374 -224 q 346 -171 346 -194 q 368 -121 346 -143 q 419 -99 390 -99 q 458 -113 443 -99 q 472 -150 472 -128 q 449 -201 472 -178 q 397 -224 426 -224 z "},"Ò":{"ha":989,"x_min":67,"x_max":947,"o":"m 421 -28 q 230 21 310 -28 q 108 154 150 69 q 67 349 67 239 q 133 628 67 490 q 318 856 199 767 q 592 944 438 944 q 783 896 703 944 q 906 761 864 847 q 947 565 947 675 q 881 286 947 424 q 695 60 815 149 q 421 -28 575 -28 m 431 28 q 640 117 554 28 q 769 338 726 207 q 811 593 811 469 q 752 811 811 733 q 582 889 693 889 q 372 799 457 889 q 244 576 286 708 q 203 321 203 444 q 261 104 203 181 q 431 28 319 28 m 569 993 l 469 1174 l 601 1174 l 625 993 l 569 993 z "},"Ỏ":{"ha":989,"x_min":67,"x_max":947,"o":"m 421 -28 q 230 21 310 -28 q 108 154 150 69 q 67 349 67 239 q 133 628 67 490 q 318 856 199 767 q 592 944 438 944 q 783 896 703 944 q 906 761 864 847 q 947 565 947 675 q 881 286 947 424 q 695 60 815 149 q 421 -28 575 -28 m 431 28 q 640 117 554 28 q 769 338 726 207 q 811 593 811 469 q 752 811 811 733 q 582 889 693 889 q 372 799 457 889 q 244 576 286 708 q 203 321 203 444 q 261 104 203 181 q 431 28 319 28 m 608 988 q 624 1028 614 1013 q 654 1069 635 1044 q 681 1113 678 1099 q 683 1132 683 1126 q 646 1168 683 1168 q 599 1153 618 1168 q 565 1099 581 1138 l 508 1100 q 538 1165 515 1140 q 591 1208 564 1196 q 656 1219 618 1219 q 725 1198 696 1219 q 754 1136 754 1176 q 751 1113 754 1129 q 739 1087 749 1097 q 707 1058 729 1076 q 670 1024 683 1039 q 651 988 657 1010 l 608 988 z "},"Ơ":{"ha":989,"x_min":67,"x_max":1192,"o":"m 421 -28 q 230 21 310 -28 q 108 154 150 69 q 67 349 67 239 q 133 628 67 490 q 318 856 199 767 q 592 944 438 944 q 783 896 703 944 q 906 761 864 847 q 947 565 947 675 q 881 286 947 424 q 695 60 815 149 q 421 -28 575 -28 m 431 28 q 640 117 554 28 q 769 338 726 207 q 811 593 811 469 q 752 811 811 733 q 582 889 693 889 q 372 799 457 889 q 244 576 286 708 q 203 321 203 444 q 261 104 203 181 q 431 28 319 28 m 944 917 q 1057 960 1014 917 q 1113 1061 1100 1003 l 1192 1061 q 938 881 1156 881 l 944 917 z "},"Ớ":{"ha":989,"x_min":67,"x_max":1192,"o":"m 421 -28 q 230 21 310 -28 q 108 154 150 69 q 67 349 67 239 q 133 628 67 490 q 318 856 199 767 q 592 944 438 944 q 783 896 703 944 q 906 761 864 847 q 947 565 947 675 q 881 286 947 424 q 695 60 815 149 q 421 -28 575 -28 m 431 28 q 640 117 554 28 q 769 338 726 207 q 811 593 811 469 q 752 811 811 733 q 582 889 693 889 q 372 799 457 889 q 244 576 286 708 q 203 321 203 444 q 261 104 203 181 q 431 28 319 28 m 944 917 q 1057 960 1014 917 q 1113 1061 1100 1003 l 1192 1061 q 938 881 1156 881 l 944 917 m 560 1014 l 686 1174 l 804 1174 l 629 1014 l 560 1014 z "},"Ợ":{"ha":989,"x_min":67,"x_max":1192,"o":"m 421 -28 q 230 21 310 -28 q 108 154 150 69 q 67 349 67 239 q 133 628 67 490 q 318 856 199 767 q 592 944 438 944 q 783 896 703 944 q 906 761 864 847 q 947 565 947 675 q 881 286 947 424 q 695 60 815 149 q 421 -28 575 -28 m 431 28 q 640 117 554 28 q 769 338 726 207 q 811 593 811 469 q 752 811 811 733 q 582 889 693 889 q 372 799 457 889 q 244 576 286 708 q 203 321 203 444 q 261 104 203 181 q 431 28 319 28 m 944 917 q 1057 960 1014 917 q 1113 1061 1100 1003 l 1192 1061 q 938 881 1156 881 l 944 917 m 397 -224 q 360 -209 374 -224 q 346 -171 346 -194 q 368 -121 346 -143 q 419 -99 390 -99 q 458 -113 443 -99 q 472 -150 472 -128 q 449 -201 472 -178 q 397 -224 426 -224 z "},"Ờ":{"ha":989,"x_min":67,"x_max":1192,"o":"m 421 -28 q 230 21 310 -28 q 108 154 150 69 q 67 349 67 239 q 133 628 67 490 q 318 856 199 767 q 592 944 438 944 q 783 896 703 944 q 906 761 864 847 q 947 565 947 675 q 881 286 947 424 q 695 60 815 149 q 421 -28 575 -28 m 431 28 q 640 117 554 28 q 769 338 726 207 q 811 593 811 469 q 752 811 811 733 q 582 889 693 889 q 372 799 457 889 q 244 576 286 708 q 203 321 203 444 q 261 104 203 181 q 431 28 319 28 m 944 917 q 1057 960 1014 917 q 1113 1061 1100 1003 l 1192 1061 q 938 881 1156 881 l 944 917 m 569 993 l 469 1174 l 601 1174 l 625 993 l 569 993 z "},"Ở":{"ha":989,"x_min":67,"x_max":1192,"o":"m 421 -28 q 230 21 310 -28 q 108 154 150 69 q 67 349 67 239 q 133 628 67 490 q 318 856 199 767 q 592 944 438 944 q 783 896 703 944 q 906 761 864 847 q 947 565 947 675 q 881 286 947 424 q 695 60 815 149 q 421 -28 575 -28 m 431 28 q 640 117 554 28 q 769 338 726 207 q 811 593 811 469 q 752 811 811 733 q 582 889 693 889 q 372 799 457 889 q 244 576 286 708 q 203 321 203 444 q 261 104 203 181 q 431 28 319 28 m 944 917 q 1057 960 1014 917 q 1113 1061 1100 1003 l 1192 1061 q 938 881 1156 881 l 944 917 m 608 988 q 624 1028 614 1013 q 654 1069 635 1044 q 681 1113 678 1099 q 683 1132 683 1126 q 646 1168 683 1168 q 599 1153 618 1168 q 565 1099 581 1138 l 508 1100 q 538 1165 515 1140 q 591 1208 564 1196 q 656 1219 618 1219 q 725 1198 696 1219 q 754 1136 754 1176 q 751 1113 754 1129 q 739 1087 749 1097 q 707 1058 729 1076 q 670 1024 683 1039 q 651 988 657 1010 l 608 988 z "},"Ỡ":{"ha":989,"x_min":67,"x_max":1192,"o":"m 421 -28 q 230 21 310 -28 q 108 154 150 69 q 67 349 67 239 q 133 628 67 490 q 318 856 199 767 q 592 944 438 944 q 783 896 703 944 q 906 761 864 847 q 947 565 947 675 q 881 286 947 424 q 695 60 815 149 q 421 -28 575 -28 m 431 28 q 640 117 554 28 q 769 338 726 207 q 811 593 811 469 q 752 811 811 733 q 582 889 693 889 q 372 799 457 889 q 244 576 286 708 q 203 321 203 444 q 261 104 203 181 q 431 28 319 28 m 944 917 q 1057 960 1014 917 q 1113 1061 1100 1003 l 1192 1061 q 938 881 1156 881 l 944 917 m 450 1042 q 489 1144 464 1114 q 557 1174 514 1174 q 594 1166 578 1174 q 628 1144 610 1158 q 643 1135 631 1143 q 668 1122 656 1126 q 693 1118 681 1118 q 725 1137 708 1118 q 744 1174 742 1156 l 786 1174 q 748 1072 774 1101 q 679 1042 722 1042 q 646 1049 660 1042 q 610 1069 632 1056 q 576 1090 590 1083 q 543 1097 561 1097 q 511 1078 528 1097 q 492 1042 494 1060 l 450 1042 z "},"Ø":{"ha":989,"x_min":67,"x_max":947,"o":"m 169 67 q 93 190 119 118 q 67 349 67 261 q 133 628 67 490 q 318 856 199 767 q 592 944 438 944 q 771 903 692 944 l 801 944 l 903 944 l 838 854 q 919 729 890 803 q 947 565 947 656 q 881 286 947 424 q 695 60 815 149 q 421 -28 575 -28 q 235 17 313 -28 l 203 -28 l 101 -28 l 169 67 m 725 839 q 582 889 669 889 q 371 798 457 889 q 243 574 285 707 q 201 318 201 442 q 232 154 201 221 l 725 839 m 431 28 q 640 117 554 28 q 769 337 726 206 q 811 592 811 468 q 776 769 811 699 l 282 82 q 431 28 340 28 z "},"Õ":{"ha":989,"x_min":67,"x_max":947,"o":"m 421 -28 q 230 21 310 -28 q 108 154 150 69 q 67 349 67 239 q 133 628 67 490 q 318 856 199 767 q 592 944 438 944 q 783 896 703 944 q 906 761 864 847 q 947 565 947 675 q 881 286 947 424 q 695 60 815 149 q 421 -28 575 -28 m 431 28 q 640 117 554 28 q 769 338 726 207 q 811 593 811 469 q 752 811 811 733 q 582 889 693 889 q 372 799 457 889 q 244 576 286 708 q 203 321 203 444 q 261 104 203 181 q 431 28 319 28 m 449 1025 q 488 1127 463 1097 q 556 1157 513 1157 q 592 1149 576 1157 q 626 1128 608 1142 q 642 1118 629 1126 q 667 1106 654 1110 q 692 1101 679 1101 q 724 1120 707 1101 q 743 1157 740 1139 l 785 1157 q 747 1055 772 1085 q 678 1025 721 1025 q 644 1032 658 1025 q 608 1053 631 1039 q 574 1074 589 1067 q 542 1081 560 1081 q 510 1062 526 1081 q 490 1025 493 1043 l 449 1025 z "},"Œ":{"ha":1313,"x_min":67,"x_max":1301,"o":"m 421 -28 q 230 21 310 -28 q 108 154 150 69 q 67 349 67 239 q 133 628 67 490 q 318 856 199 767 q 592 944 438 944 q 740 917 681 944 l 1200 917 q 1301 836 1301 917 q 1296 800 1301 833 l 1281 701 l 1253 701 q 1257 743 1257 725 q 1107 861 1257 861 l 849 861 l 785 500 l 1160 500 l 1150 444 l 775 444 l 707 56 l 950 56 q 1106 90 1046 56 q 1213 208 1167 125 l 1239 201 l 1167 69 q 1051 0 1131 0 l 579 0 q 421 -28 507 -28 m 431 28 q 585 72 515 28 l 721 847 q 582 889 667 889 q 372 799 457 889 q 244 576 286 708 q 203 321 203 444 q 261 104 203 181 q 431 28 319 28 z "},"P":{"ha":771,"x_min":83,"x_max":785,"o":"m 167 483 q 201 683 181 568 q 221 810 221 799 q 203 869 221 849 q 142 889 185 889 l 114 889 l 119 917 l 481 917 q 691 872 597 917 q 785 699 785 826 q 736 531 785 604 q 606 416 688 457 q 426 375 524 375 l 274 375 l 208 0 l 83 0 l 167 483 m 386 424 q 501 454 440 424 q 603 546 561 485 q 644 693 644 607 q 615 792 644 753 q 544 850 586 832 q 465 868 503 868 q 358 854 417 868 l 285 438 q 386 424 338 424 z "},"Þ":{"ha":746,"x_min":79,"x_max":725,"o":"m 79 -42 q 114 160 113 150 q 236 865 236 857 q 154 931 236 931 l 126 931 l 131 958 l 256 958 q 340 942 315 958 q 364 883 364 925 q 351 797 364 867 l 346 764 q 629 699 533 764 q 725 506 725 635 q 587 214 725 311 q 232 111 449 117 l 204 -42 l 79 -42 m 242 167 q 420 207 342 167 q 542 324 499 247 q 586 504 586 400 q 526 655 586 601 q 336 708 465 708 l 242 167 z "},"Q":{"ha":988,"x_min":67,"x_max":946,"o":"m 819 -285 q 524 -222 654 -285 q 299 -10 393 -160 q 127 119 188 24 q 67 349 67 214 q 133 628 67 490 q 318 856 199 767 q 592 944 438 944 q 783 896 703 944 q 904 763 863 847 q 946 568 946 678 q 897 323 946 442 q 756 115 849 204 q 538 -12 664 25 q 592 -135 546 -79 q 701 -224 638 -192 q 825 -257 765 -257 l 819 -285 m 431 28 q 640 117 554 28 q 769 338 726 207 q 811 593 811 469 q 752 811 811 733 q 582 889 693 889 q 372 799 457 889 q 244 576 286 708 q 203 321 203 444 q 261 104 203 181 q 431 28 319 28 z "},"R":{"ha":826,"x_min":83,"x_max":788,"o":"m 692 -14 q 571 30 618 -14 q 476 188 524 74 l 379 424 l 282 424 l 208 0 l 83 0 l 167 483 q 201 683 181 568 q 221 810 221 799 q 203 869 221 849 q 142 889 185 889 l 114 889 l 119 917 l 481 917 q 693 874 599 917 q 788 715 788 832 q 714 532 788 606 q 519 431 640 458 l 622 188 q 693 68 657 103 q 782 28 729 33 l 778 0 q 741 -10 765 -6 q 692 -14 717 -14 m 394 472 q 515 503 456 472 q 611 587 574 533 q 649 704 649 640 q 619 797 649 760 q 547 851 590 833 q 465 868 504 868 q 358 854 417 868 l 293 486 q 394 472 346 472 z "},"S":{"ha":742,"x_min":32,"x_max":715,"o":"m 321 -24 q 181 -4 247 -24 q 73 50 114 15 q 32 131 32 85 q 60 294 32 147 l 85 294 l 85 285 q 142 92 85 153 q 318 32 200 32 q 417 52 368 32 q 497 111 465 72 q 528 203 528 150 q 499 285 528 249 q 406 365 469 321 l 253 467 q 156 555 185 513 q 128 656 128 597 q 170 801 128 736 q 285 904 213 867 q 443 942 357 942 q 572 924 510 942 q 675 871 635 906 q 715 792 715 836 q 710 754 715 785 l 688 626 l 663 626 l 663 636 q 607 827 663 768 q 433 886 551 886 q 344 865 388 886 q 272 805 300 843 q 244 719 244 767 q 273 643 244 675 q 369 564 301 611 l 522 463 q 626 373 593 415 q 658 275 658 331 q 612 122 658 190 q 488 15 565 54 q 321 -24 410 -24 z "},"Š":{"ha":742,"x_min":32,"x_max":715,"o":"m 321 -24 q 181 -4 247 -24 q 73 50 114 15 q 32 131 32 85 q 60 294 32 147 l 85 294 l 85 285 q 142 92 85 153 q 318 32 200 32 q 417 52 368 32 q 497 111 465 72 q 528 203 528 150 q 499 285 528 249 q 406 365 469 321 l 253 467 q 156 555 185 513 q 128 656 128 597 q 170 801 128 736 q 285 904 213 867 q 443 942 357 942 q 572 924 510 942 q 675 871 635 906 q 715 792 715 836 q 710 754 715 785 l 688 626 l 663 626 l 663 636 q 607 827 663 768 q 433 886 551 886 q 344 865 388 886 q 272 805 300 843 q 244 719 244 767 q 273 643 244 675 q 369 564 301 611 l 522 463 q 626 373 593 415 q 658 275 658 331 q 612 122 658 190 q 488 15 565 54 q 321 -24 410 -24 m 388 1000 l 304 1160 l 374 1160 l 472 1049 l 610 1160 l 679 1160 l 540 1000 l 388 1000 z "},"Ş":{"ha":742,"x_min":32,"x_max":715,"o":"m 219 -201 l 289 -201 q 335 -187 315 -201 q 354 -147 354 -174 q 304 -111 354 -111 l 242 -111 l 258 -19 q 96 33 160 -7 q 32 131 32 72 q 60 294 32 147 l 85 294 l 85 285 q 142 92 85 153 q 318 32 200 32 q 417 52 368 32 q 497 111 465 72 q 528 203 528 150 q 499 285 528 249 q 406 365 469 321 l 253 467 q 156 555 185 513 q 128 656 128 597 q 170 801 128 736 q 285 904 213 867 q 443 942 357 942 q 572 924 510 942 q 675 871 635 906 q 715 792 715 836 q 710 754 715 785 l 688 626 l 663 626 l 663 636 q 607 827 663 768 q 433 886 551 886 q 344 865 388 886 q 272 805 300 843 q 244 719 244 767 q 273 643 244 675 q 369 564 301 611 l 522 463 q 626 373 593 415 q 658 275 658 331 q 612 122 658 189 q 488 18 565 56 q 321 -24 411 -19 l 314 -56 l 328 -56 q 397 -76 371 -56 q 424 -135 424 -96 q 386 -222 424 -186 q 293 -258 349 -258 l 210 -258 l 219 -201 z "},"T":{"ha":813,"x_min":83,"x_max":885,"o":"m 438 861 l 313 861 q 111 701 142 861 l 83 701 l 101 806 q 142 886 111 856 q 239 917 172 917 l 885 917 l 875 861 l 563 861 l 411 0 l 286 0 l 438 861 z "},"U":{"ha":954,"x_min":99,"x_max":938,"o":"m 419 -14 q 192 50 261 -14 q 122 246 122 114 q 138 396 122 308 l 200 750 q 206 810 206 779 q 188 869 206 849 q 126 889 169 889 l 99 889 l 104 917 l 229 917 q 310 899 286 917 q 335 832 335 882 q 325 750 335 808 l 254 354 q 243 246 243 290 q 292 94 243 146 q 446 42 340 42 q 619 79 551 42 q 728 193 688 117 q 790 396 768 269 l 882 917 l 938 917 l 846 396 q 774 163 819 251 q 644 31 729 75 q 419 -14 558 -14 z "},"Ú":{"ha":954,"x_min":99,"x_max":938,"o":"m 419 -14 q 192 50 261 -14 q 122 246 122 114 q 138 396 122 308 l 200 750 q 206 810 206 779 q 188 869 206 849 q 126 889 169 889 l 99 889 l 104 917 l 229 917 q 310 899 286 917 q 335 832 335 882 q 325 750 335 808 l 254 354 q 243 246 243 290 q 292 94 243 146 q 446 42 340 42 q 619 79 551 42 q 728 193 688 117 q 790 396 768 269 l 882 917 l 938 917 l 846 396 q 774 163 819 251 q 644 31 729 75 q 419 -14 558 -14 m 553 946 l 640 1126 l 772 1126 l 608 946 l 553 946 z "},"Û":{"ha":954,"x_min":99,"x_max":938,"o":"m 419 -14 q 192 50 261 -14 q 122 246 122 114 q 138 396 122 308 l 200 750 q 206 810 206 779 q 188 869 206 849 q 126 889 169 889 l 99 889 l 104 917 l 229 917 q 310 899 286 917 q 335 832 335 882 q 325 750 335 808 l 254 354 q 243 246 243 290 q 292 94 243 146 q 446 42 340 42 q 619 79 551 42 q 728 193 688 117 q 790 396 768 269 l 882 917 l 938 917 l 846 396 q 774 163 819 251 q 644 31 729 75 q 419 -14 558 -14 m 426 932 l 565 1092 l 718 1092 l 801 932 l 732 932 l 633 1043 l 496 932 l 426 932 z "},"Ü":{"ha":954,"x_min":99,"x_max":938,"o":"m 419 -14 q 192 50 261 -14 q 122 246 122 114 q 138 396 122 308 l 200 750 q 206 810 206 779 q 188 869 206 849 q 126 889 169 889 l 99 889 l 104 917 l 229 917 q 310 899 286 917 q 335 832 335 882 q 325 750 335 808 l 254 354 q 243 246 243 290 q 292 94 243 146 q 446 42 340 42 q 619 79 551 42 q 728 193 688 117 q 790 396 768 269 l 882 917 l 938 917 l 846 396 q 774 163 819 251 q 644 31 729 75 q 419 -14 558 -14 m 479 1007 q 441 1021 456 1007 q 426 1057 426 1035 q 448 1109 426 1086 q 501 1132 469 1132 q 540 1117 525 1132 q 554 1081 554 1103 q 531 1030 554 1053 q 479 1007 508 1007 m 715 1007 q 677 1021 692 1007 q 663 1057 663 1035 q 684 1109 663 1086 q 738 1132 706 1132 q 776 1117 761 1132 q 790 1081 790 1103 q 767 1030 790 1053 q 715 1007 744 1007 z "},"Ụ":{"ha":954,"x_min":99,"x_max":938,"o":"m 419 -14 q 192 50 261 -14 q 122 246 122 114 q 138 396 122 308 l 200 750 q 206 810 206 779 q 188 869 206 849 q 126 889 169 889 l 99 889 l 104 917 l 229 917 q 310 899 286 917 q 335 832 335 882 q 325 750 335 808 l 254 354 q 243 246 243 290 q 292 94 243 146 q 446 42 340 42 q 619 79 551 42 q 728 193 688 117 q 790 396 768 269 l 882 917 l 938 917 l 846 396 q 774 163 819 251 q 644 31 729 75 q 419 -14 558 -14 m 381 -224 q 343 -209 357 -224 q 329 -171 329 -194 q 351 -121 329 -143 q 403 -99 374 -99 q 441 -113 426 -99 q 456 -150 456 -128 q 433 -201 456 -178 q 381 -224 410 -224 z "},"Ù":{"ha":954,"x_min":99,"x_max":938,"o":"m 419 -14 q 192 50 261 -14 q 122 246 122 114 q 138 396 122 308 l 200 750 q 206 810 206 779 q 188 869 206 849 q 126 889 169 889 l 99 889 l 104 917 l 229 917 q 310 899 286 917 q 335 832 335 882 q 325 750 335 808 l 254 354 q 243 246 243 290 q 292 94 243 146 q 446 42 340 42 q 619 79 551 42 q 728 193 688 117 q 790 396 768 269 l 882 917 l 938 917 l 846 396 q 774 163 819 251 q 644 31 729 75 q 419 -14 558 -14 m 553 993 l 453 1174 l 585 1174 l 608 993 l 553 993 z "},"Ủ":{"ha":954,"x_min":99,"x_max":938,"o":"m 419 -14 q 192 50 261 -14 q 122 246 122 114 q 138 396 122 308 l 200 750 q 206 810 206 779 q 188 869 206 849 q 126 889 169 889 l 99 889 l 104 917 l 229 917 q 310 899 286 917 q 335 832 335 882 q 325 750 335 808 l 254 354 q 243 246 243 290 q 292 94 243 146 q 446 42 340 42 q 619 79 551 42 q 728 193 688 117 q 790 396 768 269 l 882 917 l 938 917 l 846 396 q 774 163 819 251 q 644 31 729 75 q 419 -14 558 -14 m 592 988 q 608 1028 597 1013 q 638 1069 618 1044 q 664 1113 661 1099 q 667 1132 667 1126 q 629 1168 667 1168 q 583 1153 601 1168 q 549 1099 564 1138 l 492 1100 q 521 1165 499 1140 q 574 1208 547 1196 q 639 1219 601 1219 q 708 1198 679 1219 q 738 1136 738 1176 q 735 1113 738 1129 q 722 1087 732 1097 q 690 1058 713 1076 q 653 1024 667 1039 q 635 988 640 1010 l 592 988 z "},"Ư":{"ha":954,"x_min":99,"x_max":1157,"o":"m 1157 1061 q 932 882 1124 893 l 846 396 q 774 163 819 251 q 644 31 729 75 q 419 -14 558 -14 q 192 50 261 -14 q 122 246 122 114 q 138 396 122 308 l 200 750 q 206 810 206 779 q 188 869 206 849 q 126 889 169 889 l 99 889 l 104 917 l 229 917 q 310 899 286 917 q 335 832 335 882 q 325 750 335 808 l 254 354 q 243 246 243 290 q 292 94 243 146 q 446 42 340 42 q 619 79 551 42 q 728 193 688 117 q 790 396 768 269 l 882 917 l 910 917 q 1022 960 979 917 q 1078 1061 1065 1003 l 1157 1061 z "},"Ứ":{"ha":954,"x_min":99,"x_max":1157,"o":"m 1157 1061 q 932 882 1124 893 l 846 396 q 774 163 819 251 q 644 31 729 75 q 419 -14 558 -14 q 192 50 261 -14 q 122 246 122 114 q 138 396 122 308 l 200 750 q 206 810 206 779 q 188 869 206 849 q 126 889 169 889 l 99 889 l 104 917 l 229 917 q 310 899 286 917 q 335 832 335 882 q 325 750 335 808 l 254 354 q 243 246 243 290 q 292 94 243 146 q 446 42 340 42 q 619 79 551 42 q 728 193 688 117 q 790 396 768 269 l 882 917 l 910 917 q 1022 960 979 917 q 1078 1061 1065 1003 l 1157 1061 m 543 1014 l 669 1174 l 788 1174 l 613 1014 l 543 1014 z "},"Ự":{"ha":954,"x_min":99,"x_max":1157,"o":"m 1157 1061 q 932 882 1124 893 l 846 396 q 774 163 819 251 q 644 31 729 75 q 419 -14 558 -14 q 192 50 261 -14 q 122 246 122 114 q 138 396 122 308 l 200 750 q 206 810 206 779 q 188 869 206 849 q 126 889 169 889 l 99 889 l 104 917 l 229 917 q 310 899 286 917 q 335 832 335 882 q 325 750 335 808 l 254 354 q 243 246 243 290 q 292 94 243 146 q 446 42 340 42 q 619 79 551 42 q 728 193 688 117 q 790 396 768 269 l 882 917 l 910 917 q 1022 960 979 917 q 1078 1061 1065 1003 l 1157 1061 m 381 -224 q 343 -209 357 -224 q 329 -171 329 -194 q 351 -121 329 -143 q 403 -99 374 -99 q 441 -113 426 -99 q 456 -150 456 -128 q 433 -201 456 -178 q 381 -224 410 -224 z "},"Ừ":{"ha":954,"x_min":99,"x_max":1157,"o":"m 1157 1061 q 932 882 1124 893 l 846 396 q 774 163 819 251 q 644 31 729 75 q 419 -14 558 -14 q 192 50 261 -14 q 122 246 122 114 q 138 396 122 308 l 200 750 q 206 810 206 779 q 188 869 206 849 q 126 889 169 889 l 99 889 l 104 917 l 229 917 q 310 899 286 917 q 335 832 335 882 q 325 750 335 808 l 254 354 q 243 246 243 290 q 292 94 243 146 q 446 42 340 42 q 619 79 551 42 q 728 193 688 117 q 790 396 768 269 l 882 917 l 910 917 q 1022 960 979 917 q 1078 1061 1065 1003 l 1157 1061 m 553 993 l 453 1174 l 585 1174 l 608 993 l 553 993 z "},"Ử":{"ha":954,"x_min":99,"x_max":1157,"o":"m 1157 1061 q 932 882 1124 893 l 846 396 q 774 163 819 251 q 644 31 729 75 q 419 -14 558 -14 q 192 50 261 -14 q 122 246 122 114 q 138 396 122 308 l 200 750 q 206 810 206 779 q 188 869 206 849 q 126 889 169 889 l 99 889 l 104 917 l 229 917 q 310 899 286 917 q 335 832 335 882 q 325 750 335 808 l 254 354 q 243 246 243 290 q 292 94 243 146 q 446 42 340 42 q 619 79 551 42 q 728 193 688 117 q 790 396 768 269 l 882 917 l 910 917 q 1022 960 979 917 q 1078 1061 1065 1003 l 1157 1061 m 592 988 q 608 1028 597 1013 q 638 1069 618 1044 q 664 1113 661 1099 q 667 1132 667 1126 q 629 1168 667 1168 q 583 1153 601 1168 q 549 1099 564 1138 l 492 1100 q 521 1165 499 1140 q 574 1208 547 1196 q 639 1219 601 1219 q 708 1198 679 1219 q 738 1136 738 1176 q 735 1113 738 1129 q 722 1087 732 1097 q 690 1058 713 1076 q 653 1024 667 1039 q 635 988 640 1010 l 592 988 z "},"Ữ":{"ha":954,"x_min":99,"x_max":1157,"o":"m 1157 1061 q 932 882 1124 893 l 846 396 q 774 163 819 251 q 644 31 729 75 q 419 -14 558 -14 q 192 50 261 -14 q 122 246 122 114 q 138 396 122 308 l 200 750 q 206 810 206 779 q 188 869 206 849 q 126 889 169 889 l 99 889 l 104 917 l 229 917 q 310 899 286 917 q 335 832 335 882 q 325 750 335 808 l 254 354 q 243 246 243 290 q 292 94 243 146 q 446 42 340 42 q 619 79 551 42 q 728 193 688 117 q 790 396 768 269 l 882 917 l 910 917 q 1022 960 979 917 q 1078 1061 1065 1003 l 1157 1061 m 433 1042 q 472 1144 447 1114 q 540 1174 497 1174 q 577 1166 561 1174 q 611 1144 593 1158 q 626 1135 614 1143 q 651 1122 639 1126 q 676 1118 664 1118 q 708 1137 692 1118 q 728 1174 725 1156 l 769 1174 q 731 1072 757 1101 q 663 1042 706 1042 q 629 1049 643 1042 q 593 1069 615 1056 q 559 1090 574 1083 q 526 1097 544 1097 q 494 1078 511 1097 q 475 1042 478 1060 l 433 1042 z "},"Ũ":{"ha":954,"x_min":99,"x_max":938,"o":"m 419 -14 q 192 50 261 -14 q 122 246 122 114 q 138 396 122 308 l 200 750 q 206 810 206 779 q 188 869 206 849 q 126 889 169 889 l 99 889 l 104 917 l 229 917 q 310 899 286 917 q 335 832 335 882 q 325 750 335 808 l 254 354 q 243 246 243 290 q 292 94 243 146 q 446 42 340 42 q 619 79 551 42 q 728 193 688 117 q 790 396 768 269 l 882 917 l 938 917 l 846 396 q 774 163 819 251 q 644 31 729 75 q 419 -14 558 -14 m 433 1042 q 472 1144 447 1114 q 540 1174 497 1174 q 577 1166 561 1174 q 611 1144 593 1158 q 626 1135 614 1143 q 651 1122 639 1126 q 676 1118 664 1118 q 708 1137 692 1118 q 728 1174 725 1156 l 769 1174 q 731 1072 757 1101 q 663 1042 706 1042 q 629 1049 643 1042 q 593 1069 615 1056 q 559 1090 574 1083 q 526 1097 544 1097 q 494 1078 511 1097 q 475 1042 478 1060 l 433 1042 z "},"V":{"ha":888,"x_min":44,"x_max":946,"o":"m 171 754 q 125 865 150 835 q 44 900 100 894 l 49 928 q 69 929 56 928 q 97 931 83 931 q 307 754 267 931 l 446 194 q 467 228 457 214 q 655 541 589 429 q 879 917 721 653 l 946 917 l 383 -14 l 358 -14 l 171 754 z "},"W":{"ha":1204,"x_min":42,"x_max":1246,"o":"m 168 754 q 128 865 153 835 q 42 900 103 894 l 46 928 q 67 929 53 928 q 94 931 81 931 q 226 897 172 931 q 300 754 279 863 l 392 218 l 618 658 l 601 754 q 561 865 586 835 q 475 900 536 894 l 479 928 q 500 929 486 928 q 528 931 514 931 q 659 897 606 931 q 733 754 713 863 l 825 218 l 1186 917 l 1246 917 l 764 -14 l 736 -14 l 633 571 l 331 -14 l 303 -14 l 168 754 z "},"X":{"ha":921,"x_min":-12,"x_max":926,"o":"m 414 451 l 269 736 q 226 812 247 782 q 168 864 206 842 q 74 889 131 886 l 79 917 l 246 917 q 342 876 306 917 q 413 764 379 835 l 515 556 l 857 917 l 926 917 l 542 507 l 706 181 q 781 74 740 115 q 881 28 821 32 l 876 0 l 731 0 q 633 41 671 0 q 563 153 596 82 l 440 403 l 57 0 l -12 0 l 414 451 z "},"Y":{"ha":874,"x_min":49,"x_max":942,"o":"m 397 379 l 224 736 q 151 848 186 811 q 49 889 115 885 l 54 917 l 179 917 q 289 876 249 917 q 360 764 329 835 l 507 451 l 879 917 l 942 917 l 524 389 l 456 0 l 331 0 l 397 379 z "},"Ý":{"ha":874,"x_min":49,"x_max":942,"o":"m 397 379 l 224 736 q 151 848 186 811 q 49 889 115 885 l 54 917 l 179 917 q 289 876 249 917 q 360 764 329 835 l 507 451 l 879 917 l 942 917 l 524 389 l 456 0 l 331 0 l 397 379 m 529 932 l 617 1113 l 749 1113 l 585 932 l 529 932 z "},"Ÿ":{"ha":874,"x_min":49,"x_max":942,"o":"m 397 379 l 224 736 q 151 848 186 811 q 49 889 115 885 l 54 917 l 179 917 q 289 876 249 917 q 360 764 329 835 l 507 451 l 879 917 l 942 917 l 524 389 l 456 0 l 331 0 l 397 379 m 464 958 q 421 974 436 958 q 406 1014 406 989 q 429 1072 406 1047 q 489 1097 453 1097 q 532 1082 517 1097 q 547 1042 547 1067 q 524 983 547 1008 q 464 958 500 958 m 700 958 q 657 974 672 958 q 642 1014 642 989 q 665 1072 642 1047 q 725 1097 689 1097 q 768 1082 753 1097 q 783 1042 783 1067 q 760 983 783 1008 q 700 958 736 958 z "},"Ỵ":{"ha":874,"x_min":49,"x_max":942,"o":"m 397 379 l 224 736 q 151 848 186 811 q 49 889 115 885 l 54 917 l 179 917 q 289 876 249 917 q 360 764 329 835 l 507 451 l 879 917 l 942 917 l 524 389 l 456 0 l 331 0 l 397 379 m 340 -224 q 303 -209 317 -224 q 289 -171 289 -194 q 311 -121 289 -143 q 363 -99 333 -99 q 401 -113 386 -99 q 415 -150 415 -128 q 392 -201 415 -178 q 340 -224 369 -224 z "},"Ỳ":{"ha":874,"x_min":49,"x_max":942,"o":"m 397 379 l 224 736 q 151 848 186 811 q 49 889 115 885 l 54 917 l 179 917 q 289 876 249 917 q 360 764 329 835 l 507 451 l 879 917 l 942 917 l 524 389 l 456 0 l 331 0 l 397 379 m 513 993 l 413 1174 l 544 1174 l 568 993 l 513 993 z "},"Ỷ":{"ha":874,"x_min":49,"x_max":942,"o":"m 397 379 l 224 736 q 151 848 186 811 q 49 889 115 885 l 54 917 l 179 917 q 289 876 249 917 q 360 764 329 835 l 507 451 l 879 917 l 942 917 l 524 389 l 456 0 l 331 0 l 397 379 m 551 988 q 567 1028 557 1013 q 597 1069 578 1044 q 624 1113 621 1099 q 626 1132 626 1126 q 589 1168 626 1168 q 542 1153 561 1168 q 508 1099 524 1138 l 451 1100 q 481 1165 458 1140 q 534 1208 507 1196 q 599 1219 561 1219 q 668 1198 639 1219 q 697 1136 697 1176 q 694 1113 697 1129 q 682 1087 692 1097 q 650 1058 672 1076 q 613 1024 626 1039 q 594 988 600 1010 l 551 988 z "},"Ỹ":{"ha":874,"x_min":49,"x_max":942,"o":"m 397 379 l 224 736 q 151 848 186 811 q 49 889 115 885 l 54 917 l 179 917 q 289 876 249 917 q 360 764 329 835 l 507 451 l 879 917 l 942 917 l 524 389 l 456 0 l 331 0 l 397 379 m 393 1042 q 432 1144 407 1114 q 500 1174 457 1174 q 537 1166 521 1174 q 571 1144 553 1158 q 586 1135 574 1143 q 611 1122 599 1126 q 636 1118 624 1118 q 668 1137 651 1118 q 688 1174 685 1156 l 729 1174 q 691 1072 717 1101 q 622 1042 665 1042 q 589 1049 603 1042 q 553 1069 575 1056 q 519 1090 533 1083 q 486 1097 504 1097 q 454 1078 471 1097 q 435 1042 438 1060 l 393 1042 z "},"Z":{"ha":825,"x_min":-31,"x_max":894,"o":"m -26 28 l 697 861 l 364 861 q 163 701 193 861 l 135 701 l 153 806 q 193 886 163 856 q 290 917 224 917 l 894 917 l 153 56 l 722 56 l 713 0 l -31 0 l -26 28 z "},"Ž":{"ha":825,"x_min":-31,"x_max":894,"o":"m -26 28 l 697 861 l 364 861 q 163 701 193 861 l 135 701 l 153 806 q 193 886 163 856 q 290 917 224 917 l 894 917 l 153 56 l 722 56 l 713 0 l -31 0 l -26 28 m 463 986 l 379 1146 l 449 1146 l 547 1035 l 685 1146 l 754 1146 l 615 986 l 463 986 z "},"a":{"ha":729,"x_min":44,"x_max":675,"o":"m 246 -14 q 95 53 146 -14 q 44 226 44 119 q 83 426 44 328 q 197 591 121 524 q 379 667 272 658 q 539 590 493 667 l 546 590 l 606 653 l 675 653 l 582 121 l 561 0 l 492 0 l 453 63 l 446 63 q 367 8 414 29 q 246 -14 321 -14 m 297 42 q 390 64 354 42 q 457 125 425 86 l 529 528 q 482 590 506 569 q 411 611 458 611 q 279 547 332 611 q 201 390 226 482 q 176 218 176 297 q 206 90 176 138 q 297 42 235 42 z "},"á":{"ha":729,"x_min":44,"x_max":675,"o":"m 246 -14 q 95 53 146 -14 q 44 226 44 119 q 83 426 44 328 q 197 591 121 524 q 379 667 272 658 q 539 590 493 667 l 546 590 l 606 653 l 675 653 l 582 121 l 561 0 l 492 0 l 453 63 l 446 63 q 367 8 414 29 q 246 -14 321 -14 m 297 42 q 390 64 354 42 q 457 125 425 86 l 529 528 q 482 590 506 569 q 411 611 458 611 q 279 547 332 611 q 201 390 226 482 q 176 218 176 297 q 206 90 176 138 q 297 42 235 42 m 390 731 l 478 911 l 610 911 l 446 731 l 390 731 z "},"ă":{"ha":729,"x_min":44,"x_max":675,"o":"m 246 -14 q 95 53 146 -14 q 44 226 44 119 q 83 426 44 328 q 197 591 121 524 q 379 667 272 658 q 539 590 493 667 l 546 590 l 606 653 l 675 653 l 582 121 l 561 0 l 492 0 l 453 63 l 446 63 q 367 8 414 29 q 246 -14 321 -14 m 297 42 q 390 64 354 42 q 457 125 425 86 l 529 528 q 482 590 506 569 q 411 611 458 611 q 279 547 332 611 q 201 390 226 482 q 176 218 176 297 q 206 90 176 138 q 297 42 235 42 m 454 724 q 353 753 392 724 q 293 835 315 782 l 325 856 q 381 814 349 828 q 468 800 413 800 q 561 814 524 800 q 631 856 599 828 l 654 835 q 454 724 575 724 z "},"ắ":{"ha":729,"x_min":44,"x_max":690,"o":"m 246 -14 q 95 53 146 -14 q 44 226 44 119 q 83 426 44 328 q 197 591 121 524 q 379 667 272 658 q 539 590 493 667 l 546 590 l 606 653 l 675 653 l 582 121 l 561 0 l 492 0 l 453 63 l 446 63 q 367 8 414 29 q 246 -14 321 -14 m 297 42 q 390 64 354 42 q 457 125 425 86 l 529 528 q 482 590 506 569 q 411 611 458 611 q 279 547 332 611 q 201 390 226 482 q 176 218 176 297 q 206 90 176 138 q 297 42 235 42 m 454 724 q 353 753 392 724 q 293 835 315 782 l 325 856 q 381 814 349 828 q 468 800 413 800 q 561 814 524 800 q 631 856 599 828 l 654 835 q 454 724 575 724 m 446 888 l 572 1047 l 690 1047 l 515 888 l 446 888 z "},"ặ":{"ha":729,"x_min":44,"x_max":675,"o":"m 246 -14 q 95 53 146 -14 q 44 226 44 119 q 83 426 44 328 q 197 591 121 524 q 379 667 272 658 q 539 590 493 667 l 546 590 l 606 653 l 675 653 l 582 121 l 561 0 l 492 0 l 453 63 l 446 63 q 367 8 414 29 q 246 -14 321 -14 m 297 42 q 390 64 354 42 q 457 125 425 86 l 529 528 q 482 590 506 569 q 411 611 458 611 q 279 547 332 611 q 201 390 226 482 q 176 218 176 297 q 206 90 176 138 q 297 42 235 42 m 268 -224 q 231 -209 244 -224 q 217 -171 217 -194 q 239 -121 217 -143 q 290 -99 261 -99 q 328 -113 314 -99 q 343 -150 343 -128 q 320 -201 343 -178 q 268 -224 297 -224 m 454 724 q 353 753 392 724 q 293 835 315 782 l 325 856 q 381 814 349 828 q 468 800 413 800 q 561 814 524 800 q 631 856 599 828 l 654 835 q 454 724 575 724 z "},"ằ":{"ha":729,"x_min":44,"x_max":675,"o":"m 246 -14 q 95 53 146 -14 q 44 226 44 119 q 83 426 44 328 q 197 591 121 524 q 379 667 272 658 q 539 590 493 667 l 546 590 l 606 653 l 675 653 l 582 121 l 561 0 l 492 0 l 453 63 l 446 63 q 367 8 414 29 q 246 -14 321 -14 m 297 42 q 390 64 354 42 q 457 125 425 86 l 529 528 q 482 590 506 569 q 411 611 458 611 q 279 547 332 611 q 201 390 226 482 q 176 218 176 297 q 206 90 176 138 q 297 42 235 42 m 454 724 q 353 753 392 724 q 293 835 315 782 l 325 856 q 381 814 349 828 q 468 800 413 800 q 561 814 524 800 q 631 856 599 828 l 654 835 q 454 724 575 724 m 456 881 l 356 1061 l 488 1061 l 511 881 l 456 881 z "},"ẳ":{"ha":729,"x_min":44,"x_max":675,"o":"m 246 -14 q 95 53 146 -14 q 44 226 44 119 q 83 426 44 328 q 197 591 121 524 q 379 667 272 658 q 539 590 493 667 l 546 590 l 606 653 l 675 653 l 582 121 l 561 0 l 492 0 l 453 63 l 446 63 q 367 8 414 29 q 246 -14 321 -14 m 297 42 q 390 64 354 42 q 457 125 425 86 l 529 528 q 482 590 506 569 q 411 611 458 611 q 279 547 332 611 q 201 390 226 482 q 176 218 176 297 q 206 90 176 138 q 297 42 235 42 m 454 724 q 353 753 392 724 q 293 835 315 782 l 325 856 q 381 814 349 828 q 468 800 413 800 q 561 814 524 800 q 631 856 599 828 l 654 835 q 454 724 575 724 m 451 878 q 467 919 457 903 q 497 960 478 935 q 524 1003 521 989 q 526 1022 526 1017 q 489 1058 526 1058 q 442 1043 461 1058 q 408 989 424 1028 l 351 990 q 381 1056 358 1031 q 434 1098 407 1086 q 499 1110 461 1110 q 568 1088 539 1110 q 597 1026 597 1067 q 594 1003 597 1019 q 582 977 592 988 q 550 949 572 967 q 513 915 526 929 q 494 878 500 900 l 451 878 z "},"ẵ":{"ha":729,"x_min":44,"x_max":675,"o":"m 246 -14 q 95 53 146 -14 q 44 226 44 119 q 83 426 44 328 q 197 591 121 524 q 379 667 272 658 q 539 590 493 667 l 546 590 l 606 653 l 675 653 l 582 121 l 561 0 l 492 0 l 453 63 l 446 63 q 367 8 414 29 q 246 -14 321 -14 m 297 42 q 390 64 354 42 q 457 125 425 86 l 529 528 q 482 590 506 569 q 411 611 458 611 q 279 547 332 611 q 201 390 226 482 q 176 218 176 297 q 206 90 176 138 q 297 42 235 42 m 454 724 q 353 753 392 724 q 293 835 315 782 l 325 856 q 381 814 349 828 q 468 800 413 800 q 561 814 524 800 q 631 856 599 828 l 654 835 q 454 724 575 724 m 336 910 q 375 1012 350 982 q 443 1042 400 1042 q 480 1034 464 1042 q 514 1013 496 1026 q 529 1003 517 1011 q 554 990 542 994 q 579 986 567 986 q 611 1005 594 986 q 631 1042 628 1024 l 672 1042 q 634 940 660 969 q 565 910 608 910 q 532 917 546 910 q 496 938 518 924 q 462 958 476 951 q 429 965 447 965 q 397 947 414 965 q 378 910 381 928 l 336 910 z "},"â":{"ha":729,"x_min":44,"x_max":675,"o":"m 246 -14 q 95 53 146 -14 q 44 226 44 119 q 83 426 44 328 q 197 591 121 524 q 379 667 272 658 q 539 590 493 667 l 546 590 l 606 653 l 675 653 l 582 121 l 561 0 l 492 0 l 453 63 l 446 63 q 367 8 414 29 q 246 -14 321 -14 m 297 42 q 390 64 354 42 q 457 125 425 86 l 529 528 q 482 590 506 569 q 411 611 458 611 q 279 547 332 611 q 201 390 226 482 q 176 218 176 297 q 206 90 176 138 q 297 42 235 42 m 249 738 l 388 897 l 540 897 l 624 738 l 554 738 l 456 849 l 318 738 l 249 738 z "},"ấ":{"ha":729,"x_min":44,"x_max":892,"o":"m 246 -14 q 95 53 146 -14 q 44 226 44 119 q 83 426 44 328 q 197 591 121 524 q 379 667 272 658 q 539 590 493 667 l 546 590 l 606 653 l 675 653 l 582 121 l 561 0 l 492 0 l 453 63 l 446 63 q 367 8 414 29 q 246 -14 321 -14 m 297 42 q 390 64 354 42 q 457 125 425 86 l 529 528 q 482 590 506 569 q 411 611 458 611 q 279 547 332 611 q 201 390 226 482 q 176 218 176 297 q 206 90 176 138 q 297 42 235 42 m 265 722 l 404 882 l 557 882 l 640 722 l 571 722 l 472 833 l 335 722 l 265 722 m 647 810 l 774 969 l 892 969 l 717 810 l 647 810 z "},"ậ":{"ha":729,"x_min":44,"x_max":675,"o":"m 246 -14 q 95 53 146 -14 q 44 226 44 119 q 83 426 44 328 q 197 591 121 524 q 379 667 272 658 q 539 590 493 667 l 546 590 l 606 653 l 675 653 l 582 121 l 561 0 l 492 0 l 453 63 l 446 63 q 367 8 414 29 q 246 -14 321 -14 m 297 42 q 390 64 354 42 q 457 125 425 86 l 529 528 q 482 590 506 569 q 411 611 458 611 q 279 547 332 611 q 201 390 226 482 q 176 218 176 297 q 206 90 176 138 q 297 42 235 42 m 268 -224 q 231 -209 244 -224 q 217 -171 217 -194 q 239 -121 217 -143 q 290 -99 261 -99 q 328 -113 314 -99 q 343 -150 343 -128 q 320 -201 343 -178 q 268 -224 297 -224 m 265 722 l 404 882 l 557 882 l 640 722 l 571 722 l 472 833 l 335 722 l 265 722 z "},"ầ":{"ha":729,"x_min":44,"x_max":725,"o":"m 246 -14 q 95 53 146 -14 q 44 226 44 119 q 83 426 44 328 q 197 591 121 524 q 379 667 272 658 q 539 590 493 667 l 546 590 l 606 653 l 675 653 l 582 121 l 561 0 l 492 0 l 453 63 l 446 63 q 367 8 414 29 q 246 -14 321 -14 m 297 42 q 390 64 354 42 q 457 125 425 86 l 529 528 q 482 590 506 569 q 411 611 458 611 q 279 547 332 611 q 201 390 226 482 q 176 218 176 297 q 206 90 176 138 q 297 42 235 42 m 265 722 l 404 882 l 557 882 l 640 722 l 571 722 l 472 833 l 335 722 l 265 722 m 669 832 l 569 1013 l 701 1013 l 725 832 l 669 832 z "},"ẩ":{"ha":729,"x_min":44,"x_max":810,"o":"m 246 -14 q 95 53 146 -14 q 44 226 44 119 q 83 426 44 328 q 197 591 121 524 q 379 667 272 658 q 539 590 493 667 l 546 590 l 606 653 l 675 653 l 582 121 l 561 0 l 492 0 l 453 63 l 446 63 q 367 8 414 29 q 246 -14 321 -14 m 297 42 q 390 64 354 42 q 457 125 425 86 l 529 528 q 482 590 506 569 q 411 611 458 611 q 279 547 332 611 q 201 390 226 482 q 176 218 176 297 q 206 90 176 138 q 297 42 235 42 m 265 722 l 404 882 l 557 882 l 640 722 l 571 722 l 472 833 l 335 722 l 265 722 m 664 839 q 680 880 669 864 q 710 921 690 896 q 736 964 733 950 q 739 983 739 978 q 701 1019 739 1019 q 655 1004 674 1019 q 621 950 636 989 l 564 951 q 593 1017 571 992 q 647 1059 619 1047 q 711 1071 674 1071 q 781 1049 751 1071 q 810 988 810 1028 q 807 964 810 981 q 794 938 804 949 q 763 910 785 928 q 726 876 739 890 q 707 839 713 861 l 664 839 z "},"ẫ":{"ha":729,"x_min":44,"x_max":678,"o":"m 246 -14 q 95 53 146 -14 q 44 226 44 119 q 83 426 44 328 q 197 591 121 524 q 379 667 272 658 q 539 590 493 667 l 546 590 l 606 653 l 675 653 l 582 121 l 561 0 l 492 0 l 453 63 l 446 63 q 367 8 414 29 q 246 -14 321 -14 m 297 42 q 390 64 354 42 q 457 125 425 86 l 529 528 q 482 590 506 569 q 411 611 458 611 q 279 547 332 611 q 201 390 226 482 q 176 218 176 297 q 206 90 176 138 q 297 42 235 42 m 265 722 l 404 882 l 557 882 l 640 722 l 571 722 l 472 833 l 335 722 l 265 722 m 342 929 q 381 1031 356 1001 q 449 1061 406 1061 q 485 1053 469 1061 q 519 1032 501 1046 q 535 1022 522 1031 q 560 1010 547 1014 q 585 1006 572 1006 q 617 1024 600 1006 q 636 1061 633 1043 l 678 1061 q 640 959 665 989 q 571 929 614 929 q 538 936 551 929 q 501 957 524 943 q 467 978 482 971 q 435 985 453 985 q 403 966 419 985 q 383 929 386 947 l 342 929 z "},"ä":{"ha":729,"x_min":44,"x_max":675,"o":"m 246 -14 q 95 53 146 -14 q 44 226 44 119 q 83 426 44 328 q 197 591 121 524 q 379 667 272 658 q 539 590 493 667 l 546 590 l 606 653 l 675 653 l 582 121 l 561 0 l 492 0 l 453 63 l 446 63 q 367 8 414 29 q 246 -14 321 -14 m 297 42 q 390 64 354 42 q 457 125 425 86 l 529 528 q 482 590 506 569 q 411 611 458 611 q 279 547 332 611 q 201 390 226 482 q 176 218 176 297 q 206 90 176 138 q 297 42 235 42 m 347 743 q 309 757 324 743 q 294 793 294 771 q 316 845 294 822 q 369 868 338 868 q 408 853 393 868 q 422 817 422 839 q 399 766 422 789 q 347 743 376 743 m 583 743 q 545 757 560 743 q 531 793 531 771 q 552 845 531 822 q 606 868 574 868 q 644 853 629 868 q 658 817 658 839 q 635 766 658 789 q 583 743 613 743 z "},"ạ":{"ha":729,"x_min":44,"x_max":675,"o":"m 246 -14 q 95 53 146 -14 q 44 226 44 119 q 83 426 44 328 q 197 591 121 524 q 379 667 272 658 q 539 590 493 667 l 546 590 l 606 653 l 675 653 l 582 121 l 561 0 l 492 0 l 453 63 l 446 63 q 367 8 414 29 q 246 -14 321 -14 m 297 42 q 390 64 354 42 q 457 125 425 86 l 529 528 q 482 590 506 569 q 411 611 458 611 q 279 547 332 611 q 201 390 226 482 q 176 218 176 297 q 206 90 176 138 q 297 42 235 42 m 268 -224 q 231 -209 244 -224 q 217 -171 217 -194 q 239 -121 217 -143 q 290 -99 261 -99 q 328 -113 314 -99 q 343 -150 343 -128 q 320 -201 343 -178 q 268 -224 297 -224 z "},"à":{"ha":729,"x_min":44,"x_max":675,"o":"m 246 -14 q 95 53 146 -14 q 44 226 44 119 q 83 426 44 328 q 197 591 121 524 q 379 667 272 658 q 539 590 493 667 l 546 590 l 606 653 l 675 653 l 582 121 l 561 0 l 492 0 l 453 63 l 446 63 q 367 8 414 29 q 246 -14 321 -14 m 297 42 q 390 64 354 42 q 457 125 425 86 l 529 528 q 482 590 506 569 q 411 611 458 611 q 279 547 332 611 q 201 390 226 482 q 176 218 176 297 q 206 90 176 138 q 297 42 235 42 m 421 729 l 321 910 l 453 910 l 476 729 l 421 729 z "},"ả":{"ha":729,"x_min":44,"x_max":675,"o":"m 246 -14 q 95 53 146 -14 q 44 226 44 119 q 83 426 44 328 q 197 591 121 524 q 379 667 272 658 q 539 590 493 667 l 546 590 l 606 653 l 675 653 l 582 121 l 561 0 l 492 0 l 453 63 l 446 63 q 367 8 414 29 q 246 -14 321 -14 m 297 42 q 390 64 354 42 q 457 125 425 86 l 529 528 q 482 590 506 569 q 411 611 458 611 q 279 547 332 611 q 201 390 226 482 q 176 218 176 297 q 206 90 176 138 q 297 42 235 42 m 460 724 q 476 765 465 749 q 506 806 486 781 q 532 849 529 835 q 535 868 535 863 q 497 904 535 904 q 451 889 469 904 q 417 835 432 874 l 360 836 q 389 901 367 876 q 442 944 415 932 q 507 956 469 956 q 576 934 547 956 q 606 872 606 913 q 603 849 606 865 q 590 823 600 833 q 558 794 581 813 q 522 760 535 775 q 503 724 508 746 l 460 724 z "},"å":{"ha":729,"x_min":44,"x_max":675,"o":"m 246 -14 q 95 53 146 -14 q 44 226 44 119 q 83 426 44 328 q 197 591 121 524 q 379 667 272 658 q 539 590 493 667 l 546 590 l 606 653 l 675 653 l 582 121 l 561 0 l 492 0 l 453 63 l 446 63 q 367 8 414 29 q 246 -14 321 -14 m 297 42 q 390 64 354 42 q 457 125 425 86 l 529 528 q 482 590 506 569 q 411 611 458 611 q 279 547 332 611 q 201 390 226 482 q 176 218 176 297 q 206 90 176 138 q 297 42 235 42 m 426 736 q 356 765 385 736 q 328 836 328 794 q 348 901 328 869 q 401 952 368 932 q 468 972 433 972 q 538 943 510 972 q 567 872 567 914 q 547 808 567 839 q 494 756 526 776 q 426 736 461 736 m 435 785 q 489 810 467 785 q 511 869 511 835 q 497 909 511 894 q 460 924 483 924 q 406 899 428 924 q 383 839 383 874 q 397 799 383 814 q 435 785 411 785 z "},"ã":{"ha":729,"x_min":44,"x_max":675,"o":"m 246 -14 q 95 53 146 -14 q 44 226 44 119 q 83 426 44 328 q 197 591 121 524 q 379 667 272 658 q 539 590 493 667 l 546 590 l 606 653 l 675 653 l 582 121 l 561 0 l 492 0 l 453 63 l 446 63 q 367 8 414 29 q 246 -14 321 -14 m 297 42 q 390 64 354 42 q 457 125 425 86 l 529 528 q 482 590 506 569 q 411 611 458 611 q 279 547 332 611 q 201 390 226 482 q 176 218 176 297 q 206 90 176 138 q 297 42 235 42 m 274 744 q 313 847 288 817 q 381 876 338 876 q 417 869 401 876 q 451 847 433 861 q 467 838 454 846 q 492 825 479 829 q 517 821 504 821 q 549 840 532 821 q 568 876 565 858 l 610 876 q 572 774 597 804 q 503 744 546 744 q 469 751 483 744 q 433 772 456 758 q 399 793 414 786 q 367 800 385 800 q 335 781 351 800 q 315 744 318 763 l 274 744 z "},"æ":{"ha":1044,"x_min":14,"x_max":996,"o":"m 207 -14 q 72 21 129 -14 q 14 135 14 56 q 129 310 14 258 q 404 361 244 361 l 446 361 q 458 475 458 431 q 429 582 458 553 q 344 611 400 611 q 240 585 282 611 q 171 493 197 558 l 108 493 q 128 568 118 542 q 165 618 139 594 q 253 655 194 643 q 382 667 313 667 q 497 632 453 667 q 554 542 542 597 q 644 631 585 596 q 771 667 704 667 q 942 624 888 667 q 996 508 996 581 q 911 347 996 401 q 703 292 826 292 l 558 292 q 554 229 554 258 q 592 92 554 143 q 703 42 631 42 q 818 69 768 42 q 917 153 868 97 l 940 132 q 814 20 881 54 q 665 -14 747 -14 q 450 104 503 -14 q 350 15 406 44 q 207 -14 294 -14 m 706 347 q 819 390 774 347 q 864 506 864 432 q 840 580 864 556 q 767 604 817 604 q 685 572 725 604 q 614 485 644 540 q 571 361 583 429 l 568 347 l 706 347 m 260 49 q 341 71 308 49 q 406 132 374 93 l 436 306 l 394 306 q 224 269 301 306 q 147 147 147 232 q 179 74 147 100 q 260 49 211 49 z "},"b":{"ha":731,"x_min":35,"x_max":664,"o":"m 344 -14 q 232 8 274 -14 q 169 63 190 31 l 163 63 l 104 0 l 35 0 l 118 483 q 152 683 132 568 q 172 810 172 799 q 154 869 172 849 q 93 889 136 889 l 65 889 l 71 917 l 196 917 q 277 900 254 917 q 300 832 300 883 q 292 750 300 800 l 269 625 q 450 667 358 667 q 610 601 557 667 q 664 424 664 535 q 628 228 664 331 q 519 56 592 126 q 344 -14 446 -14 m 313 42 q 437 107 388 42 q 509 263 486 172 q 532 432 532 354 q 500 563 532 515 q 399 611 468 611 q 260 569 349 611 l 181 125 q 229 65 199 88 q 313 42 260 42 z "},"c":{"ha":672,"x_min":44,"x_max":631,"o":"m 299 -14 q 108 56 171 -14 q 44 242 44 125 q 90 444 44 346 q 219 605 135 543 q 418 667 304 667 q 568 647 506 667 q 631 558 631 628 q 615 447 631 526 l 614 438 l 586 438 q 588 468 588 449 q 547 575 588 539 q 436 611 506 611 q 292 553 351 611 q 205 410 233 496 q 176 238 176 324 q 216 94 176 146 q 336 42 256 42 q 458 69 407 42 q 557 153 508 96 l 581 132 q 453 20 521 54 q 299 -14 385 -14 z "},"ç":{"ha":675,"x_min":46,"x_max":632,"o":"m 224 -210 q 310 -197 275 -210 q 346 -142 346 -185 q 323 -108 346 -118 q 243 -99 300 -99 l 258 -14 q 99 67 151 -3 q 46 242 46 136 q 91 444 46 346 q 221 605 136 543 q 419 667 306 667 q 569 647 507 667 q 632 558 632 628 q 625 489 632 526 q 615 438 618 451 l 588 438 q 589 468 589 449 q 548 575 589 539 q 438 611 507 611 q 294 553 353 611 q 206 410 235 496 q 178 238 178 324 q 217 94 178 146 q 338 42 257 42 q 459 69 408 42 q 558 153 510 96 l 582 132 q 460 26 525 60 q 314 -14 396 -8 l 306 -57 q 378 -76 354 -60 q 403 -129 403 -93 q 217 -251 403 -251 l 224 -210 z "},"d":{"ha":729,"x_min":46,"x_max":701,"o":"m 246 -14 q 97 53 147 -14 q 46 229 46 119 q 83 429 46 328 q 197 599 121 531 q 379 667 272 667 q 471 656 432 667 q 546 625 510 644 q 567 753 561 714 q 574 810 574 793 q 556 869 574 849 q 494 889 538 889 l 467 889 l 472 917 l 597 917 q 678 900 656 917 q 701 832 701 883 q 678 669 701 811 q 561 0 654 526 l 492 0 l 453 63 l 446 63 q 367 8 414 29 q 246 -14 321 -14 m 297 42 q 390 64 354 42 q 457 125 425 86 l 536 569 q 470 600 500 589 q 411 611 440 611 q 278 547 331 611 q 201 392 225 483 q 178 218 178 301 q 207 88 178 135 q 297 42 236 42 z "},"ð":{"ha":746,"x_min":44,"x_max":686,"o":"m 297 -14 q 110 59 176 -14 q 44 249 44 132 q 91 447 44 350 q 222 605 138 543 q 417 667 307 667 q 518 638 475 667 q 578 556 561 608 q 561 685 575 632 q 519 778 547 738 l 454 722 l 419 764 l 486 819 q 427 867 460 853 q 343 882 394 882 q 281 874 306 882 l 275 900 q 335 924 304 918 q 408 931 367 931 q 558 875 489 931 l 617 931 l 650 889 l 593 840 q 686 535 686 731 q 647 283 686 410 q 519 72 607 157 q 297 -14 432 -14 m 307 42 q 432 103 379 42 q 512 253 485 165 q 539 413 539 340 q 504 556 539 501 q 407 611 469 611 q 282 549 335 611 q 202 400 229 488 q 175 240 175 313 q 210 97 175 151 q 307 42 244 42 z "},"đ":{"ha":732,"x_min":46,"x_max":757,"o":"m 747 732 l 689 732 q 561 0 636 425 l 492 0 l 453 63 l 446 63 q 367 8 414 29 q 246 -14 321 -14 q 97 53 147 -14 q 46 229 46 119 q 83 429 46 328 q 197 599 121 531 q 379 667 272 667 q 471 656 432 667 q 546 625 510 644 l 564 732 l 358 732 l 368 788 l 572 788 q 574 810 574 797 q 556 869 574 849 q 494 889 538 889 l 467 889 l 472 917 l 597 917 q 678 900 656 917 q 701 832 701 883 q 697 788 701 818 l 757 788 l 747 732 m 536 569 q 470 600 500 589 q 411 611 440 611 q 278 547 331 611 q 201 392 225 483 q 178 218 178 301 q 207 88 178 135 q 297 42 236 42 q 390 64 354 42 q 457 125 425 86 l 536 569 z "},"e":{"ha":676,"x_min":44,"x_max":636,"o":"m 285 -14 q 106 56 168 -14 q 44 240 44 126 q 88 440 44 340 q 213 603 131 539 q 404 667 294 667 q 579 623 522 667 q 636 508 636 579 q 595 384 636 436 q 488 305 554 332 q 343 278 421 278 l 176 278 q 171 221 171 250 q 210 92 171 143 q 322 42 250 42 q 438 69 388 42 q 536 153 488 97 l 560 132 q 433 20 500 54 q 285 -14 367 -14 m 346 333 q 459 384 414 336 q 504 506 504 432 q 476 583 504 556 q 394 611 447 611 q 265 538 321 611 q 186 333 210 464 l 346 333 z "},"é":{"ha":676,"x_min":44,"x_max":636,"o":"m 285 -14 q 106 56 168 -14 q 44 240 44 126 q 88 440 44 340 q 213 603 131 539 q 404 667 294 667 q 579 623 522 667 q 636 508 636 579 q 595 384 636 436 q 488 305 554 332 q 343 278 421 278 l 176 278 q 171 221 171 250 q 210 92 171 143 q 322 42 250 42 q 438 69 388 42 q 536 153 488 97 l 560 132 q 433 20 500 54 q 285 -14 367 -14 m 346 333 q 459 384 414 336 q 504 506 504 432 q 476 583 504 556 q 394 611 447 611 q 265 538 321 611 q 186 333 210 464 l 346 333 m 374 732 l 461 913 l 593 913 l 429 732 l 374 732 z "},"ê":{"ha":676,"x_min":44,"x_max":636,"o":"m 285 -14 q 106 56 168 -14 q 44 240 44 126 q 88 440 44 340 q 213 603 131 539 q 404 667 294 667 q 579 623 522 667 q 636 508 636 579 q 595 384 636 436 q 488 305 554 332 q 343 278 421 278 l 176 278 q 171 221 171 250 q 210 92 171 143 q 322 42 250 42 q 438 69 388 42 q 536 153 488 97 l 560 132 q 433 20 500 54 q 285 -14 367 -14 m 346 333 q 459 384 414 336 q 504 506 504 432 q 476 583 504 556 q 394 611 447 611 q 265 538 321 611 q 186 333 210 464 l 346 333 m 235 731 l 374 890 l 526 890 l 610 731 l 540 731 l 442 842 l 304 731 l 235 731 z "},"ế":{"ha":676,"x_min":44,"x_max":865,"o":"m 285 -14 q 106 56 168 -14 q 44 240 44 126 q 88 440 44 340 q 213 603 131 539 q 404 667 294 667 q 579 623 522 667 q 636 508 636 579 q 595 384 636 436 q 488 305 554 332 q 343 278 421 278 l 176 278 q 171 221 171 250 q 210 92 171 143 q 322 42 250 42 q 438 69 388 42 q 536 153 488 97 l 560 132 q 433 20 500 54 q 285 -14 367 -14 m 346 333 q 459 384 414 336 q 504 506 504 432 q 476 583 504 556 q 394 611 447 611 q 265 538 321 611 q 186 333 210 464 l 346 333 m 239 722 l 378 882 l 531 882 l 614 722 l 544 722 l 446 833 l 308 722 l 239 722 m 621 810 l 747 969 l 865 969 l 690 810 l 621 810 z "},"ệ":{"ha":676,"x_min":44,"x_max":636,"o":"m 285 -14 q 106 56 168 -14 q 44 240 44 126 q 88 440 44 340 q 213 603 131 539 q 404 667 294 667 q 579 623 522 667 q 636 508 636 579 q 595 384 636 436 q 488 305 554 332 q 343 278 421 278 l 176 278 q 171 221 171 250 q 210 92 171 143 q 322 42 250 42 q 438 69 388 42 q 536 153 488 97 l 560 132 q 433 20 500 54 q 285 -14 367 -14 m 346 333 q 459 384 414 336 q 504 506 504 432 q 476 583 504 556 q 394 611 447 611 q 265 538 321 611 q 186 333 210 464 l 346 333 m 242 -224 q 204 -209 218 -224 q 190 -171 190 -194 q 213 -121 190 -143 q 264 -99 235 -99 q 302 -113 288 -99 q 317 -150 317 -128 q 294 -201 317 -178 q 242 -224 271 -224 m 239 722 l 378 882 l 531 882 l 614 722 l 544 722 l 446 833 l 308 722 l 239 722 z "},"ề":{"ha":676,"x_min":44,"x_max":699,"o":"m 285 -14 q 106 56 168 -14 q 44 240 44 126 q 88 440 44 340 q 213 603 131 539 q 404 667 294 667 q 579 623 522 667 q 636 508 636 579 q 595 384 636 436 q 488 305 554 332 q 343 278 421 278 l 176 278 q 171 221 171 250 q 210 92 171 143 q 322 42 250 42 q 438 69 388 42 q 536 153 488 97 l 560 132 q 433 20 500 54 q 285 -14 367 -14 m 346 333 q 459 384 414 336 q 504 506 504 432 q 476 583 504 556 q 394 611 447 611 q 265 538 321 611 q 186 333 210 464 l 346 333 m 239 722 l 378 882 l 531 882 l 614 722 l 544 722 l 446 833 l 308 722 l 239 722 m 643 832 l 543 1013 l 675 1013 l 699 832 l 643 832 z "},"ể":{"ha":676,"x_min":44,"x_max":783,"o":"m 285 -14 q 106 56 168 -14 q 44 240 44 126 q 88 440 44 340 q 213 603 131 539 q 404 667 294 667 q 579 623 522 667 q 636 508 636 579 q 595 384 636 436 q 488 305 554 332 q 343 278 421 278 l 176 278 q 171 221 171 250 q 210 92 171 143 q 322 42 250 42 q 438 69 388 42 q 536 153 488 97 l 560 132 q 433 20 500 54 q 285 -14 367 -14 m 346 333 q 459 384 414 336 q 504 506 504 432 q 476 583 504 556 q 394 611 447 611 q 265 538 321 611 q 186 333 210 464 l 346 333 m 239 722 l 378 882 l 531 882 l 614 722 l 544 722 l 446 833 l 308 722 l 239 722 m 638 839 q 653 880 643 864 q 683 921 664 896 q 710 964 707 950 q 713 983 713 978 q 675 1019 713 1019 q 628 1004 647 1019 q 594 950 610 989 l 538 951 q 567 1017 544 992 q 620 1059 593 1047 q 685 1071 647 1071 q 754 1049 725 1071 q 783 988 783 1028 q 781 964 783 981 q 768 938 778 949 q 736 910 758 928 q 699 876 713 890 q 681 839 686 861 l 638 839 z "},"ễ":{"ha":676,"x_min":44,"x_max":651,"o":"m 285 -14 q 106 56 168 -14 q 44 240 44 126 q 88 440 44 340 q 213 603 131 539 q 404 667 294 667 q 579 623 522 667 q 636 508 636 579 q 595 384 636 436 q 488 305 554 332 q 343 278 421 278 l 176 278 q 171 221 171 250 q 210 92 171 143 q 322 42 250 42 q 438 69 388 42 q 536 153 488 97 l 560 132 q 433 20 500 54 q 285 -14 367 -14 m 346 333 q 459 384 414 336 q 504 506 504 432 q 476 583 504 556 q 394 611 447 611 q 265 538 321 611 q 186 333 210 464 l 346 333 m 239 722 l 378 882 l 531 882 l 614 722 l 544 722 l 446 833 l 308 722 l 239 722 m 315 929 q 354 1031 329 1001 q 422 1061 379 1061 q 459 1053 443 1061 q 493 1032 475 1046 q 508 1022 496 1031 q 533 1010 521 1014 q 558 1006 546 1006 q 590 1024 574 1006 q 610 1061 607 1043 l 651 1061 q 613 959 639 989 q 544 929 588 929 q 511 936 525 929 q 475 957 497 943 q 441 978 456 971 q 408 985 426 985 q 376 966 393 985 q 357 929 360 947 l 315 929 z "},"ë":{"ha":676,"x_min":44,"x_max":636,"o":"m 285 -14 q 106 56 168 -14 q 44 240 44 126 q 88 440 44 340 q 213 603 131 539 q 404 667 294 667 q 579 623 522 667 q 636 508 636 579 q 595 384 636 436 q 488 305 554 332 q 343 278 421 278 l 176 278 q 171 221 171 250 q 210 92 171 143 q 322 42 250 42 q 438 69 388 42 q 536 153 488 97 l 560 132 q 433 20 500 54 q 285 -14 367 -14 m 346 333 q 459 384 414 336 q 504 506 504 432 q 476 583 504 556 q 394 611 447 611 q 265 538 321 611 q 186 333 210 464 l 346 333 m 321 743 q 283 757 297 743 q 268 793 268 771 q 290 845 268 822 q 343 868 311 868 q 381 853 367 868 q 396 817 396 839 q 373 766 396 789 q 321 743 350 743 m 557 743 q 519 757 533 743 q 504 793 504 771 q 526 845 504 822 q 579 868 547 868 q 617 853 603 868 q 632 817 632 839 q 609 766 632 789 q 557 743 586 743 z "},"ẹ":{"ha":676,"x_min":44,"x_max":636,"o":"m 285 -14 q 106 56 168 -14 q 44 240 44 126 q 88 440 44 340 q 213 603 131 539 q 404 667 294 667 q 579 623 522 667 q 636 508 636 579 q 595 384 636 436 q 488 305 554 332 q 343 278 421 278 l 176 278 q 171 221 171 250 q 210 92 171 143 q 322 42 250 42 q 438 69 388 42 q 536 153 488 97 l 560 132 q 433 20 500 54 q 285 -14 367 -14 m 346 333 q 459 384 414 336 q 504 506 504 432 q 476 583 504 556 q 394 611 447 611 q 265 538 321 611 q 186 333 210 464 l 346 333 m 242 -224 q 204 -209 218 -224 q 190 -171 190 -194 q 213 -121 190 -143 q 264 -99 235 -99 q 302 -113 288 -99 q 317 -150 317 -128 q 294 -201 317 -178 q 242 -224 271 -224 z "},"è":{"ha":676,"x_min":44,"x_max":636,"o":"m 285 -14 q 106 56 168 -14 q 44 240 44 126 q 88 440 44 340 q 213 603 131 539 q 404 667 294 667 q 579 623 522 667 q 636 508 636 579 q 595 384 636 436 q 488 305 554 332 q 343 278 421 278 l 176 278 q 171 221 171 250 q 210 92 171 143 q 322 42 250 42 q 438 69 388 42 q 536 153 488 97 l 560 132 q 433 20 500 54 q 285 -14 367 -14 m 346 333 q 459 384 414 336 q 504 506 504 432 q 476 583 504 556 q 394 611 447 611 q 265 538 321 611 q 186 333 210 464 l 346 333 m 394 729 l 294 910 l 426 910 l 450 729 l 394 729 z "},"ẻ":{"ha":676,"x_min":44,"x_max":636,"o":"m 285 -14 q 106 56 168 -14 q 44 240 44 126 q 88 440 44 340 q 213 603 131 539 q 404 667 294 667 q 579 623 522 667 q 636 508 636 579 q 595 384 636 436 q 488 305 554 332 q 343 278 421 278 l 176 278 q 171 221 171 250 q 210 92 171 143 q 322 42 250 42 q 438 69 388 42 q 536 153 488 97 l 560 132 q 433 20 500 54 q 285 -14 367 -14 m 346 333 q 459 384 414 336 q 504 506 504 432 q 476 583 504 556 q 394 611 447 611 q 265 538 321 611 q 186 333 210 464 l 346 333 m 433 724 q 449 765 439 749 q 479 806 460 781 q 506 849 503 835 q 508 868 508 863 q 471 904 508 904 q 424 889 443 904 q 390 835 406 874 l 333 836 q 363 901 340 876 q 416 944 389 932 q 481 956 443 956 q 550 934 521 956 q 579 872 579 913 q 576 849 579 865 q 564 823 574 833 q 532 794 554 813 q 495 760 508 775 q 476 724 482 746 l 433 724 z "},"ẽ":{"ha":676,"x_min":44,"x_max":636,"o":"m 285 -14 q 106 56 168 -14 q 44 240 44 126 q 88 440 44 340 q 213 603 131 539 q 404 667 294 667 q 579 623 522 667 q 636 508 636 579 q 595 384 636 436 q 488 305 554 332 q 343 278 421 278 l 176 278 q 171 221 171 250 q 210 92 171 143 q 322 42 250 42 q 438 69 388 42 q 536 153 488 97 l 560 132 q 433 20 500 54 q 285 -14 367 -14 m 346 333 q 459 384 414 336 q 504 506 504 432 q 476 583 504 556 q 394 611 447 611 q 265 538 321 611 q 186 333 210 464 l 346 333 m 275 778 q 314 880 289 850 q 382 910 339 910 q 419 902 403 910 q 453 881 435 894 q 468 871 456 879 q 493 858 481 863 q 518 854 506 854 q 550 873 533 854 q 569 910 567 892 l 611 910 q 573 808 599 838 q 504 778 547 778 q 471 785 485 778 q 435 806 457 792 q 401 826 415 819 q 368 833 386 833 q 336 815 353 833 q 317 778 319 796 l 275 778 z "},"f":{"ha":472,"x_min":-118,"x_max":618,"o":"m -112 -236 q -2 -165 -47 -236 q 65 35 43 -94 l 164 597 l 67 597 l 76 653 l 174 653 l 182 694 q 467 931 228 931 q 581 910 554 931 q 618 847 606 892 l 571 813 q 526 860 556 844 q 450 875 497 875 q 363 833 400 875 q 307 694 326 792 l 299 653 l 493 653 l 483 597 l 289 597 l 190 35 q 137 -138 171 -74 q 42 -233 103 -203 q -118 -264 -19 -264 l -112 -236 z "},"g":{"ha":728,"x_min":15,"x_max":674,"o":"m 246 -278 q 103 -244 160 -278 q 15 -132 47 -210 l 46 -111 q 117 -195 76 -168 q 228 -222 157 -222 q 363 -154 307 -222 q 440 35 419 -86 l 442 42 q 261 0 350 0 q 101 67 154 0 q 47 242 47 133 q 83 433 47 333 q 192 599 119 532 q 364 667 264 667 q 476 644 435 667 q 538 590 518 622 l 544 590 l 604 653 l 674 653 l 565 35 q 455 -193 540 -108 q 246 -278 369 -278 m 313 56 q 375 67 342 56 q 451 97 408 78 l 528 528 q 478 588 508 565 q 396 611 447 611 q 273 549 322 611 q 201 398 224 486 q 178 233 178 310 q 210 103 178 151 q 313 56 243 56 z "},"ğ":{"ha":728,"x_min":15,"x_max":674,"o":"m 246 -278 q 103 -244 160 -278 q 15 -132 47 -210 l 46 -111 q 117 -195 76 -168 q 228 -222 157 -222 q 363 -154 307 -222 q 440 35 419 -86 l 442 42 q 261 0 350 0 q 101 67 154 0 q 47 242 47 133 q 83 433 47 333 q 192 599 119 532 q 364 667 264 667 q 476 644 435 667 q 538 590 518 622 l 544 590 l 604 653 l 674 653 l 565 35 q 455 -193 540 -108 q 246 -278 369 -278 m 313 56 q 375 67 342 56 q 451 97 408 78 l 528 528 q 478 588 508 565 q 396 611 447 611 q 273 549 322 611 q 201 398 224 486 q 178 233 178 310 q 210 103 178 151 q 313 56 243 56 m 411 738 q 253 863 286 738 l 283 883 q 425 821 324 821 q 589 883 529 821 l 614 863 q 411 738 536 738 z "},"h":{"ha":739,"x_min":35,"x_max":656,"o":"m 118 483 q 152 683 132 568 q 172 810 172 799 q 154 869 172 849 q 93 889 136 889 l 65 889 l 71 917 l 196 917 q 277 900 254 917 q 300 832 300 883 q 292 762 300 814 q 264 597 285 710 q 351 647 301 628 q 457 667 400 667 q 656 489 656 667 q 642 386 656 469 q 576 0 629 303 l 451 0 q 529 471 529 435 q 494 572 529 539 q 404 604 458 604 q 253 531 335 604 l 160 0 l 35 0 l 118 483 z "},"i":{"ha":349,"x_min":43,"x_max":317,"o":"m 240 736 q 194 757 213 736 q 176 808 176 778 q 197 865 176 842 q 253 888 218 888 q 299 867 281 888 q 317 815 317 846 q 296 759 317 782 q 240 736 275 736 m 58 0 q 131 417 111 299 q 150 549 150 535 q 132 606 150 588 q 71 625 114 625 l 43 625 l 47 653 l 172 653 q 253 635 229 653 q 278 568 278 618 q 269 498 278 556 q 236 306 260 440 l 183 0 l 58 0 z "},"ı":{"ha":349,"x_min":43,"x_max":278,"o":"m 58 0 q 131 417 111 299 q 150 549 150 535 q 132 606 150 588 q 71 625 114 625 l 43 625 l 47 653 l 172 653 q 253 635 229 653 q 278 568 278 618 q 269 498 278 556 q 236 306 260 440 l 183 0 l 58 0 z "},"í":{"ha":349,"x_min":43,"x_max":413,"o":"m 58 0 q 131 417 111 299 q 150 549 150 535 q 132 606 150 588 q 71 625 114 625 l 43 625 l 47 653 l 172 653 q 253 635 229 653 q 278 568 278 618 q 269 498 278 556 q 236 306 260 440 l 183 0 l 58 0 m 193 731 l 281 911 l 413 911 l 249 731 l 193 731 z "},"î":{"ha":349,"x_min":43,"x_max":439,"o":"m 58 0 q 131 417 111 299 q 150 549 150 535 q 132 606 150 588 q 71 625 114 625 l 43 625 l 47 653 l 172 653 q 253 635 229 653 q 278 568 278 618 q 269 498 278 556 q 236 306 260 440 l 183 0 l 58 0 m 64 738 l 203 897 l 356 897 l 439 738 l 369 738 l 271 849 l 133 738 l 64 738 z "},"ï":{"ha":349,"x_min":35,"x_max":399,"o":"m 58 0 q 131 417 111 299 q 150 549 150 535 q 132 606 150 588 q 71 625 114 625 l 43 625 l 47 653 l 172 653 q 253 635 229 653 q 278 568 278 618 q 269 498 278 556 q 236 306 260 440 l 183 0 l 58 0 m 88 743 q 49 757 64 743 q 35 793 35 771 q 56 845 35 822 q 110 868 78 868 q 148 853 133 868 q 163 817 163 839 q 140 766 163 789 q 88 743 117 743 m 324 743 q 285 757 300 743 q 271 793 271 771 q 292 845 271 822 q 346 868 314 868 q 384 853 369 868 q 399 817 399 839 q 376 766 399 789 q 324 743 353 743 z "},"ị":{"ha":349,"x_min":26,"x_max":317,"o":"m 240 736 q 194 757 213 736 q 176 808 176 778 q 197 865 176 842 q 253 888 218 888 q 299 867 281 888 q 317 815 317 846 q 296 759 317 782 q 240 736 275 736 m 58 0 q 131 417 111 299 q 150 549 150 535 q 132 606 150 588 q 71 625 114 625 l 43 625 l 47 653 l 172 653 q 253 635 229 653 q 278 568 278 618 q 269 498 278 556 q 236 306 260 440 l 183 0 l 58 0 m 78 -224 q 40 -209 54 -224 q 26 -171 26 -194 q 49 -121 26 -143 q 100 -99 71 -99 q 138 -113 124 -99 q 153 -150 153 -128 q 130 -201 153 -178 q 78 -224 107 -224 z "},"ì":{"ha":349,"x_min":43,"x_max":278,"o":"m 58 0 q 131 417 111 299 q 150 549 150 535 q 132 606 150 588 q 71 625 114 625 l 43 625 l 47 653 l 172 653 q 253 635 229 653 q 278 568 278 618 q 269 498 278 556 q 236 306 260 440 l 183 0 l 58 0 m 161 729 l 61 910 l 193 910 l 217 729 l 161 729 z "},"ỉ":{"ha":349,"x_min":43,"x_max":346,"o":"m 58 0 q 131 417 111 299 q 150 549 150 535 q 132 606 150 588 q 71 625 114 625 l 43 625 l 47 653 l 172 653 q 253 635 229 653 q 278 568 278 618 q 269 498 278 556 q 236 306 260 440 l 183 0 l 58 0 m 200 724 q 216 765 206 749 q 246 806 226 781 q 272 849 269 835 q 275 868 275 863 q 238 904 275 904 q 191 889 210 904 q 157 835 172 874 l 100 836 q 129 901 107 876 q 183 944 156 932 q 247 956 210 956 q 317 934 288 956 q 346 872 346 913 q 343 849 346 865 q 331 823 340 833 q 299 794 321 813 q 262 760 275 775 q 243 724 249 746 l 200 724 z "},"ĩ":{"ha":349,"x_min":42,"x_max":378,"o":"m 58 0 q 131 417 111 299 q 150 549 150 535 q 132 606 150 588 q 71 625 114 625 l 43 625 l 47 653 l 172 653 q 253 635 229 653 q 278 568 278 618 q 269 498 278 556 q 236 306 260 440 l 183 0 l 58 0 m 42 778 q 81 880 56 850 q 149 910 106 910 q 185 902 169 910 q 219 881 201 894 q 235 871 222 879 q 260 858 247 863 q 285 854 272 854 q 317 873 300 854 q 336 910 333 892 l 378 910 q 340 808 365 838 q 271 778 314 778 q 238 785 251 778 q 201 806 224 792 q 167 826 182 819 q 135 833 153 833 q 103 815 119 833 q 83 778 86 796 l 42 778 z "},"j":{"ha":349,"x_min":-119,"x_max":317,"o":"m 240 736 q 194 757 213 736 q 176 808 176 778 q 197 865 176 842 q 253 888 218 888 q 299 867 281 888 q 317 815 317 846 q 296 759 317 782 q 240 736 275 736 m -114 -236 q -3 -165 -49 -236 q 64 35 42 -94 q 131 424 113 313 q 150 549 150 535 q 132 606 150 588 q 71 625 114 625 l 43 625 l 47 653 l 172 653 q 253 635 229 653 q 278 568 278 618 q 269 503 278 556 q 240 333 261 451 l 189 35 q 135 -138 169 -74 q 40 -233 101 -203 q -119 -264 -21 -264 l -114 -236 z "},"k":{"ha":674,"x_min":33,"x_max":668,"o":"m 524 -14 q 422 12 467 -14 q 342 97 376 38 l 214 319 l 158 0 l 33 0 l 165 750 q 171 810 171 779 q 153 869 171 849 q 92 889 135 889 l 64 889 l 69 917 l 194 917 q 276 900 253 917 q 299 832 299 883 q 290 750 299 800 l 218 340 l 431 563 q 518 630 474 607 q 626 653 563 653 l 668 653 l 663 618 q 519 556 582 618 l 332 361 l 467 139 q 530 59 500 85 q 600 26 560 33 l 596 0 q 524 -14 565 -14 z "},"l":{"ha":339,"x_min":40,"x_max":306,"o":"m 124 483 q 158 683 138 568 q 178 810 178 799 q 160 869 178 849 q 99 889 142 889 l 71 889 l 76 917 l 201 917 q 283 900 260 917 q 306 832 306 883 q 282 669 306 811 q 165 0 258 526 l 40 0 l 124 483 z "},"m":{"ha":1096,"x_min":43,"x_max":1014,"o":"m 58 0 q 131 417 111 299 q 150 549 150 535 q 132 606 150 588 q 71 625 114 625 l 43 625 l 47 653 l 172 653 q 281 597 269 653 l 288 597 q 374 647 325 628 q 481 667 424 667 q 576 644 538 667 q 631 569 615 622 q 735 641 675 615 q 856 667 796 667 q 972 631 929 667 q 1014 504 1014 594 q 1001 397 1014 482 q 933 0 988 311 l 808 0 q 875 391 861 304 q 889 497 889 478 q 867 579 889 554 q 803 604 844 604 q 716 576 764 604 q 642 514 668 547 l 642 504 q 623 374 642 486 q 558 0 604 261 l 433 0 q 500 391 486 304 q 514 497 514 478 q 492 579 514 554 q 428 604 469 604 q 276 531 358 604 l 183 0 l 58 0 z "},"n":{"ha":763,"x_min":43,"x_max":679,"o":"m 58 0 q 131 417 111 299 q 150 549 150 535 q 132 606 150 588 q 71 625 114 625 l 43 625 l 47 653 l 172 653 q 281 597 269 653 l 288 597 q 374 647 325 628 q 481 667 424 667 q 679 489 679 667 q 666 386 679 469 q 600 0 653 303 l 475 0 q 553 471 553 435 q 517 572 553 539 q 428 604 482 604 q 276 531 358 604 l 183 0 l 58 0 z "},"ñ":{"ha":763,"x_min":43,"x_max":679,"o":"m 58 0 q 131 417 111 299 q 150 549 150 535 q 132 606 150 588 q 71 625 114 625 l 43 625 l 47 653 l 172 653 q 281 597 269 653 l 288 597 q 374 647 325 628 q 481 667 424 667 q 679 489 679 667 q 666 386 679 469 q 600 0 653 303 l 475 0 q 553 471 553 435 q 517 572 553 539 q 428 604 482 604 q 276 531 358 604 l 183 0 l 58 0 m 304 757 q 343 859 318 829 q 411 889 368 889 q 448 881 432 889 q 482 860 464 874 q 497 850 485 858 q 522 838 510 842 q 547 833 535 833 q 579 852 563 833 q 599 889 596 871 l 640 889 q 602 787 628 817 q 533 757 576 757 q 500 764 514 757 q 464 785 486 771 q 430 806 444 799 q 397 813 415 813 q 365 794 382 813 q 346 757 349 775 l 304 757 z "},"o":{"ha":735,"x_min":44,"x_max":669,"o":"m 297 -14 q 110 59 176 -14 q 44 249 44 132 q 91 447 44 350 q 222 605 138 543 q 417 667 307 667 q 603 594 538 667 q 669 404 669 521 q 623 206 669 303 q 492 48 576 110 q 297 -14 407 -14 m 307 42 q 432 103 379 42 q 512 253 485 165 q 539 413 539 340 q 504 556 539 501 q 407 611 469 611 q 282 549 335 611 q 202 400 229 488 q 175 240 175 313 q 210 97 175 151 q 307 42 244 42 z "},"ó":{"ha":735,"x_min":44,"x_max":669,"o":"m 297 -14 q 110 59 176 -14 q 44 249 44 132 q 91 447 44 350 q 222 605 138 543 q 417 667 307 667 q 603 594 538 667 q 669 404 669 521 q 623 206 669 303 q 492 48 576 110 q 297 -14 407 -14 m 307 42 q 432 103 379 42 q 512 253 485 165 q 539 413 539 340 q 504 556 539 501 q 407 611 469 611 q 282 549 335 611 q 202 400 229 488 q 175 240 175 313 q 210 97 175 151 q 307 42 244 42 m 379 731 l 467 911 l 599 911 l 435 731 l 379 731 z "},"ô":{"ha":735,"x_min":44,"x_max":669,"o":"m 297 -14 q 110 59 176 -14 q 44 249 44 132 q 91 447 44 350 q 222 605 138 543 q 417 667 307 667 q 603 594 538 667 q 669 404 669 521 q 623 206 669 303 q 492 48 576 110 q 297 -14 407 -14 m 307 42 q 432 103 379 42 q 512 253 485 165 q 539 413 539 340 q 504 556 539 501 q 407 611 469 611 q 282 549 335 611 q 202 400 229 488 q 175 240 175 313 q 210 97 175 151 q 307 42 244 42 m 240 731 l 379 890 l 532 890 l 615 731 l 546 731 l 447 842 l 310 731 l 240 731 z "},"ố":{"ha":735,"x_min":44,"x_max":867,"o":"m 297 -14 q 110 59 176 -14 q 44 249 44 132 q 91 447 44 350 q 222 605 138 543 q 417 667 307 667 q 603 594 538 667 q 669 404 669 521 q 623 206 669 303 q 492 48 576 110 q 297 -14 407 -14 m 307 42 q 432 103 379 42 q 512 253 485 165 q 539 413 539 340 q 504 556 539 501 q 407 611 469 611 q 282 549 335 611 q 202 400 229 488 q 175 240 175 313 q 210 97 175 151 q 307 42 244 42 m 240 722 l 379 882 l 532 882 l 615 722 l 546 722 l 447 833 l 310 722 l 240 722 m 622 810 l 749 969 l 867 969 l 692 810 l 622 810 z "},"ộ":{"ha":735,"x_min":44,"x_max":669,"o":"m 297 -14 q 110 59 176 -14 q 44 249 44 132 q 91 447 44 350 q 222 605 138 543 q 417 667 307 667 q 603 594 538 667 q 669 404 669 521 q 623 206 669 303 q 492 48 576 110 q 297 -14 407 -14 m 307 42 q 432 103 379 42 q 512 253 485 165 q 539 413 539 340 q 504 556 539 501 q 407 611 469 611 q 282 549 335 611 q 202 400 229 488 q 175 240 175 313 q 210 97 175 151 q 307 42 244 42 m 271 -224 q 233 -209 247 -224 q 219 -171 219 -194 q 242 -121 219 -143 q 293 -99 264 -99 q 331 -113 317 -99 q 346 -150 346 -128 q 323 -201 346 -178 q 271 -224 300 -224 m 240 722 l 379 882 l 532 882 l 615 722 l 546 722 l 447 833 l 310 722 l 240 722 z "},"ồ":{"ha":735,"x_min":44,"x_max":700,"o":"m 297 -14 q 110 59 176 -14 q 44 249 44 132 q 91 447 44 350 q 222 605 138 543 q 417 667 307 667 q 603 594 538 667 q 669 404 669 521 q 623 206 669 303 q 492 48 576 110 q 297 -14 407 -14 m 307 42 q 432 103 379 42 q 512 253 485 165 q 539 413 539 340 q 504 556 539 501 q 407 611 469 611 q 282 549 335 611 q 202 400 229 488 q 175 240 175 313 q 210 97 175 151 q 307 42 244 42 m 240 722 l 379 882 l 532 882 l 615 722 l 546 722 l 447 833 l 310 722 l 240 722 m 644 832 l 544 1013 l 676 1013 l 700 832 l 644 832 z "},"ổ":{"ha":735,"x_min":44,"x_max":785,"o":"m 297 -14 q 110 59 176 -14 q 44 249 44 132 q 91 447 44 350 q 222 605 138 543 q 417 667 307 667 q 603 594 538 667 q 669 404 669 521 q 623 206 669 303 q 492 48 576 110 q 297 -14 407 -14 m 307 42 q 432 103 379 42 q 512 253 485 165 q 539 413 539 340 q 504 556 539 501 q 407 611 469 611 q 282 549 335 611 q 202 400 229 488 q 175 240 175 313 q 210 97 175 151 q 307 42 244 42 m 240 722 l 379 882 l 532 882 l 615 722 l 546 722 l 447 833 l 310 722 l 240 722 m 639 839 q 655 880 644 864 q 685 921 665 896 q 711 964 708 950 q 714 983 714 978 q 676 1019 714 1019 q 630 1004 649 1019 q 596 950 611 989 l 539 951 q 568 1017 546 992 q 622 1059 594 1047 q 686 1071 649 1071 q 756 1049 726 1071 q 785 988 785 1028 q 782 964 785 981 q 769 938 779 949 q 738 910 760 928 q 701 876 714 890 q 682 839 688 861 l 639 839 z "},"ỗ":{"ha":735,"x_min":44,"x_max":669,"o":"m 297 -14 q 110 59 176 -14 q 44 249 44 132 q 91 447 44 350 q 222 605 138 543 q 417 667 307 667 q 603 594 538 667 q 669 404 669 521 q 623 206 669 303 q 492 48 576 110 q 297 -14 407 -14 m 307 42 q 432 103 379 42 q 512 253 485 165 q 539 413 539 340 q 504 556 539 501 q 407 611 469 611 q 282 549 335 611 q 202 400 229 488 q 175 240 175 313 q 210 97 175 151 q 307 42 244 42 m 240 722 l 379 882 l 532 882 l 615 722 l 546 722 l 447 833 l 310 722 l 240 722 m 317 929 q 356 1031 331 1001 q 424 1061 381 1061 q 460 1053 444 1061 q 494 1032 476 1046 q 510 1022 497 1031 q 535 1010 522 1014 q 560 1006 547 1006 q 592 1024 575 1006 q 611 1061 608 1043 l 653 1061 q 615 959 640 989 q 546 929 589 929 q 513 936 526 929 q 476 957 499 943 q 442 978 457 971 q 410 985 428 985 q 378 966 394 985 q 358 929 361 947 l 317 929 z "},"ö":{"ha":735,"x_min":44,"x_max":724,"o":"m 297 -14 q 110 59 176 -14 q 44 249 44 132 q 91 447 44 350 q 222 605 138 543 q 417 667 307 667 q 603 594 538 667 q 669 404 669 521 q 623 206 669 303 q 492 48 576 110 q 297 -14 407 -14 m 307 42 q 432 103 379 42 q 512 253 485 165 q 539 413 539 340 q 504 556 539 501 q 407 611 469 611 q 282 549 335 611 q 202 400 229 488 q 175 240 175 313 q 210 97 175 151 q 307 42 244 42 m 413 743 q 374 757 389 743 q 360 793 360 771 q 381 845 360 822 q 435 868 403 868 q 473 853 458 868 q 488 817 488 839 q 465 766 488 789 q 413 743 442 743 m 649 743 q 610 757 625 743 q 596 793 596 771 q 617 845 596 822 q 671 868 639 868 q 709 853 694 868 q 724 817 724 839 q 701 766 724 789 q 649 743 678 743 z "},"ọ":{"ha":735,"x_min":44,"x_max":669,"o":"m 297 -14 q 110 59 176 -14 q 44 249 44 132 q 91 447 44 350 q 222 605 138 543 q 417 667 307 667 q 603 594 538 667 q 669 404 669 521 q 623 206 669 303 q 492 48 576 110 q 297 -14 407 -14 m 307 42 q 432 103 379 42 q 512 253 485 165 q 539 413 539 340 q 504 556 539 501 q 407 611 469 611 q 282 549 335 611 q 202 400 229 488 q 175 240 175 313 q 210 97 175 151 q 307 42 244 42 m 271 -224 q 233 -209 247 -224 q 219 -171 219 -194 q 242 -121 219 -143 q 293 -99 264 -99 q 331 -113 317 -99 q 346 -150 346 -128 q 323 -201 346 -178 q 271 -224 300 -224 z "},"ò":{"ha":735,"x_min":44,"x_max":669,"o":"m 297 -14 q 110 59 176 -14 q 44 249 44 132 q 91 447 44 350 q 222 605 138 543 q 417 667 307 667 q 603 594 538 667 q 669 404 669 521 q 623 206 669 303 q 492 48 576 110 q 297 -14 407 -14 m 307 42 q 432 103 379 42 q 512 253 485 165 q 539 413 539 340 q 504 556 539 501 q 407 611 469 611 q 282 549 335 611 q 202 400 229 488 q 175 240 175 313 q 210 97 175 151 q 307 42 244 42 m 497 729 l 397 910 l 529 910 l 553 729 l 497 729 z "},"ỏ":{"ha":735,"x_min":44,"x_max":669,"o":"m 297 -14 q 110 59 176 -14 q 44 249 44 132 q 91 447 44 350 q 222 605 138 543 q 417 667 307 667 q 603 594 538 667 q 669 404 669 521 q 623 206 669 303 q 492 48 576 110 q 297 -14 407 -14 m 307 42 q 432 103 379 42 q 512 253 485 165 q 539 413 539 340 q 504 556 539 501 q 407 611 469 611 q 282 549 335 611 q 202 400 229 488 q 175 240 175 313 q 210 97 175 151 q 307 42 244 42 m 435 724 q 451 765 440 749 q 481 806 461 781 q 507 849 504 835 q 510 868 510 863 q 472 904 510 904 q 426 889 444 904 q 392 835 407 874 l 335 836 q 364 901 342 876 q 417 944 390 932 q 482 956 444 956 q 551 934 522 956 q 581 872 581 913 q 578 849 581 865 q 565 823 575 833 q 533 794 556 813 q 497 760 510 775 q 478 724 483 746 l 435 724 z "},"ơ":{"ha":735,"x_min":44,"x_max":731,"o":"m 731 797 q 565 626 703 657 q 643 535 617 593 q 669 404 669 478 q 623 206 669 303 q 492 48 576 110 q 297 -14 407 -14 q 110 59 176 -14 q 44 249 44 132 q 91 447 44 350 q 222 605 138 543 q 417 667 307 667 q 506 654 465 667 q 603 703 565 663 q 651 797 640 744 l 731 797 m 307 42 q 432 103 379 42 q 512 253 485 165 q 539 413 539 340 q 504 556 539 501 q 407 611 469 611 q 282 549 335 611 q 202 400 229 488 q 175 240 175 313 q 210 97 175 151 q 307 42 244 42 z "},"ớ":{"ha":735,"x_min":44,"x_max":731,"o":"m 731 797 q 565 626 703 657 q 643 535 617 593 q 669 404 669 478 q 623 206 669 303 q 492 48 576 110 q 297 -14 407 -14 q 110 59 176 -14 q 44 249 44 132 q 91 447 44 350 q 222 605 138 543 q 417 667 307 667 q 506 654 465 667 q 603 703 565 663 q 651 797 640 744 l 731 797 m 307 42 q 432 103 379 42 q 512 253 485 165 q 539 413 539 340 q 504 556 539 501 q 407 611 469 611 q 282 549 335 611 q 202 400 229 488 q 175 240 175 313 q 210 97 175 151 q 307 42 244 42 m 386 750 l 513 910 l 631 910 l 456 750 l 386 750 z "},"ợ":{"ha":735,"x_min":44,"x_max":731,"o":"m 731 797 q 565 626 703 657 q 643 535 617 593 q 669 404 669 478 q 623 206 669 303 q 492 48 576 110 q 297 -14 407 -14 q 110 59 176 -14 q 44 249 44 132 q 91 447 44 350 q 222 605 138 543 q 417 667 307 667 q 506 654 465 667 q 603 703 565 663 q 651 797 640 744 l 731 797 m 307 42 q 432 103 379 42 q 512 253 485 165 q 539 413 539 340 q 504 556 539 501 q 407 611 469 611 q 282 549 335 611 q 202 400 229 488 q 175 240 175 313 q 210 97 175 151 q 307 42 244 42 m 271 -224 q 233 -209 247 -224 q 219 -171 219 -194 q 242 -121 219 -143 q 293 -99 264 -99 q 331 -113 317 -99 q 346 -150 346 -128 q 323 -201 346 -178 q 271 -224 300 -224 z "},"ờ":{"ha":735,"x_min":44,"x_max":731,"o":"m 731 797 q 565 626 703 657 q 643 535 617 593 q 669 404 669 478 q 623 206 669 303 q 492 48 576 110 q 297 -14 407 -14 q 110 59 176 -14 q 44 249 44 132 q 91 447 44 350 q 222 605 138 543 q 417 667 307 667 q 506 654 465 667 q 603 703 565 663 q 651 797 640 744 l 731 797 m 307 42 q 432 103 379 42 q 512 253 485 165 q 539 413 539 340 q 504 556 539 501 q 407 611 469 611 q 282 549 335 611 q 202 400 229 488 q 175 240 175 313 q 210 97 175 151 q 307 42 244 42 m 396 729 l 296 910 l 428 910 l 451 729 l 396 729 z "},"ở":{"ha":735,"x_min":44,"x_max":731,"o":"m 731 797 q 565 626 703 657 q 643 535 617 593 q 669 404 669 478 q 623 206 669 303 q 492 48 576 110 q 297 -14 407 -14 q 110 59 176 -14 q 44 249 44 132 q 91 447 44 350 q 222 605 138 543 q 417 667 307 667 q 506 654 465 667 q 603 703 565 663 q 651 797 640 744 l 731 797 m 307 42 q 432 103 379 42 q 512 253 485 165 q 539 413 539 340 q 504 556 539 501 q 407 611 469 611 q 282 549 335 611 q 202 400 229 488 q 175 240 175 313 q 210 97 175 151 q 307 42 244 42 m 435 724 q 451 765 440 749 q 481 806 461 781 q 507 849 504 835 q 510 868 510 863 q 472 904 510 904 q 426 889 444 904 q 392 835 407 874 l 335 836 q 364 901 342 876 q 417 944 390 932 q 482 956 444 956 q 551 934 522 956 q 581 872 581 913 q 578 849 581 865 q 565 823 575 833 q 533 794 556 813 q 497 760 510 775 q 478 724 483 746 l 435 724 z "},"ỡ":{"ha":735,"x_min":44,"x_max":731,"o":"m 731 797 q 565 626 703 657 q 643 535 617 593 q 669 404 669 478 q 623 206 669 303 q 492 48 576 110 q 297 -14 407 -14 q 110 59 176 -14 q 44 249 44 132 q 91 447 44 350 q 222 605 138 543 q 417 667 307 667 q 506 654 465 667 q 603 703 565 663 q 651 797 640 744 l 731 797 m 307 42 q 432 103 379 42 q 512 253 485 165 q 539 413 539 340 q 504 556 539 501 q 407 611 469 611 q 282 549 335 611 q 202 400 229 488 q 175 240 175 313 q 210 97 175 151 q 307 42 244 42 m 276 778 q 315 880 290 850 q 383 910 340 910 q 420 902 404 910 q 454 881 436 894 q 469 871 457 879 q 494 858 482 863 q 519 854 507 854 q 551 873 535 854 q 571 910 568 892 l 613 910 q 574 808 600 838 q 506 778 549 778 q 472 785 486 778 q 436 806 458 792 q 402 826 417 819 q 369 833 388 833 q 338 815 354 833 q 318 778 321 796 l 276 778 z "},"ø":{"ha":733,"x_min":22,"x_max":692,"o":"m 297 -14 q 146 28 210 -14 l 124 0 l 22 0 l 92 81 q 44 249 44 150 q 91 447 44 350 q 222 605 138 543 q 417 667 307 667 q 567 625 507 667 l 590 653 l 692 653 l 621 571 q 669 400 669 501 q 622 204 669 300 q 490 47 575 108 q 297 -14 406 -14 m 506 554 q 407 611 468 611 q 283 550 335 611 q 203 402 231 489 q 175 244 175 315 q 181 182 175 210 l 506 554 m 307 42 q 431 103 379 42 q 511 251 483 164 q 539 408 539 338 q 533 471 539 443 l 208 99 q 307 42 242 42 z "},"õ":{"ha":735,"x_min":44,"x_max":669,"o":"m 297 -14 q 110 59 176 -14 q 44 249 44 132 q 91 447 44 350 q 222 605 138 543 q 417 667 307 667 q 603 594 538 667 q 669 404 669 521 q 623 206 669 303 q 492 48 576 110 q 297 -14 407 -14 m 307 42 q 432 103 379 42 q 512 253 485 165 q 539 413 539 340 q 504 556 539 501 q 407 611 469 611 q 282 549 335 611 q 202 400 229 488 q 175 240 175 313 q 210 97 175 151 q 307 42 244 42 m 274 744 q 313 847 288 817 q 381 876 338 876 q 417 869 401 876 q 451 847 433 861 q 467 838 454 846 q 492 825 479 829 q 517 821 504 821 q 549 840 532 821 q 568 876 565 858 l 610 876 q 572 774 597 804 q 503 744 546 744 q 469 751 483 744 q 433 772 456 758 q 399 793 414 786 q 367 800 385 800 q 335 781 351 800 q 315 744 318 763 l 274 744 z "},"œ":{"ha":1093,"x_min":44,"x_max":1044,"o":"m 297 -14 q 110 59 176 -14 q 44 249 44 132 q 91 447 44 350 q 222 605 138 543 q 417 667 307 667 q 613 585 551 667 q 813 667 699 667 q 990 624 935 667 q 1044 508 1044 581 q 960 347 1044 401 q 751 292 875 292 l 607 292 q 603 229 603 263 q 641 92 603 143 q 751 42 679 42 q 867 69 817 42 q 965 153 917 97 l 989 132 q 863 20 929 54 q 714 -14 796 -14 q 519 69 589 -14 q 297 -14 422 -14 m 307 42 q 401 75 358 42 q 483 174 444 108 q 475 250 475 215 q 536 479 475 365 q 491 576 524 540 q 407 611 458 611 q 282 549 335 611 q 202 400 229 488 q 175 240 175 313 q 210 97 175 151 q 307 42 244 42 m 754 347 q 867 390 822 347 q 913 506 913 432 q 889 580 913 556 q 815 604 865 604 q 733 572 774 604 q 663 485 693 540 q 619 361 632 429 l 617 347 l 754 347 z "},"p":{"ha":754,"x_min":11,"x_max":688,"o":"m 115 335 q 150 549 150 542 q 132 606 150 588 q 71 625 114 625 l 43 625 l 47 653 l 172 653 q 250 638 225 653 q 279 590 275 622 l 286 590 q 488 667 363 667 q 637 600 586 667 q 688 424 688 533 q 650 224 688 325 q 537 54 613 122 q 354 -14 461 -14 q 188 28 263 -14 l 136 -264 l 11 -264 l 115 335 m 322 42 q 456 106 403 42 q 532 260 508 169 q 556 435 556 351 q 526 565 556 518 q 436 611 497 611 q 345 588 383 611 q 276 528 307 565 l 197 83 q 322 42 272 42 z "},"þ":{"ha":731,"x_min":-12,"x_max":664,"o":"m -12 -264 q 142 615 111 436 q 172 810 172 793 q 154 869 172 849 q 93 889 136 889 l 72 889 l 78 917 l 196 917 q 277 900 254 917 q 300 832 300 883 q 292 761 300 815 q 263 590 283 707 q 464 667 339 667 q 613 600 563 667 q 664 424 664 533 q 626 224 664 325 q 513 54 589 122 q 331 -14 438 -14 q 164 28 239 -14 l 113 -264 l -12 -264 m 299 42 q 432 106 379 42 q 508 260 485 169 q 532 435 532 351 q 503 565 532 518 q 413 611 474 611 q 322 588 360 611 q 253 528 283 565 l 174 83 q 299 42 249 42 z "},"q":{"ha":728,"x_min":44,"x_max":674,"o":"m 439 28 q 258 -14 347 -14 q 98 52 151 -14 q 44 229 44 118 q 81 424 44 322 q 190 597 118 526 q 364 667 263 667 q 476 644 435 667 q 538 590 518 622 l 544 590 l 604 653 l 674 653 l 513 -264 l 388 -264 l 439 28 m 310 42 q 372 53 339 42 q 449 83 406 64 l 528 528 q 478 588 508 565 q 396 611 447 611 q 272 546 321 611 q 199 390 222 481 q 176 221 176 299 q 208 90 176 138 q 310 42 240 42 z "},"r":{"ha":560,"x_min":49,"x_max":576,"o":"m 50 0 q 122 417 103 299 q 142 549 142 535 q 124 606 142 588 q 63 625 106 625 l 49 625 l 53 653 l 164 653 q 242 638 217 653 q 271 590 267 622 l 278 590 q 356 644 310 622 q 458 667 401 667 q 538 646 513 667 q 560 621 551 635 q 576 583 568 607 l 513 542 q 474 573 501 563 q 410 583 447 583 q 330 565 368 583 q 265 514 292 546 l 175 0 l 50 0 z "},"s":{"ha":624,"x_min":24,"x_max":567,"o":"m 250 -14 q 91 8 158 -14 q 24 104 24 31 q 28 151 24 124 q 35 188 33 178 l 63 188 l 63 185 q 104 79 63 117 q 232 42 146 42 q 349 69 294 42 q 403 157 403 97 q 378 215 403 190 q 299 264 354 239 l 221 299 q 119 366 154 328 q 85 457 85 404 q 123 569 85 521 q 222 642 161 617 q 349 667 282 667 q 567 551 567 667 q 563 501 567 529 q 557 465 558 474 l 529 465 l 529 468 q 489 574 529 536 q 367 611 449 611 q 260 584 310 611 q 210 500 210 557 q 301 396 210 436 l 378 361 q 492 290 456 326 q 528 200 528 254 q 488 85 528 133 q 385 11 449 36 q 250 -14 321 -14 z "},"š":{"ha":624,"x_min":24,"x_max":574,"o":"m 250 -14 q 91 8 158 -14 q 24 104 24 31 q 28 151 24 124 q 35 188 33 178 l 63 188 l 63 185 q 104 79 63 117 q 232 42 146 42 q 349 69 294 42 q 403 157 403 97 q 378 215 403 190 q 299 264 354 239 l 221 299 q 119 366 154 328 q 85 457 85 404 q 123 569 85 521 q 222 642 161 617 q 349 667 282 667 q 567 551 567 667 q 563 501 567 529 q 557 465 558 474 l 529 465 l 529 468 q 489 574 529 536 q 367 611 449 611 q 260 584 310 611 q 210 500 210 557 q 301 396 210 436 l 378 361 q 492 290 456 326 q 528 200 528 254 q 488 85 528 133 q 385 11 449 36 q 250 -14 321 -14 m 282 722 l 199 882 l 268 882 l 367 771 l 504 882 l 574 882 l 435 722 l 282 722 z "},"ş":{"ha":624,"x_min":24,"x_max":567,"o":"m 160 -187 l 229 -187 q 274 -173 256 -187 q 293 -132 293 -158 q 244 -97 293 -97 l 182 -97 l 197 -12 q 76 18 128 -8 q 24 104 24 44 q 28 151 24 124 q 35 188 33 178 l 63 188 l 63 185 q 104 79 63 117 q 232 42 146 42 q 351 68 308 42 q 401 139 393 94 q 403 157 403 144 q 378 215 403 190 q 299 264 354 239 l 221 299 q 119 366 154 328 q 85 457 85 404 q 112 551 85 507 q 176 619 139 596 q 349 667 244 667 q 567 551 567 667 q 563 501 567 529 q 557 465 558 474 l 529 465 l 529 468 q 489 574 529 536 q 367 611 449 611 q 260 584 310 611 q 210 500 210 557 q 301 396 210 436 l 378 361 q 492 290 456 326 q 528 200 528 254 q 525 167 528 189 q 436 35 508 82 q 260 -14 364 -11 l 254 -42 l 268 -42 q 338 -62 311 -42 q 364 -121 364 -82 q 326 -209 364 -174 q 232 -244 288 -244 l 149 -244 l 160 -187 z "},"ß":{"ha":769,"x_min":33,"x_max":697,"o":"m 461 -14 q 334 13 392 -14 q 276 104 276 40 q 282 153 276 132 l 310 153 l 310 149 q 347 74 310 106 q 443 42 385 42 q 533 74 493 42 q 572 160 572 107 q 546 228 572 200 q 467 293 519 257 q 375 370 406 336 q 344 457 344 404 q 372 547 344 511 q 454 631 399 583 q 532 707 506 672 q 558 790 558 742 q 451 875 558 875 q 339 835 381 875 q 281 694 297 794 l 158 0 l 33 0 l 156 694 q 260 880 179 829 q 468 931 342 931 q 626 898 571 931 q 681 811 681 865 q 653 727 681 763 q 572 646 626 692 q 495 570 521 603 q 469 493 469 538 q 496 424 469 453 q 575 360 522 396 q 666 285 635 319 q 697 196 697 250 q 665 87 697 135 q 579 13 633 39 q 461 -14 525 -14 z "},"t":{"ha":467,"x_min":64,"x_max":463,"o":"m 221 -14 q 119 19 156 -14 q 82 118 82 53 q 161 597 82 140 l 64 597 l 74 653 l 171 653 l 193 778 l 278 861 l 333 861 l 296 653 l 463 653 l 453 597 l 286 597 q 207 125 207 143 q 286 42 207 42 q 344 49 319 42 q 394 69 368 56 l 404 42 q 326 1 367 17 q 221 -14 285 -14 z "},"u":{"ha":746,"x_min":35,"x_max":692,"o":"m 269 -14 q 69 167 69 -14 q 81 253 69 183 q 121 486 92 322 q 128 549 128 531 q 110 606 128 588 q 49 625 92 625 l 35 625 l 39 653 l 150 653 q 231 635 207 653 q 256 568 256 618 q 246 486 256 544 q 197 183 197 217 q 233 81 197 114 q 322 49 268 49 q 474 122 392 49 l 567 653 l 692 653 l 578 0 l 508 0 l 469 56 l 463 56 q 376 6 425 25 q 269 -14 326 -14 z "},"ú":{"ha":746,"x_min":35,"x_max":692,"o":"m 269 -14 q 69 167 69 -14 q 81 253 69 183 q 121 486 92 322 q 128 549 128 531 q 110 606 128 588 q 49 625 92 625 l 35 625 l 39 653 l 150 653 q 231 635 207 653 q 256 568 256 618 q 246 486 256 544 q 197 183 197 217 q 233 81 197 114 q 322 49 268 49 q 474 122 392 49 l 567 653 l 692 653 l 578 0 l 508 0 l 469 56 l 463 56 q 376 6 425 25 q 269 -14 326 -14 m 389 696 l 476 876 l 608 876 l 444 696 l 389 696 z "},"û":{"ha":746,"x_min":35,"x_max":692,"o":"m 269 -14 q 69 167 69 -14 q 81 253 69 183 q 121 486 92 322 q 128 549 128 531 q 110 606 128 588 q 49 625 92 625 l 35 625 l 39 653 l 150 653 q 231 635 207 653 q 256 568 256 618 q 246 486 256 544 q 197 183 197 217 q 233 81 197 114 q 322 49 268 49 q 474 122 392 49 l 567 653 l 692 653 l 578 0 l 508 0 l 469 56 l 463 56 q 376 6 425 25 q 269 -14 326 -14 m 233 731 l 372 890 l 525 890 l 608 731 l 539 731 l 440 842 l 303 731 l 233 731 z "},"ü":{"ha":746,"x_min":35,"x_max":692,"o":"m 269 -14 q 69 167 69 -14 q 81 253 69 183 q 121 486 92 322 q 128 549 128 531 q 110 606 128 588 q 49 625 92 625 l 35 625 l 39 653 l 150 653 q 231 635 207 653 q 256 568 256 618 q 246 486 256 544 q 197 183 197 217 q 233 81 197 114 q 322 49 268 49 q 474 122 392 49 l 567 653 l 692 653 l 578 0 l 508 0 l 469 56 l 463 56 q 376 6 425 25 q 269 -14 326 -14 m 328 743 q 290 757 304 743 q 275 793 275 771 q 297 845 275 822 q 350 868 318 868 q 388 853 374 868 q 403 817 403 839 q 380 766 403 789 q 328 743 357 743 m 564 743 q 526 757 540 743 q 511 793 511 771 q 533 845 511 822 q 586 868 554 868 q 624 853 610 868 q 639 817 639 839 q 616 766 639 789 q 564 743 593 743 z "},"ụ":{"ha":746,"x_min":35,"x_max":692,"o":"m 269 -14 q 69 167 69 -14 q 81 253 69 183 q 121 486 92 322 q 128 549 128 531 q 110 606 128 588 q 49 625 92 625 l 35 625 l 39 653 l 150 653 q 231 635 207 653 q 256 568 256 618 q 246 486 256 544 q 197 183 197 217 q 233 81 197 114 q 322 49 268 49 q 474 122 392 49 l 567 653 l 692 653 l 578 0 l 508 0 l 469 56 l 463 56 q 376 6 425 25 q 269 -14 326 -14 m 276 -224 q 239 -209 253 -224 q 225 -171 225 -194 q 247 -121 225 -143 q 299 -99 269 -99 q 337 -113 322 -99 q 351 -150 351 -128 q 328 -201 351 -178 q 276 -224 306 -224 z "},"ù":{"ha":746,"x_min":35,"x_max":692,"o":"m 269 -14 q 69 167 69 -14 q 81 253 69 183 q 121 486 92 322 q 128 549 128 531 q 110 606 128 588 q 49 625 92 625 l 35 625 l 39 653 l 150 653 q 231 635 207 653 q 256 568 256 618 q 246 486 256 544 q 197 183 197 217 q 233 81 197 114 q 322 49 268 49 q 474 122 392 49 l 567 653 l 692 653 l 578 0 l 508 0 l 469 56 l 463 56 q 376 6 425 25 q 269 -14 326 -14 m 401 729 l 301 910 l 433 910 l 457 729 l 401 729 z "},"ủ":{"ha":746,"x_min":35,"x_max":692,"o":"m 269 -14 q 69 167 69 -14 q 81 253 69 183 q 121 486 92 322 q 128 549 128 531 q 110 606 128 588 q 49 625 92 625 l 35 625 l 39 653 l 150 653 q 231 635 207 653 q 256 568 256 618 q 246 486 256 544 q 197 183 197 217 q 233 81 197 114 q 322 49 268 49 q 474 122 392 49 l 567 653 l 692 653 l 578 0 l 508 0 l 469 56 l 463 56 q 376 6 425 25 q 269 -14 326 -14 m 440 724 q 456 765 446 749 q 486 806 467 781 q 513 849 510 835 q 515 868 515 863 q 478 904 515 904 q 431 889 450 904 q 397 835 413 874 l 340 836 q 369 901 347 876 q 423 944 396 932 q 488 956 450 956 q 557 934 528 956 q 586 872 586 913 q 583 849 586 865 q 571 823 581 833 q 539 794 561 813 q 502 760 515 775 q 483 724 489 746 l 440 724 z "},"ư":{"ha":746,"x_min":35,"x_max":901,"o":"m 901 797 q 686 618 868 633 l 578 0 l 508 0 l 469 56 l 463 56 q 376 6 425 25 q 269 -14 326 -14 q 69 167 69 -14 q 81 253 69 183 q 121 486 92 322 q 128 549 128 531 q 110 606 128 588 q 49 625 92 625 l 35 625 l 39 653 l 150 653 q 231 635 207 653 q 256 568 256 618 q 246 486 256 544 q 197 183 197 217 q 233 81 197 114 q 322 49 268 49 q 474 122 392 49 l 567 653 l 654 653 q 767 696 724 653 q 822 797 810 739 l 901 797 z "},"ứ":{"ha":746,"x_min":35,"x_max":901,"o":"m 901 797 q 686 618 868 633 l 578 0 l 508 0 l 469 56 l 463 56 q 376 6 425 25 q 269 -14 326 -14 q 69 167 69 -14 q 81 253 69 183 q 121 486 92 322 q 128 549 128 531 q 110 606 128 588 q 49 625 92 625 l 35 625 l 39 653 l 150 653 q 231 635 207 653 q 256 568 256 618 q 246 486 256 544 q 197 183 197 217 q 233 81 197 114 q 322 49 268 49 q 474 122 392 49 l 567 653 l 654 653 q 767 696 724 653 q 822 797 810 739 l 901 797 m 392 750 l 518 910 l 636 910 l 461 750 l 392 750 z "},"ự":{"ha":746,"x_min":35,"x_max":901,"o":"m 901 797 q 686 618 868 633 l 578 0 l 508 0 l 469 56 l 463 56 q 376 6 425 25 q 269 -14 326 -14 q 69 167 69 -14 q 81 253 69 183 q 121 486 92 322 q 128 549 128 531 q 110 606 128 588 q 49 625 92 625 l 35 625 l 39 653 l 150 653 q 231 635 207 653 q 256 568 256 618 q 246 486 256 544 q 197 183 197 217 q 233 81 197 114 q 322 49 268 49 q 474 122 392 49 l 567 653 l 654 653 q 767 696 724 653 q 822 797 810 739 l 901 797 m 276 -224 q 239 -209 253 -224 q 225 -171 225 -194 q 247 -121 225 -143 q 299 -99 269 -99 q 337 -113 322 -99 q 351 -150 351 -128 q 328 -201 351 -178 q 276 -224 306 -224 z "},"ừ":{"ha":746,"x_min":35,"x_max":901,"o":"m 901 797 q 686 618 868 633 l 578 0 l 508 0 l 469 56 l 463 56 q 376 6 425 25 q 269 -14 326 -14 q 69 167 69 -14 q 81 253 69 183 q 121 486 92 322 q 128 549 128 531 q 110 606 128 588 q 49 625 92 625 l 35 625 l 39 653 l 150 653 q 231 635 207 653 q 256 568 256 618 q 246 486 256 544 q 197 183 197 217 q 233 81 197 114 q 322 49 268 49 q 474 122 392 49 l 567 653 l 654 653 q 767 696 724 653 q 822 797 810 739 l 901 797 m 401 729 l 301 910 l 433 910 l 457 729 l 401 729 z "},"ử":{"ha":746,"x_min":35,"x_max":901,"o":"m 901 797 q 686 618 868 633 l 578 0 l 508 0 l 469 56 l 463 56 q 376 6 425 25 q 269 -14 326 -14 q 69 167 69 -14 q 81 253 69 183 q 121 486 92 322 q 128 549 128 531 q 110 606 128 588 q 49 625 92 625 l 35 625 l 39 653 l 150 653 q 231 635 207 653 q 256 568 256 618 q 246 486 256 544 q 197 183 197 217 q 233 81 197 114 q 322 49 268 49 q 474 122 392 49 l 567 653 l 654 653 q 767 696 724 653 q 822 797 810 739 l 901 797 m 440 724 q 456 765 446 749 q 486 806 467 781 q 513 849 510 835 q 515 868 515 863 q 478 904 515 904 q 431 889 450 904 q 397 835 413 874 l 340 836 q 369 901 347 876 q 423 944 396 932 q 488 956 450 956 q 557 934 528 956 q 586 872 586 913 q 583 849 586 865 q 571 823 581 833 q 539 794 561 813 q 502 760 515 775 q 483 724 489 746 l 440 724 z "},"ữ":{"ha":746,"x_min":35,"x_max":901,"o":"m 901 797 q 686 618 868 633 l 578 0 l 508 0 l 469 56 l 463 56 q 376 6 425 25 q 269 -14 326 -14 q 69 167 69 -14 q 81 253 69 183 q 121 486 92 322 q 128 549 128 531 q 110 606 128 588 q 49 625 92 625 l 35 625 l 39 653 l 150 653 q 231 635 207 653 q 256 568 256 618 q 246 486 256 544 q 197 183 197 217 q 233 81 197 114 q 322 49 268 49 q 474 122 392 49 l 567 653 l 654 653 q 767 696 724 653 q 822 797 810 739 l 901 797 m 282 778 q 321 880 296 850 q 389 910 346 910 q 426 902 410 910 q 460 881 442 894 q 475 871 463 879 q 500 858 488 863 q 525 854 513 854 q 557 873 540 854 q 576 910 574 892 l 618 910 q 580 808 606 838 q 511 778 554 778 q 478 785 492 778 q 442 806 464 792 q 408 826 422 819 q 375 833 393 833 q 343 815 360 833 q 324 778 326 796 l 282 778 z "},"ũ":{"ha":746,"x_min":35,"x_max":692,"o":"m 269 -14 q 69 167 69 -14 q 81 253 69 183 q 121 486 92 322 q 128 549 128 531 q 110 606 128 588 q 49 625 92 625 l 35 625 l 39 653 l 150 653 q 231 635 207 653 q 256 568 256 618 q 246 486 256 544 q 197 183 197 217 q 233 81 197 114 q 322 49 268 49 q 474 122 392 49 l 567 653 l 692 653 l 578 0 l 508 0 l 469 56 l 463 56 q 376 6 425 25 q 269 -14 326 -14 m 282 778 q 321 880 296 850 q 389 910 346 910 q 426 902 410 910 q 460 881 442 894 q 475 871 463 879 q 500 858 488 863 q 525 854 513 854 q 557 873 540 854 q 576 910 574 892 l 618 910 q 580 808 606 838 q 511 778 554 778 q 478 785 492 778 q 442 806 464 792 q 408 826 422 819 q 375 833 393 833 q 343 815 360 833 q 324 778 326 796 l 282 778 z "},"v":{"ha":692,"x_min":33,"x_max":708,"o":"m 153 493 q 108 602 133 571 q 33 636 83 633 l 39 664 q 59 665 46 664 q 86 667 72 667 q 213 629 160 667 q 292 493 265 592 l 364 194 l 639 653 l 708 653 l 307 -14 l 279 -14 l 153 493 z "},"w":{"ha":1040,"x_min":32,"x_max":1056,"o":"m 153 493 q 109 602 135 571 q 32 636 83 633 l 38 664 q 58 665 44 664 q 86 667 72 667 q 213 628 161 667 q 285 493 264 590 l 351 201 l 522 500 q 477 603 501 574 q 407 636 453 633 l 413 664 q 433 665 419 664 q 461 667 447 667 q 588 628 536 667 q 660 493 639 590 l 726 201 l 986 653 l 1056 653 l 668 -14 l 640 -14 l 542 417 l 293 -14 l 265 -14 l 153 493 z "},"x":{"ha":681,"x_min":-14,"x_max":669,"o":"m 263 313 l 178 514 q 54 625 136 614 l 58 653 l 176 653 q 258 624 222 653 q 314 542 293 594 l 375 396 l 600 653 l 669 653 l 393 340 l 478 139 q 608 28 519 38 l 604 0 l 479 0 q 398 29 433 0 q 342 111 363 58 l 281 257 l 56 0 l -14 0 l 263 313 z "},"y":{"ha":714,"x_min":24,"x_max":715,"o":"m 32 -236 q 150 -205 100 -236 q 244 -90 200 -174 l 286 -14 l 160 528 q 26 639 136 628 l 31 667 l 149 667 q 296 556 269 667 l 386 171 l 646 653 l 715 653 l 314 -90 q 199 -239 256 -200 q 65 -278 143 -278 l 24 -278 l 32 -236 z "},"ý":{"ha":714,"x_min":24,"x_max":715,"o":"m 32 -236 q 150 -205 100 -236 q 244 -90 200 -174 l 286 -14 l 160 528 q 26 639 136 628 l 31 667 l 149 667 q 296 556 269 667 l 386 171 l 646 653 l 715 653 l 314 -90 q 199 -239 256 -200 q 65 -278 143 -278 l 24 -278 l 32 -236 m 411 696 l 499 876 l 631 876 l 467 696 l 411 696 z "},"ÿ":{"ha":714,"x_min":24,"x_max":715,"o":"m 32 -236 q 150 -205 100 -236 q 244 -90 200 -174 l 286 -14 l 160 528 q 26 639 136 628 l 31 667 l 149 667 q 296 556 269 667 l 386 171 l 646 653 l 715 653 l 314 -90 q 199 -239 256 -200 q 65 -278 143 -278 l 24 -278 l 32 -236 m 339 743 q 301 757 315 743 q 286 793 286 771 q 308 845 286 822 q 361 868 329 868 q 399 853 385 868 q 414 817 414 839 q 391 766 414 789 q 339 743 368 743 m 575 743 q 537 757 551 743 q 522 793 522 771 q 544 845 522 822 q 597 868 565 868 q 635 853 621 868 q 650 817 650 839 q 627 766 650 789 q 575 743 604 743 z "},"ỵ":{"ha":714,"x_min":24,"x_max":715,"o":"m 307 -104 q 335 -150 335 -118 q 312 -201 335 -178 q 260 -224 289 -224 q 228 -214 243 -224 q 153 -264 192 -250 q 65 -278 115 -278 l 24 -278 l 32 -236 q 150 -205 100 -236 q 244 -90 200 -174 l 286 -14 l 160 528 q 26 639 136 628 l 31 667 l 149 667 q 296 556 269 667 l 386 171 l 646 653 l 715 653 l 314 -90 l 307 -104 z "},"ỳ":{"ha":714,"x_min":24,"x_max":715,"o":"m 32 -236 q 150 -205 100 -236 q 244 -90 200 -174 l 286 -14 l 160 528 q 26 639 136 628 l 31 667 l 149 667 q 296 556 269 667 l 386 171 l 646 653 l 715 653 l 314 -90 q 199 -239 256 -200 q 65 -278 143 -278 l 24 -278 l 32 -236 m 413 729 l 313 910 l 444 910 l 468 729 l 413 729 z "},"ỷ":{"ha":714,"x_min":24,"x_max":715,"o":"m 32 -236 q 150 -205 100 -236 q 244 -90 200 -174 l 286 -14 l 160 528 q 26 639 136 628 l 31 667 l 149 667 q 296 556 269 667 l 386 171 l 646 653 l 715 653 l 314 -90 q 199 -239 256 -200 q 65 -278 143 -278 l 24 -278 l 32 -236 m 451 724 q 467 765 457 749 q 497 806 478 781 q 524 849 521 835 q 526 868 526 863 q 489 904 526 904 q 442 889 461 904 q 408 835 424 874 l 351 836 q 381 901 358 876 q 434 944 407 932 q 499 956 461 956 q 568 934 539 956 q 597 872 597 913 q 594 849 597 865 q 582 823 592 833 q 550 794 572 813 q 513 760 526 775 q 494 724 500 746 l 451 724 z "},"ỹ":{"ha":714,"x_min":24,"x_max":715,"o":"m 32 -236 q 150 -205 100 -236 q 244 -90 200 -174 l 286 -14 l 160 528 q 26 639 136 628 l 31 667 l 149 667 q 296 556 269 667 l 386 171 l 646 653 l 715 653 l 314 -90 q 199 -239 256 -200 q 65 -278 143 -278 l 24 -278 l 32 -236 m 293 778 q 332 880 307 850 q 400 910 357 910 q 437 902 421 910 q 471 881 453 894 q 486 871 474 879 q 511 858 499 863 q 536 854 524 854 q 568 873 551 854 q 588 910 585 892 l 629 910 q 591 808 617 838 q 522 778 565 778 q 489 785 503 778 q 453 806 475 792 q 419 826 433 819 q 386 833 404 833 q 354 815 371 833 q 335 778 338 796 l 293 778 z "},"z":{"ha":650,"x_min":-4,"x_max":651,"o":"m 0 26 l 461 597 l 301 597 q 166 565 215 597 q 106 472 117 532 l 78 472 l 90 542 q 131 622 100 592 q 228 653 161 653 l 651 653 l 172 56 l 547 56 l 538 0 l -4 0 l 0 26 z "},"ž":{"ha":650,"x_min":-4,"x_max":651,"o":"m 0 26 l 461 597 l 301 597 q 166 565 215 597 q 106 472 117 532 l 78 472 l 90 542 q 131 622 100 592 q 228 653 161 653 l 651 653 l 172 56 l 547 56 l 538 0 l -4 0 l 0 26 m 322 722 l 239 882 l 308 882 l 407 771 l 544 882 l 614 882 l 475 722 l 322 722 z "},"ª":{"ha":446,"x_min":114,"x_max":428,"o":"m 208 550 q 142 567 171 550 q 114 626 114 583 q 178 728 114 697 q 328 760 243 760 l 350 760 q 356 814 356 783 q 340 871 356 856 q 294 886 324 886 q 239 872 261 886 q 201 824 217 858 l 167 824 q 176 862 171 847 q 199 890 182 876 q 314 917 225 917 q 397 894 365 917 q 428 811 428 872 q 413 711 428 799 q 402 650 408 688 q 386 557 396 613 l 344 557 l 321 592 q 208 550 279 550 m 240 581 q 326 629 288 581 l 344 729 l 322 729 q 230 703 272 729 q 188 629 188 678 q 201 593 188 606 q 240 581 215 581 z "},"º":{"ha":467,"x_min":126,"x_max":461,"o":"m 253 510 q 126 658 126 510 q 151 803 126 735 q 222 915 175 872 q 332 957 268 957 q 429 918 397 957 q 461 807 461 879 q 436 663 461 731 q 364 552 411 594 q 253 510 317 510 m 258 540 q 326 584 296 540 q 374 694 357 628 q 392 825 392 761 q 326 926 392 926 q 260 882 290 926 q 213 770 231 838 q 196 640 196 703 q 258 540 196 540 z "},"А":{"ha":881,"x_min":-32,"x_max":861,"o":"m 800 -7 q 676 30 733 -7 q 596 174 618 67 l 576 264 l 188 264 l 31 0 l -32 0 l 518 917 l 560 917 l 735 174 q 778 64 751 94 q 861 28 804 33 l 857 0 q 800 -7 829 -7 m 218 319 l 558 319 l 463 722 l 218 319 z "},"Б":{"ha":850,"x_min":83,"x_max":806,"o":"m 167 483 q 201 683 181 568 q 221 810 221 799 q 203 869 221 849 q 142 889 185 889 l 114 889 l 119 917 l 704 917 q 806 835 806 917 q 800 797 806 832 l 785 701 l 757 701 q 761 743 761 725 q 611 861 761 861 l 360 861 l 301 528 l 454 528 q 685 482 592 528 q 779 317 779 436 q 653 69 779 138 q 361 0 526 0 l 83 0 l 167 483 m 349 49 q 496 79 429 49 q 601 169 563 110 q 640 314 640 229 q 583 438 640 396 q 424 479 526 479 q 289 460 360 479 l 219 68 q 349 49 286 49 z "},"В":{"ha":867,"x_min":82,"x_max":815,"o":"m 214 750 q 219 810 219 779 q 201 869 219 849 q 140 889 183 889 l 113 889 l 118 917 l 479 917 q 716 876 617 917 q 815 719 815 835 q 754 568 815 631 q 594 472 693 506 q 744 412 699 456 q 790 301 790 368 q 666 73 790 146 q 360 0 542 0 l 82 0 l 214 750 m 425 493 q 546 519 486 493 q 644 596 606 546 q 683 711 683 646 q 617 828 683 788 q 464 868 551 868 q 357 854 415 868 l 293 493 l 425 493 m 347 49 q 491 74 422 49 q 604 151 560 99 q 649 283 649 204 q 590 398 649 358 q 415 438 531 438 l 283 438 l 218 68 q 347 49 281 49 z "},"Г":{"ha":751,"x_min":83,"x_max":797,"o":"m 167 483 q 201 683 181 568 q 221 810 221 799 q 203 869 221 849 q 142 889 185 889 l 114 889 l 119 917 l 696 917 q 797 835 797 917 q 792 797 797 832 l 776 701 l 749 701 q 753 743 753 725 q 603 861 753 861 l 360 861 l 208 0 l 83 0 l 167 483 z "},"Ѓ":{"ha":751,"x_min":83,"x_max":797,"o":"m 167 483 q 201 683 181 568 q 221 810 221 799 q 203 869 221 849 q 142 889 185 889 l 114 889 l 119 917 l 696 917 q 797 835 797 917 q 792 797 797 832 l 776 701 l 749 701 q 753 743 753 725 q 603 861 753 861 l 360 861 l 208 0 l 83 0 l 167 483 m 494 1014 l 621 1174 l 739 1174 l 564 1014 l 494 1014 z "},"Ґ":{"ha":749,"x_min":83,"x_max":842,"o":"m 167 483 q 201 683 181 568 q 221 810 221 799 q 203 869 221 849 q 142 889 185 889 l 114 889 l 119 917 l 613 917 q 814 1076 783 917 l 842 1076 l 815 924 q 789 879 811 897 q 742 861 767 861 l 360 861 l 208 0 l 83 0 l 167 483 z "},"Д":{"ha":957,"x_min":-104,"x_max":899,"o":"m -61 7 q -41 42 -58 28 q -3 56 -24 56 l 53 56 q 197 365 140 194 q 293 750 254 535 q 299 810 299 779 q 281 869 299 849 q 219 889 263 889 l 199 889 l 204 917 l 899 917 l 747 56 l 824 56 q 853 45 842 56 q 864 17 864 35 l 818 -250 l 756 -250 q 757 -194 757 -229 q 726 -44 757 -87 q 626 0 694 0 l 175 0 q 48 -56 99 0 q -43 -250 -3 -112 l -104 -250 l -61 7 m 622 56 l 764 861 l 403 861 q 293 383 351 572 q 150 56 235 194 l 622 56 z "},"Е":{"ha":824,"x_min":83,"x_max":813,"o":"m 167 483 q 201 683 181 568 q 221 810 221 799 q 203 869 221 849 q 142 889 185 889 l 114 889 l 119 917 l 711 917 q 813 836 813 917 q 807 800 813 833 l 792 701 l 764 701 q 768 743 768 725 q 618 861 768 861 l 360 861 l 296 500 l 671 500 l 661 444 l 286 444 l 218 56 l 461 56 q 617 90 557 56 q 724 208 678 125 l 750 201 l 678 69 q 563 0 642 0 l 83 0 l 167 483 z "},"Ѐ":{"ha":824,"x_min":83,"x_max":813,"o":"m 167 483 q 201 683 181 568 q 221 810 221 799 q 203 869 221 849 q 142 889 185 889 l 114 889 l 119 917 l 711 917 q 813 836 813 917 q 807 800 813 833 l 792 701 l 764 701 q 768 743 768 725 q 618 861 768 861 l 360 861 l 296 500 l 671 500 l 661 444 l 286 444 l 218 56 l 461 56 q 617 90 557 56 q 724 208 678 125 l 750 201 l 678 69 q 563 0 642 0 l 83 0 l 167 483 m 488 993 l 388 1174 l 519 1174 l 543 993 l 488 993 z "},"Ё":{"ha":824,"x_min":83,"x_max":813,"o":"m 167 483 q 201 683 181 568 q 221 810 221 799 q 203 869 221 849 q 142 889 185 889 l 114 889 l 119 917 l 711 917 q 813 836 813 917 q 807 800 813 833 l 792 701 l 764 701 q 768 743 768 725 q 618 861 768 861 l 360 861 l 296 500 l 671 500 l 661 444 l 286 444 l 218 56 l 461 56 q 617 90 557 56 q 724 208 678 125 l 750 201 l 678 69 q 563 0 642 0 l 83 0 l 167 483 m 414 1007 q 376 1021 390 1007 q 361 1057 361 1035 q 383 1109 361 1086 q 436 1132 404 1132 q 474 1117 460 1132 q 489 1081 489 1103 q 466 1030 489 1053 q 414 1007 443 1007 m 650 1007 q 612 1021 626 1007 q 597 1057 597 1035 q 619 1109 597 1086 q 672 1132 640 1132 q 710 1117 696 1132 q 725 1081 725 1103 q 702 1030 725 1053 q 650 1007 679 1007 z "},"Ж":{"ha":1317,"x_min":-79,"x_max":1342,"o":"m 8 -14 q -79 0 -37 -14 l -74 26 q 43 75 -25 32 q 174 181 111 118 l 497 514 l 329 785 q 253 861 296 840 q 158 882 211 882 l 165 917 l 235 917 q 343 879 300 917 q 431 771 386 842 l 615 479 l 693 917 l 814 917 l 736 479 l 1024 771 q 1148 878 1089 840 q 1272 917 1207 917 l 1342 917 l 1335 882 q 1233 861 1282 882 q 1131 785 1185 840 l 868 514 l 1072 181 q 1166 75 1111 118 q 1268 26 1221 32 l 1264 0 q 1171 -14 1219 -14 q 1040 22 1108 -14 q 915 153 972 57 l 733 458 l 653 0 l 532 0 l 613 458 l 322 153 q 151 22 232 57 q 8 -14 71 -14 z "},"З":{"ha":794,"x_min":0,"x_max":761,"o":"m 303 -28 q 117 12 192 -28 q 0 146 43 51 l 32 167 q 133 64 71 100 q 292 28 196 28 q 437 58 372 28 q 538 143 501 88 q 575 274 575 199 q 517 395 575 353 q 343 438 458 438 l 239 438 l 249 493 l 353 493 q 485 522 422 493 q 588 604 549 550 q 628 732 628 658 q 576 848 628 807 q 450 889 525 889 q 272 831 351 889 q 147 667 192 772 l 119 667 q 145 782 133 746 q 186 847 157 818 q 310 917 229 890 q 467 944 392 944 q 675 901 589 944 q 761 743 761 858 q 703 582 761 653 q 522 472 646 511 q 670 406 625 453 q 715 289 715 360 q 649 99 715 169 q 490 0 583 28 q 303 -28 397 -28 z "},"И":{"ha":967,"x_min":83,"x_max":939,"o":"m 167 483 q 201 683 181 568 q 221 810 221 799 q 203 869 221 849 q 142 889 185 889 l 114 889 l 119 917 l 244 917 q 325 899 301 917 q 349 832 349 882 q 323 661 349 813 q 229 125 297 510 l 814 917 l 939 917 l 778 0 l 653 0 l 792 792 l 208 0 l 83 0 l 167 483 z "},"Й":{"ha":967,"x_min":83,"x_max":939,"o":"m 167 483 q 201 683 181 568 q 221 810 221 799 q 203 869 221 849 q 142 889 185 889 l 114 889 l 119 917 l 244 917 q 325 899 301 917 q 349 832 349 882 q 323 661 349 813 q 229 125 297 510 l 814 917 l 939 917 l 778 0 l 653 0 l 792 792 l 208 0 l 83 0 l 167 483 m 563 986 q 404 1111 438 986 l 435 1132 q 576 1069 475 1069 q 740 1132 681 1069 l 765 1111 q 563 986 688 986 z "},"Ѝ":{"ha":967,"x_min":83,"x_max":939,"o":"m 167 483 q 201 683 181 568 q 221 810 221 799 q 203 869 221 849 q 142 889 185 889 l 114 889 l 119 917 l 244 917 q 325 899 301 917 q 349 832 349 882 q 323 661 349 813 q 229 125 297 510 l 814 917 l 939 917 l 778 0 l 653 0 l 792 792 l 208 0 l 83 0 l 167 483 m 531 993 l 431 1174 l 563 1174 l 586 993 l 531 993 z "},"К":{"ha":942,"x_min":83,"x_max":967,"o":"m 796 -14 q 665 22 729 -14 q 526 153 600 57 l 289 458 l 208 0 l 83 0 l 167 483 q 201 683 181 568 q 221 810 221 799 q 203 869 221 849 q 142 889 185 889 l 114 889 l 119 917 l 244 917 q 326 899 301 917 q 350 832 350 882 q 340 751 350 814 q 292 479 329 689 l 635 771 q 663 794 661 793 q 781 886 731 856 q 897 917 832 917 l 967 917 l 960 882 q 853 862 900 882 q 742 785 807 842 l 424 514 l 683 181 q 788 76 731 118 q 893 26 844 33 l 889 0 q 796 -14 844 -14 z "},"Ќ":{"ha":942,"x_min":83,"x_max":967,"o":"m 796 -14 q 665 22 729 -14 q 526 153 600 57 l 289 458 l 208 0 l 83 0 l 167 483 q 201 683 181 568 q 221 810 221 799 q 203 869 221 849 q 142 889 185 889 l 114 889 l 119 917 l 244 917 q 326 899 301 917 q 350 832 350 882 q 340 751 350 814 q 292 479 329 689 l 635 771 q 663 794 661 793 q 781 886 731 856 q 897 917 832 917 l 967 917 l 960 882 q 853 862 900 882 q 742 785 807 842 l 424 514 l 683 181 q 788 76 731 118 q 893 26 844 33 l 889 0 q 796 -14 844 -14 m 535 1014 l 661 1174 l 779 1174 l 604 1014 l 535 1014 z "},"Л":{"ha":921,"x_min":-74,"x_max":893,"o":"m -7 -14 q -74 -1 -42 -14 l -68 33 q 62 92 3 36 q 178 305 121 149 q 288 750 235 461 q 293 810 293 779 q 275 869 293 849 q 214 889 257 889 l 200 889 l 206 917 l 893 917 l 732 0 l 607 0 l 758 861 l 411 861 l 392 750 q 274 282 339 451 q 140 49 208 113 q -7 -14 71 -14 z "},"М":{"ha":1190,"x_min":53,"x_max":1131,"o":"m 1090 -62 q 922 -20 972 -62 q 872 119 872 22 q 885 236 872 169 l 979 771 l 497 0 l 469 0 l 246 785 l 108 0 l 53 0 l 214 917 l 346 917 l 551 194 l 1006 917 l 1131 917 l 1010 236 q 997 117 997 169 q 1094 -35 997 -35 l 1090 -62 z "},"Н":{"ha":967,"x_min":82,"x_max":910,"o":"m 214 750 q 219 810 219 779 q 201 869 219 849 q 140 889 183 889 l 113 889 l 118 917 l 243 917 q 324 900 301 917 q 347 832 347 883 q 339 750 347 800 l 294 500 l 711 500 l 785 917 l 910 917 l 778 167 q 771 104 771 122 q 789 47 771 65 q 850 28 807 28 l 878 28 l 874 0 l 749 0 q 667 17 692 0 q 643 85 643 35 q 653 167 643 108 l 701 444 l 285 444 l 207 0 l 82 0 l 214 750 z "},"О":{"ha":989,"x_min":67,"x_max":947,"o":"m 421 -28 q 230 21 310 -28 q 108 154 150 69 q 67 349 67 239 q 133 628 67 490 q 318 856 199 767 q 592 944 438 944 q 783 896 703 944 q 906 761 864 847 q 947 565 947 675 q 881 286 947 424 q 695 60 815 149 q 421 -28 575 -28 m 431 28 q 640 117 554 28 q 769 338 726 207 q 811 593 811 469 q 752 811 811 733 q 582 889 693 889 q 372 799 457 889 q 244 576 286 708 q 203 321 203 444 q 261 104 203 181 q 431 28 319 28 z "},"П":{"ha":938,"x_min":82,"x_max":910,"o":"m 214 750 q 219 810 219 779 q 201 869 219 849 q 140 889 183 889 l 113 889 l 118 917 l 910 917 l 749 0 l 624 0 l 775 861 l 358 861 l 207 0 l 82 0 l 214 750 z "},"Р":{"ha":771,"x_min":83,"x_max":785,"o":"m 167 483 q 201 683 181 568 q 221 810 221 799 q 203 869 221 849 q 142 889 185 889 l 114 889 l 119 917 l 481 917 q 691 872 597 917 q 785 699 785 826 q 736 531 785 604 q 606 416 688 457 q 426 375 524 375 l 274 375 l 208 0 l 83 0 l 167 483 m 386 424 q 501 454 440 424 q 603 546 561 485 q 644 693 644 607 q 615 792 644 753 q 544 850 586 832 q 465 868 503 868 q 358 854 417 868 l 285 438 q 386 424 338 424 z "},"С":{"ha":925,"x_min":63,"x_max":906,"o":"m 419 -28 q 228 19 308 -28 q 105 150 147 67 q 63 340 63 233 q 133 617 63 475 q 324 851 203 758 q 590 944 444 944 q 728 928 657 944 q 853 872 800 913 q 906 764 906 832 q 894 663 906 732 l 889 625 l 861 625 q 799 824 858 760 q 622 889 739 889 q 392 808 488 889 q 249 599 297 726 q 201 335 201 471 q 267 114 201 200 q 471 28 333 28 q 657 76 572 28 q 818 222 742 125 l 842 201 q 652 24 753 76 q 419 -28 551 -28 z "},"Т":{"ha":813,"x_min":83,"x_max":885,"o":"m 438 861 l 313 861 q 111 701 142 861 l 83 701 l 101 806 q 142 886 111 856 q 239 917 172 917 l 885 917 l 875 861 l 563 861 l 411 0 l 286 0 l 438 861 z "},"У":{"ha":844,"x_min":46,"x_max":906,"o":"m 117 28 q 343 132 276 28 l 364 167 l 207 736 q 178 817 192 789 q 134 865 165 844 q 46 889 103 886 l 51 917 l 218 917 q 308 877 279 917 q 357 764 336 838 l 472 347 l 822 917 l 906 917 l 425 132 q 179 -14 335 -14 l 110 -14 l 117 28 z "},"Ў":{"ha":844,"x_min":46,"x_max":906,"o":"m 117 28 q 343 132 276 28 l 364 167 l 207 736 q 178 817 192 789 q 134 865 165 844 q 46 889 103 886 l 51 917 l 218 917 q 308 877 279 917 q 357 764 336 838 l 472 347 l 822 917 l 906 917 l 425 132 q 179 -14 335 -14 l 110 -14 l 117 28 m 518 986 q 360 1111 393 986 l 390 1132 q 532 1069 431 1069 q 696 1132 636 1069 l 721 1111 q 518 986 643 986 z "},"Ф":{"ha":1088,"x_min":53,"x_max":1056,"o":"m 424 49 q 145 127 238 49 q 53 347 53 206 q 113 599 53 490 q 288 767 174 707 q 560 826 403 826 q 564 867 564 856 q 545 916 564 901 q 482 931 526 931 l 454 931 l 458 958 l 583 958 q 666 942 642 958 q 690 882 690 925 q 685 826 690 861 q 963 748 869 826 q 1056 528 1056 669 q 994 277 1056 386 q 819 108 933 168 q 549 49 704 49 l 532 -42 l 407 -42 l 424 49 m 550 771 q 353 710 435 769 q 231 554 272 651 q 190 339 190 457 q 247 167 190 231 q 433 104 304 104 l 550 771 m 558 104 q 755 165 674 106 q 877 321 836 224 q 918 536 918 418 q 861 708 918 644 q 675 771 804 771 l 558 104 z "},"Х":{"ha":921,"x_min":-12,"x_max":926,"o":"m 414 451 l 269 736 q 226 812 247 782 q 168 864 206 842 q 74 889 131 886 l 79 917 l 246 917 q 342 876 306 917 q 413 764 379 835 l 515 556 l 857 917 l 926 917 l 542 507 l 706 181 q 781 74 740 115 q 881 28 821 32 l 876 0 l 731 0 q 633 41 671 0 q 563 153 596 82 l 440 403 l 57 0 l -12 0 l 414 451 z "},"Ч":{"ha":886,"x_min":89,"x_max":858,"o":"m 638 375 q 446 347 572 347 q 226 390 303 347 q 149 556 149 433 q 165 676 149 596 q 182 810 182 763 q 164 869 182 849 q 103 889 146 889 l 89 889 l 94 917 l 219 917 q 300 899 276 917 q 324 832 324 882 q 317 763 324 800 q 304 692 311 726 q 290 610 294 643 q 285 543 285 578 q 328 433 285 463 q 463 403 371 403 q 561 410 511 403 q 647 431 611 417 l 733 917 l 858 917 l 697 0 l 572 0 l 638 375 z "},"Ц":{"ha":969,"x_min":83,"x_max":911,"o":"m 768 -250 q 769 -194 769 -229 q 738 -44 769 -87 q 639 0 707 0 l 83 0 l 167 483 q 201 683 181 568 q 221 810 221 799 q 203 869 221 849 q 142 889 185 889 l 114 889 l 119 917 l 244 917 q 325 899 301 917 q 349 832 349 882 q 327 684 349 813 q 218 56 306 556 l 635 56 l 786 917 l 911 917 l 760 56 l 836 56 q 865 45 854 56 q 876 17 876 35 l 831 -250 l 768 -250 z "},"Ш":{"ha":1300,"x_min":83,"x_max":1272,"o":"m 167 483 q 201 683 181 568 q 221 810 221 799 q 203 869 221 849 q 142 889 185 889 l 114 889 l 119 917 l 244 917 q 325 899 301 917 q 349 832 349 882 q 327 684 349 813 q 218 56 306 556 l 544 56 l 696 917 l 821 917 l 669 56 l 996 56 l 1147 917 l 1272 917 l 1111 0 l 83 0 l 167 483 z "},"Щ":{"ha":1331,"x_min":83,"x_max":1272,"o":"m 1129 -250 q 1131 -194 1131 -229 q 1099 -44 1131 -87 q 1000 0 1068 0 l 83 0 l 167 483 q 201 683 181 568 q 221 810 221 799 q 203 869 221 849 q 142 889 185 889 l 114 889 l 119 917 l 244 917 q 325 899 301 917 q 349 832 349 882 q 327 684 349 813 q 218 56 306 556 l 544 56 l 696 917 l 821 917 l 669 56 l 996 56 l 1147 917 l 1272 917 l 1121 56 l 1197 56 q 1226 45 1215 56 q 1238 17 1238 35 l 1236 7 l 1192 -250 l 1129 -250 z "},"Џ":{"ha":939,"x_min":83,"x_max":911,"o":"m 361 0 l 83 0 l 167 483 q 201 683 181 568 q 221 810 221 799 q 203 869 221 849 q 142 889 185 889 l 114 889 l 119 917 l 244 917 q 325 899 301 917 q 349 832 349 882 q 327 684 349 813 q 218 56 306 556 l 635 56 l 786 917 l 911 917 l 750 0 l 472 0 l 408 -243 l 339 -243 l 361 0 z "},"Ь":{"ha":831,"x_min":83,"x_max":779,"o":"m 167 483 q 201 683 181 568 q 221 810 221 799 q 203 869 221 849 q 142 889 185 889 l 114 889 l 119 917 l 244 917 q 325 899 301 917 q 349 832 349 882 q 338 747 349 814 q 301 528 328 681 l 454 528 q 685 482 592 528 q 779 317 779 436 q 653 69 779 138 q 361 0 526 0 l 83 0 l 167 483 m 349 49 q 496 79 429 49 q 601 169 563 110 q 640 314 640 229 q 583 438 640 396 q 424 479 526 479 q 289 460 360 479 l 219 68 q 349 49 286 49 z "},"Ъ":{"ha":976,"x_min":86,"x_max":925,"o":"m 381 861 l 339 861 q 238 842 276 861 q 173 778 199 824 q 128 653 147 733 l 86 653 l 125 868 q 144 903 128 889 q 182 917 160 917 l 515 917 l 447 528 l 600 528 q 831 482 738 528 q 925 317 925 436 q 799 69 925 138 q 507 0 672 0 l 229 0 l 381 861 m 494 49 q 688 103 614 49 q 782 264 763 157 q 786 314 786 292 q 729 438 786 396 q 569 479 672 479 q 435 460 506 479 l 365 68 q 494 49 432 49 z "},"Ы":{"ha":1161,"x_min":83,"x_max":1106,"o":"m 167 483 q 201 683 181 568 q 221 810 221 799 q 203 869 221 849 q 142 889 185 889 l 114 889 l 119 917 l 244 917 q 325 899 301 917 q 349 832 349 882 q 338 747 349 814 q 301 528 328 681 l 454 528 q 667 481 576 528 q 758 317 758 435 q 693 123 758 193 q 538 26 628 53 q 361 0 449 0 l 83 0 l 167 483 m 944 0 q 863 17 886 0 q 839 83 839 35 q 863 242 839 103 q 981 917 886 382 l 1106 917 q 967 104 967 146 q 984 47 967 65 q 1046 28 1001 28 l 1074 28 l 1069 0 l 944 0 m 349 49 q 485 82 424 49 q 583 175 547 115 q 619 314 619 235 q 567 437 619 394 q 424 479 514 479 q 289 460 360 479 l 219 68 q 349 49 286 49 z "},"Љ":{"ha":1340,"x_min":-74,"x_max":1289,"o":"m -7 -14 q -74 -1 -42 -14 l -68 33 q 62 92 3 36 q 178 305 121 149 q 288 750 235 461 q 293 810 293 779 q 275 869 293 849 q 214 889 257 889 l 200 889 l 206 917 l 879 917 l 811 528 l 964 528 q 1195 482 1101 528 q 1289 317 1289 436 q 1163 69 1289 138 q 871 0 1036 0 l 593 0 l 744 861 l 411 861 l 392 750 q 274 282 339 451 q 140 49 208 113 q -7 -14 71 -14 m 858 49 q 1006 79 939 49 q 1111 169 1072 110 q 1150 314 1150 229 q 1093 438 1150 396 q 933 479 1036 479 q 799 458 861 479 l 729 69 q 858 49 785 49 z "},"Њ":{"ha":1356,"x_min":83,"x_max":1304,"o":"m 167 483 q 201 683 181 568 q 221 810 221 799 q 203 869 221 849 q 142 889 185 889 l 114 889 l 119 917 l 244 917 q 325 899 301 917 q 349 832 349 882 q 337 742 349 815 q 296 500 325 668 l 699 500 l 772 917 l 897 917 l 824 500 l 976 500 q 1209 456 1114 500 q 1304 299 1304 411 q 1178 66 1304 132 q 889 0 1051 0 l 611 0 l 689 444 l 286 444 l 208 0 l 83 0 l 167 483 m 876 49 q 1017 76 951 49 q 1124 159 1083 104 q 1165 292 1165 214 q 1108 410 1165 369 q 947 451 1051 451 q 811 431 874 451 l 747 69 q 876 49 803 49 z "},"Ѕ":{"ha":742,"x_min":32,"x_max":715,"o":"m 321 -24 q 181 -4 247 -24 q 73 50 114 15 q 32 131 32 85 q 60 294 32 147 l 85 294 l 85 285 q 142 92 85 153 q 318 32 200 32 q 417 52 368 32 q 497 111 465 72 q 528 203 528 150 q 499 285 528 249 q 406 365 469 321 l 253 467 q 156 555 185 513 q 128 656 128 597 q 170 801 128 736 q 285 904 213 867 q 443 942 357 942 q 572 924 510 942 q 675 871 635 906 q 715 792 715 836 q 710 754 715 785 l 688 626 l 663 626 l 663 636 q 607 827 663 768 q 433 886 551 886 q 344 865 388 886 q 272 805 300 843 q 244 719 244 767 q 273 643 244 675 q 369 564 301 611 l 522 463 q 626 373 593 415 q 658 275 658 331 q 612 122 658 190 q 488 15 565 54 q 321 -24 410 -24 z "},"Є":{"ha":926,"x_min":64,"x_max":907,"o":"m 421 -28 q 228 20 308 -28 q 106 152 147 68 q 64 343 64 236 q 140 639 64 500 q 339 861 217 778 q 592 944 461 944 q 825 894 743 944 q 907 764 907 843 q 890 625 907 708 l 863 625 q 801 825 860 761 q 624 889 742 889 q 375 792 483 889 q 219 486 267 696 l 679 486 l 669 431 l 210 431 q 203 343 203 382 q 269 117 203 206 q 472 28 335 28 q 659 76 575 28 q 819 222 743 125 l 843 201 q 656 24 758 76 q 421 -28 553 -28 z "},"Э":{"ha":925,"x_min":17,"x_max":881,"o":"m 358 -28 q 143 24 226 -28 q 17 201 60 76 l 49 222 q 158 76 92 124 q 326 28 225 28 q 519 84 435 28 q 656 232 603 140 q 731 431 708 324 l 271 431 l 281 486 l 740 486 q 747 585 747 544 q 674 816 747 743 q 478 889 600 889 q 278 825 360 889 q 147 625 197 761 l 119 625 q 149 760 136 714 q 190 833 163 806 q 328 913 238 882 q 529 944 418 944 q 711 892 631 944 q 836 749 792 840 q 881 544 881 657 q 811 261 881 393 q 622 51 742 129 q 358 -28 501 -28 z "},"І":{"ha":401,"x_min":78,"x_max":344,"o":"m 183 0 q 102 17 126 0 q 78 85 78 35 q 88 167 78 108 l 219 917 l 344 917 l 213 167 q 206 104 206 122 q 224 47 206 65 q 285 28 242 28 l 313 28 l 308 0 l 183 0 z "},"Ї":{"ha":401,"x_min":78,"x_max":492,"o":"m 183 0 q 102 17 126 0 q 78 85 78 35 q 88 167 78 108 l 219 917 l 344 917 l 213 167 q 206 104 206 122 q 224 47 206 65 q 285 28 242 28 l 313 28 l 308 0 l 183 0 m 181 1007 q 142 1021 157 1007 q 128 1057 128 1035 q 149 1109 128 1086 q 203 1132 171 1132 q 241 1117 226 1132 q 256 1081 256 1103 q 233 1030 256 1053 q 181 1007 210 1007 m 417 1007 q 378 1021 393 1007 q 364 1057 364 1035 q 385 1109 364 1086 q 439 1132 407 1132 q 477 1117 463 1132 q 492 1081 492 1103 q 469 1030 492 1053 q 417 1007 446 1007 z "},"Ј":{"ha":367,"x_min":-111,"x_max":340,"o":"m -106 -162 q 5 -92 -40 -162 q 72 108 50 -21 l 215 917 l 340 917 l 197 108 q 144 -65 178 0 q 49 -160 110 -129 q -111 -190 -11 -190 l -106 -162 z "},"Ћ":{"ha":946,"x_min":83,"x_max":886,"o":"m 646 597 q 821 556 756 597 q 886 411 886 514 q 819 0 886 371 l 694 0 q 718 133 701 47 q 760 392 760 376 q 714 501 760 467 q 593 535 668 535 q 485 518 543 535 q 389 479 428 501 l 306 0 l 181 0 l 332 861 l 313 861 q 111 701 139 861 l 83 701 l 101 806 q 239 917 121 917 l 857 917 l 847 861 l 457 861 l 400 542 q 508 581 439 564 q 646 597 576 597 z "},"Ю":{"ha":1219,"x_min":83,"x_max":1175,"o":"m 689 -28 q 523 17 594 -28 q 413 145 451 63 q 375 339 375 228 q 383 444 375 390 l 286 444 l 208 0 l 83 0 l 167 483 q 201 683 181 568 q 221 810 221 799 q 203 869 221 849 q 142 889 185 889 l 114 889 l 119 917 l 244 917 q 325 899 301 917 q 349 832 349 882 q 337 742 349 815 q 296 500 325 668 l 394 500 q 497 734 428 633 q 660 890 565 835 q 860 944 754 944 q 1025 899 954 944 q 1135 772 1096 854 q 1175 578 1175 689 q 1106 267 1175 406 q 924 50 1036 128 q 689 -28 811 -28 m 699 28 q 887 126 810 28 q 1001 360 964 224 q 1039 606 1039 496 q 988 815 1039 742 q 850 889 936 889 q 662 791 739 889 q 547 556 585 693 q 510 308 510 419 q 561 101 510 174 q 699 28 613 28 z "},"Я":{"ha":849,"x_min":-44,"x_max":908,"o":"m 36 -14 q -44 1 1 -14 l -40 28 q 51 61 10 33 q 132 139 93 89 l 322 389 q 206 452 253 407 q 160 582 160 497 q 289 848 160 779 q 561 917 418 917 l 908 917 l 903 889 l 889 889 q 806 855 831 889 q 768 750 781 821 l 636 0 l 511 0 l 576 375 l 442 375 l 250 111 q 149 13 197 40 q 36 -14 100 -14 m 481 424 q 588 438 529 424 l 661 854 q 560 868 608 868 q 451 840 513 868 q 345 752 390 813 q 300 600 300 692 q 329 499 300 539 q 400 442 358 460 q 481 424 442 424 z "},"Ђ":{"ha":935,"x_min":83,"x_max":876,"o":"m 644 597 q 814 551 751 597 q 876 383 876 506 q 845 165 876 265 q 749 3 814 64 q 590 -58 685 -58 q 550 -56 581 -58 l 556 -28 q 666 42 622 -28 q 730 206 710 113 q 750 367 750 299 q 708 497 750 460 q 592 535 665 535 q 484 518 542 535 q 388 479 426 501 l 304 0 l 179 0 l 331 861 l 313 861 q 111 701 139 861 l 83 701 l 101 806 q 239 917 121 917 l 857 917 l 847 861 l 456 861 l 399 542 q 506 581 438 564 q 644 597 575 597 z "},"Ѣ":{"ha":928,"x_min":58,"x_max":876,"o":"m 551 528 q 783 482 689 528 q 876 317 876 436 q 750 69 876 138 q 458 0 624 0 l 181 0 l 306 722 l 289 722 q 86 563 117 722 l 58 563 l 78 667 q 215 778 97 778 l 314 778 q 318 810 318 799 q 300 869 318 849 q 239 889 282 889 l 211 889 l 217 917 l 342 917 q 422 899 399 917 q 446 832 446 882 q 440 778 446 811 l 750 778 l 740 722 l 432 722 l 399 528 l 551 528 m 446 49 q 593 79 526 49 q 699 169 660 110 q 738 314 738 229 q 681 438 738 396 q 521 479 624 479 q 386 460 457 479 l 317 68 q 446 49 383 49 z "},"Ѫ":{"ha":1317,"x_min":-79,"x_max":1268,"o":"m 8 -14 q -79 0 -40 -14 l -75 26 q 46 75 -25 32 q 175 181 117 118 l 403 417 q 481 475 443 457 q 576 497 518 493 l 385 783 q 302 860 342 838 q 215 882 263 882 l 221 917 l 1244 917 l 1239 882 q 1149 860 1193 882 q 1035 785 1104 838 l 758 500 q 915 439 876 500 l 1074 181 q 1168 75 1114 118 q 1268 26 1222 32 l 1264 0 q 1171 -14 1219 -14 q 1040 22 1108 -14 q 915 153 972 57 l 733 458 l 653 0 l 532 0 l 613 458 l 322 153 q 151 22 232 57 q 8 -14 71 -14 m 669 486 l 1033 861 l 418 861 l 669 486 z "},"Ѳ":{"ha":989,"x_min":67,"x_max":947,"o":"m 592 944 q 783 896 703 944 q 906 761 864 847 q 947 565 947 675 q 881 286 947 424 q 695 60 815 149 q 421 -28 575 -28 q 230 21 310 -28 q 108 154 150 69 q 67 349 67 239 q 133 628 67 490 q 318 856 199 767 q 592 944 438 944 m 582 889 q 351 776 442 889 q 224 500 260 664 l 806 500 q 811 593 811 543 q 752 811 811 733 q 582 889 693 889 m 431 28 q 606 88 531 28 q 728 242 682 147 q 796 444 775 336 l 213 444 q 203 321 203 385 q 261 104 203 181 q 431 28 319 28 z "},"Ѵ":{"ha":914,"x_min":44,"x_max":989,"o":"m 943 919 q 989 917 964 919 l 985 889 q 888 853 925 883 q 806 743 850 824 l 383 -14 l 358 -14 l 172 754 q 126 865 151 835 q 44 900 100 894 l 50 928 q 70 929 57 928 q 97 931 83 931 q 224 895 167 931 q 308 754 282 860 l 446 200 l 742 743 q 849 883 799 846 q 943 919 899 919 z "},"Ғ":{"ha":751,"x_min":63,"x_max":797,"o":"m 696 917 q 797 835 797 917 q 792 797 797 832 l 776 701 l 749 701 q 753 743 753 725 q 603 861 753 861 l 360 861 l 294 486 l 461 486 l 451 431 l 285 431 l 208 0 l 83 0 l 158 431 l 63 431 l 72 486 l 167 486 q 180 562 174 525 q 192 633 186 599 q 221 810 221 797 q 203 869 221 849 q 142 889 185 889 l 114 889 l 119 917 l 696 917 z "},"Ҕ":{"ha":826,"x_min":82,"x_max":796,"o":"m 747 701 q 751 743 751 725 q 601 861 751 861 l 358 861 l 304 550 q 406 583 347 569 q 528 597 464 597 q 702 542 633 597 q 771 365 771 486 q 763 278 771 326 q 614 -33 728 82 q 275 -176 500 -149 l 279 -149 q 638 278 574 -93 q 644 350 644 322 q 598 487 644 440 q 471 533 551 533 q 293 493 390 533 l 207 0 l 82 0 l 165 483 q 199 683 179 568 q 219 810 219 799 q 201 869 219 849 q 140 889 183 889 l 113 889 l 118 917 l 694 917 q 796 835 796 917 q 790 797 796 832 l 775 701 l 747 701 z "},"Җ":{"ha":1313,"x_min":-79,"x_max":1342,"o":"m 1335 882 q 1233 861 1282 882 q 1131 785 1185 840 l 868 514 l 1072 181 q 1158 81 1107 122 q 1201 60 1179 65 q 1257 56 1222 56 q 1290 42 1278 56 q 1297 7 1301 28 l 1251 -250 l 1189 -250 q 1190 -192 1190 -229 q 1172 -67 1190 -111 q 1115 -8 1153 -24 q 915 153 993 19 l 733 458 l 653 0 l 532 0 l 613 458 l 322 153 q 151 22 232 57 q 8 -14 71 -14 q -79 0 -37 -14 l -74 26 q 43 75 -25 32 q 174 181 111 118 l 497 514 l 329 785 q 253 861 296 840 q 158 882 211 882 l 165 917 l 235 917 q 343 879 300 917 q 431 771 386 842 l 615 479 l 693 917 l 814 917 l 736 479 l 1024 771 q 1148 878 1089 840 q 1272 917 1207 917 l 1342 917 l 1335 882 z "},"Ҙ":{"ha":794,"x_min":0,"x_max":761,"o":"m 522 472 q 670 406 625 453 q 715 289 715 360 q 609 60 715 133 q 358 -25 503 -14 l 317 -257 l 261 -257 q 269 -142 269 -186 q 255 -54 269 -79 q 210 -19 240 -29 q 85 33 138 -7 q 0 146 33 72 l 32 167 q 133 64 71 100 q 292 28 196 28 q 437 58 372 28 q 538 143 501 88 q 575 274 575 199 q 517 395 575 353 q 343 438 458 438 l 239 438 l 249 493 l 353 493 q 485 522 422 493 q 588 604 549 550 q 628 732 628 658 q 576 848 628 807 q 450 889 525 889 q 272 831 351 889 q 147 667 192 772 l 119 667 q 145 782 133 746 q 186 847 157 818 q 310 917 229 890 q 467 944 392 944 q 675 901 589 944 q 761 743 761 858 q 703 582 761 653 q 522 472 646 511 z "},"Қ":{"ha":935,"x_min":83,"x_max":967,"o":"m 960 882 q 853 862 900 882 q 742 785 807 842 l 424 514 l 683 181 q 786 78 731 118 q 826 60 806 64 q 879 56 847 56 q 912 42 900 56 q 919 7 924 28 l 874 -250 l 811 -250 q 813 -192 813 -229 q 794 -67 813 -111 q 736 -7 775 -22 q 526 153 632 17 l 289 458 l 208 0 l 83 0 l 167 483 q 201 683 181 568 q 221 810 221 799 q 203 869 221 849 q 142 889 185 889 l 114 889 l 119 917 l 244 917 q 326 899 301 917 q 350 832 350 882 q 340 751 350 814 q 292 479 329 689 l 635 771 q 663 794 661 793 q 781 886 731 856 q 897 917 832 917 l 967 917 l 960 882 z "},"Ҝ":{"ha":1010,"x_min":82,"x_max":1035,"o":"m 1029 882 q 924 861 971 882 q 811 785 876 840 l 492 514 l 753 181 q 858 76 803 118 q 961 26 913 33 l 957 0 q 864 -14 913 -14 q 734 22 799 -14 q 594 153 669 57 l 385 425 l 360 286 l 300 286 l 328 440 l 285 440 l 207 0 l 82 0 l 214 750 q 221 813 221 789 q 203 869 221 850 q 142 889 185 889 l 114 889 l 118 917 l 243 917 q 325 899 301 917 q 349 832 349 882 q 339 750 349 808 l 294 496 l 338 496 l 363 640 l 422 640 l 400 511 l 704 771 q 739 801 738 800 q 853 889 806 861 q 965 917 901 917 l 1035 917 l 1029 882 z "},"Ҡ":{"ha":1082,"x_min":83,"x_max":1107,"o":"m 1101 882 q 996 861 1043 882 q 883 785 949 840 l 564 514 l 825 181 q 930 76 875 118 q 1033 26 985 33 l 1029 0 q 936 -14 985 -14 q 806 22 871 -14 q 667 153 742 57 l 429 458 l 349 0 l 224 0 l 375 861 l 313 861 q 111 701 139 861 l 83 701 l 101 806 q 239 917 121 917 l 510 917 l 433 479 l 776 771 q 811 801 810 800 q 926 889 878 861 q 1038 917 974 917 l 1107 917 l 1101 882 z "},"Ң":{"ha":969,"x_min":82,"x_max":910,"o":"m 767 -250 q 768 -194 768 -231 q 737 -44 768 -87 q 638 0 706 0 l 624 0 l 701 444 l 285 444 l 207 0 l 82 0 l 214 750 q 221 813 221 789 q 203 869 221 850 q 142 889 185 889 l 114 889 l 118 917 l 243 917 q 325 899 301 917 q 349 832 349 882 q 339 750 349 808 l 294 500 l 711 500 l 785 917 l 910 917 l 758 56 l 835 56 q 867 42 856 56 q 875 7 878 28 l 829 -250 l 767 -250 z "},"Ԥ":{"ha":969,"x_min":82,"x_max":910,"o":"m 835 56 q 867 42 856 56 q 875 7 879 28 l 831 -250 l 768 -250 q 769 -200 769 -232 q 738 -45 769 -90 q 638 0 706 0 l 624 0 l 633 57 l 775 861 l 358 861 l 207 0 l 82 0 l 214 750 q 219 810 219 779 q 201 869 219 849 q 140 889 183 889 l 113 889 l 118 917 l 910 917 l 758 56 l 835 56 z "},"Ҫ":{"ha":925,"x_min":63,"x_max":906,"o":"m 590 944 q 728 928 657 944 q 853 872 800 913 q 906 764 906 832 q 894 663 906 732 l 889 625 l 861 625 q 799 824 858 760 q 622 889 739 889 q 392 808 488 889 q 249 599 297 726 q 201 335 201 471 q 267 114 201 200 q 471 28 333 28 q 657 76 572 28 q 818 222 742 125 l 842 201 q 677 39 764 92 q 482 -25 590 -14 l 440 -257 l 385 -257 q 393 -140 393 -185 q 378 -52 393 -76 q 329 -18 363 -28 q 133 104 203 7 q 63 340 63 201 q 133 617 63 475 q 324 851 203 758 q 590 944 444 944 z "},"Ү":{"ha":874,"x_min":49,"x_max":942,"o":"m 397 379 l 224 736 q 151 848 186 811 q 49 889 115 885 l 54 917 l 179 917 q 289 876 249 917 q 360 764 329 835 l 507 451 l 879 917 l 942 917 l 524 389 l 456 0 l 331 0 l 397 379 z "},"Ұ":{"ha":874,"x_min":49,"x_max":942,"o":"m 524 389 l 661 389 l 651 333 l 514 333 l 456 0 l 331 0 l 389 333 l 263 333 l 272 389 l 393 389 l 224 736 q 151 848 186 811 q 49 889 115 885 l 54 917 l 179 917 q 289 876 249 917 q 360 764 329 835 l 507 451 l 879 917 l 942 917 l 524 389 z "},"Ҷ":{"ha":886,"x_min":89,"x_max":858,"o":"m 783 56 q 816 42 804 56 q 824 7 828 28 l 779 -250 l 717 -250 q 718 -200 718 -232 q 686 -45 718 -90 q 586 0 654 0 l 572 0 l 582 57 l 638 375 q 446 347 572 347 q 226 390 303 347 q 149 556 149 433 q 165 676 149 596 q 182 810 182 763 q 164 869 182 849 q 103 889 146 889 l 89 889 l 94 917 l 219 917 q 300 899 276 917 q 324 832 324 882 q 317 763 324 800 q 304 692 311 726 q 290 610 294 643 q 285 543 285 578 q 328 433 285 463 q 463 403 371 403 q 561 410 511 403 q 647 431 611 417 l 733 917 l 858 917 l 707 56 l 783 56 z "},"Ҹ":{"ha":886,"x_min":89,"x_max":858,"o":"m 858 917 l 697 0 l 572 0 l 638 375 q 471 347 579 350 l 446 211 l 390 211 l 415 347 q 217 396 286 351 q 149 556 149 440 q 165 676 149 596 q 182 810 182 763 q 164 869 182 849 q 103 889 146 889 l 89 889 l 94 917 l 219 917 q 300 899 276 917 q 324 832 324 882 q 317 763 324 800 q 304 692 311 726 q 290 610 294 643 q 285 543 285 578 q 319 440 285 471 q 425 404 353 408 l 449 538 l 504 538 l 481 403 q 647 431 583 406 l 733 917 l 858 917 z "},"Һ":{"ha":886,"x_min":75,"x_max":844,"o":"m 296 542 q 488 569 363 569 q 708 526 631 569 q 785 361 785 483 q 768 240 785 321 q 751 107 751 154 q 769 48 751 68 q 831 28 788 28 l 844 28 l 839 0 l 714 0 q 633 17 657 0 q 610 85 610 35 q 616 153 610 117 q 629 225 622 190 q 644 306 639 274 q 649 374 649 339 q 606 484 649 454 q 471 514 563 514 q 372 507 422 514 q 286 486 322 500 l 200 0 l 75 0 l 236 917 l 361 917 l 296 542 z "},"Ӏ":{"ha":401,"x_min":78,"x_max":344,"o":"m 183 0 q 102 17 126 0 q 78 85 78 35 q 88 167 78 108 l 219 917 l 344 917 l 213 167 q 206 104 206 122 q 224 47 206 65 q 285 28 242 28 l 313 28 l 308 0 l 183 0 z "},"Ӂ":{"ha":1317,"x_min":-79,"x_max":1342,"o":"m 8 -14 q -79 0 -37 -14 l -74 26 q 43 75 -25 32 q 174 181 111 118 l 497 514 l 329 785 q 253 861 296 840 q 158 882 211 882 l 165 917 l 235 917 q 343 879 300 917 q 431 771 386 842 l 615 479 l 693 917 l 814 917 l 736 479 l 1024 771 q 1148 878 1089 840 q 1272 917 1207 917 l 1342 917 l 1335 882 q 1233 861 1282 882 q 1131 785 1185 840 l 868 514 l 1072 181 q 1166 75 1111 118 q 1268 26 1221 32 l 1264 0 q 1171 -14 1219 -14 q 1040 22 1108 -14 q 915 153 972 57 l 733 458 l 653 0 l 532 0 l 613 458 l 322 153 q 151 22 232 57 q 8 -14 71 -14 m 749 986 q 590 1111 624 986 l 621 1132 q 763 1069 661 1069 q 926 1132 867 1069 l 951 1111 q 749 986 874 986 z "},"Ӌ":{"ha":865,"x_min":89,"x_max":858,"o":"m 858 917 l 697 0 l 683 0 q 556 -56 607 0 q 465 -250 506 -112 l 403 -250 l 449 7 q 469 42 453 28 q 506 56 485 56 l 582 56 l 638 375 q 446 347 572 347 q 226 390 303 347 q 149 556 149 433 q 165 676 149 596 q 182 810 182 763 q 164 869 182 849 q 103 889 146 889 l 89 889 l 94 917 l 219 917 q 300 899 276 917 q 324 832 324 882 q 317 763 324 800 q 304 692 311 726 q 290 610 294 643 q 285 543 285 578 q 328 433 285 463 q 463 403 371 403 q 561 410 511 403 q 647 431 611 417 l 733 917 l 858 917 z "},"Ӑ":{"ha":881,"x_min":-32,"x_max":861,"o":"m 800 -7 q 676 30 733 -7 q 596 174 618 67 l 576 264 l 188 264 l 31 0 l -32 0 l 518 917 l 560 917 l 735 174 q 778 64 751 94 q 861 28 804 33 l 857 0 q 800 -7 829 -7 m 218 319 l 558 319 l 463 722 l 218 319 m 536 986 q 378 1111 411 986 l 408 1132 q 550 1069 449 1069 q 714 1132 654 1069 l 739 1111 q 536 986 661 986 z "},"Ӓ":{"ha":881,"x_min":-32,"x_max":861,"o":"m 800 -7 q 676 30 733 -7 q 596 174 618 67 l 576 264 l 188 264 l 31 0 l -32 0 l 518 917 l 560 917 l 735 174 q 778 64 751 94 q 861 28 804 33 l 857 0 q 800 -7 829 -7 m 218 319 l 558 319 l 463 722 l 218 319 m 442 1007 q 403 1021 418 1007 q 389 1057 389 1035 q 410 1109 389 1086 q 464 1132 432 1132 q 502 1117 488 1132 q 517 1081 517 1103 q 494 1030 517 1053 q 442 1007 471 1007 m 678 1007 q 640 1021 654 1007 q 625 1057 625 1035 q 647 1109 625 1086 q 700 1132 668 1132 q 738 1117 724 1132 q 753 1081 753 1103 q 730 1030 753 1053 q 678 1007 707 1007 z "},"Ӗ":{"ha":824,"x_min":83,"x_max":813,"o":"m 167 483 q 201 683 181 568 q 221 810 221 799 q 203 869 221 849 q 142 889 185 889 l 114 889 l 119 917 l 711 917 q 813 836 813 917 q 807 800 813 833 l 792 701 l 764 701 q 768 743 768 725 q 618 861 768 861 l 360 861 l 296 500 l 671 500 l 661 444 l 286 444 l 218 56 l 461 56 q 617 90 557 56 q 724 208 678 125 l 750 201 l 678 69 q 563 0 642 0 l 83 0 l 167 483 m 508 986 q 350 1111 383 986 l 381 1132 q 522 1069 421 1069 q 686 1132 626 1069 l 711 1111 q 508 986 633 986 z "},"Ә":{"ha":935,"x_min":56,"x_max":893,"o":"m 385 -28 q 138 50 219 -28 q 56 279 56 128 q 68 404 56 338 l 86 482 l 749 482 q 758 590 758 535 q 694 805 758 725 q 515 885 631 885 q 331 839 408 885 q 179 699 253 793 l 147 729 q 326 894 231 843 q 538 944 422 944 q 803 842 713 944 q 893 574 893 740 q 882 454 893 521 q 789 210 858 319 q 615 36 719 100 q 385 -28 510 -28 m 396 28 q 544 76 474 28 q 666 211 615 125 q 735 404 717 297 l 194 404 q 182 276 182 333 q 235 91 182 154 q 396 28 289 28 z "},"Ӝ":{"ha":1317,"x_min":-79,"x_max":1342,"o":"m 8 -14 q -79 0 -37 -14 l -74 26 q 43 75 -25 32 q 174 181 111 118 l 497 514 l 329 785 q 253 861 296 840 q 158 882 211 882 l 165 917 l 235 917 q 343 879 300 917 q 431 771 386 842 l 615 479 l 693 917 l 814 917 l 736 479 l 1024 771 q 1148 878 1089 840 q 1272 917 1207 917 l 1342 917 l 1335 882 q 1233 861 1282 882 q 1131 785 1185 840 l 868 514 l 1072 181 q 1166 75 1111 118 q 1268 26 1221 32 l 1264 0 q 1171 -14 1219 -14 q 1040 22 1108 -14 q 915 153 972 57 l 733 458 l 653 0 l 532 0 l 613 458 l 322 153 q 151 22 232 57 q 8 -14 71 -14 m 654 1007 q 616 1021 631 1007 q 601 1057 601 1035 q 623 1109 601 1086 q 676 1132 644 1132 q 715 1117 700 1132 q 729 1081 729 1103 q 706 1030 729 1053 q 654 1007 683 1007 m 890 1007 q 852 1021 867 1007 q 838 1057 838 1035 q 859 1109 838 1086 q 913 1132 881 1132 q 951 1117 936 1132 q 965 1081 965 1103 q 942 1030 965 1053 q 890 1007 919 1007 z "},"Ӟ":{"ha":794,"x_min":0,"x_max":761,"o":"m 303 -28 q 117 12 192 -28 q 0 146 43 51 l 32 167 q 133 64 71 100 q 292 28 196 28 q 437 58 372 28 q 538 143 501 88 q 575 274 575 199 q 517 395 575 353 q 343 438 458 438 l 239 438 l 249 493 l 353 493 q 485 522 422 493 q 588 604 549 550 q 628 732 628 658 q 576 848 628 807 q 450 889 525 889 q 272 831 351 889 q 147 667 192 772 l 119 667 q 145 782 133 746 q 186 847 157 818 q 310 917 229 890 q 467 944 392 944 q 675 901 589 944 q 761 743 761 858 q 703 582 761 653 q 522 472 646 511 q 670 406 625 453 q 715 289 715 360 q 649 99 715 169 q 490 0 583 28 q 303 -28 397 -28 m 357 1007 q 319 1021 333 1007 q 304 1057 304 1035 q 326 1109 304 1086 q 379 1132 347 1132 q 417 1117 403 1132 q 432 1081 432 1103 q 409 1030 432 1053 q 357 1007 386 1007 m 593 1007 q 555 1021 569 1007 q 540 1057 540 1035 q 562 1109 540 1086 q 615 1132 583 1132 q 653 1117 639 1132 q 668 1081 668 1103 q 645 1030 668 1053 q 593 1007 622 1007 z "},"Ӣ":{"ha":967,"x_min":83,"x_max":939,"o":"m 167 483 q 201 683 181 568 q 221 810 221 799 q 203 869 221 849 q 142 889 185 889 l 114 889 l 119 917 l 244 917 q 325 899 301 917 q 349 832 349 882 q 323 661 349 813 q 229 125 297 510 l 814 917 l 939 917 l 778 0 l 653 0 l 792 792 l 208 0 l 83 0 l 167 483 m 399 1042 l 399 1125 l 753 1125 l 753 1042 l 399 1042 z "},"Ӥ":{"ha":967,"x_min":83,"x_max":939,"o":"m 167 483 q 201 683 181 568 q 221 810 221 799 q 203 869 221 849 q 142 889 185 889 l 114 889 l 119 917 l 244 917 q 325 899 301 917 q 349 832 349 882 q 323 661 349 813 q 229 125 297 510 l 814 917 l 939 917 l 778 0 l 653 0 l 792 792 l 208 0 l 83 0 l 167 483 m 457 1007 q 419 1021 433 1007 q 404 1057 404 1035 q 426 1109 404 1086 q 479 1132 447 1132 q 517 1117 503 1132 q 532 1081 532 1103 q 509 1030 532 1053 q 457 1007 486 1007 m 693 1007 q 655 1021 669 1007 q 640 1057 640 1035 q 662 1109 640 1086 q 715 1132 683 1132 q 753 1117 739 1132 q 768 1081 768 1103 q 745 1030 768 1053 q 693 1007 722 1007 z "},"Ӧ":{"ha":989,"x_min":67,"x_max":947,"o":"m 421 -28 q 230 21 310 -28 q 108 154 150 69 q 67 349 67 239 q 133 628 67 490 q 318 856 199 767 q 592 944 438 944 q 783 896 703 944 q 906 761 864 847 q 947 565 947 675 q 881 286 947 424 q 695 60 815 149 q 421 -28 575 -28 m 431 28 q 640 117 554 28 q 769 338 726 207 q 811 593 811 469 q 752 811 811 733 q 582 889 693 889 q 372 799 457 889 q 244 576 286 708 q 203 321 203 444 q 261 104 203 181 q 431 28 319 28 m 496 1007 q 458 1021 472 1007 q 443 1057 443 1035 q 465 1109 443 1086 q 518 1132 486 1132 q 556 1117 542 1132 q 571 1081 571 1103 q 548 1030 571 1053 q 496 1007 525 1007 m 732 1007 q 694 1021 708 1007 q 679 1057 679 1035 q 701 1109 679 1086 q 754 1132 722 1132 q 792 1117 778 1132 q 807 1081 807 1103 q 784 1030 807 1053 q 732 1007 761 1007 z "},"Ө":{"ha":989,"x_min":67,"x_max":947,"o":"m 592 944 q 783 896 703 944 q 906 761 864 847 q 947 565 947 675 q 881 286 947 424 q 695 60 815 149 q 421 -28 575 -28 q 230 21 310 -28 q 108 154 150 69 q 67 349 67 239 q 133 628 67 490 q 318 856 199 767 q 592 944 438 944 m 582 889 q 351 776 442 889 q 224 500 260 664 l 806 500 q 811 593 811 543 q 752 811 811 733 q 582 889 693 889 m 431 28 q 606 88 531 28 q 728 242 682 147 q 796 444 775 336 l 213 444 q 203 321 203 385 q 261 104 203 181 q 431 28 319 28 z "},"Ӯ":{"ha":844,"x_min":46,"x_max":906,"o":"m 117 28 q 343 132 276 28 l 364 167 l 207 736 q 178 817 192 789 q 134 865 165 844 q 46 889 103 886 l 51 917 l 218 917 q 308 877 279 917 q 357 764 336 838 l 472 347 l 822 917 l 906 917 l 425 132 q 179 -14 335 -14 l 110 -14 l 117 28 m 365 1042 l 365 1125 l 719 1125 l 719 1042 l 365 1042 z "},"Ӱ":{"ha":844,"x_min":46,"x_max":906,"o":"m 117 28 q 343 132 276 28 l 364 167 l 207 736 q 178 817 192 789 q 134 865 165 844 q 46 889 103 886 l 51 917 l 218 917 q 308 877 279 917 q 357 764 336 838 l 472 347 l 822 917 l 906 917 l 425 132 q 179 -14 335 -14 l 110 -14 l 117 28 m 424 1007 q 385 1021 400 1007 q 371 1057 371 1035 q 392 1109 371 1086 q 446 1132 414 1132 q 484 1117 469 1132 q 499 1081 499 1103 q 476 1030 499 1053 q 424 1007 453 1007 m 660 1007 q 622 1021 636 1007 q 607 1057 607 1035 q 628 1109 607 1086 q 682 1132 650 1132 q 720 1117 706 1132 q 735 1081 735 1103 q 712 1030 735 1053 q 660 1007 689 1007 z "},"Ӳ":{"ha":844,"x_min":46,"x_max":906,"o":"m 117 28 q 343 132 276 28 l 364 167 l 207 736 q 178 817 192 789 q 134 865 165 844 q 46 889 103 886 l 51 917 l 218 917 q 308 877 279 917 q 357 764 336 838 l 472 347 l 822 917 l 906 917 l 425 132 q 179 -14 335 -14 l 110 -14 l 117 28 m 446 993 l 501 1174 l 592 1174 l 488 993 l 446 993 m 585 993 l 640 1174 l 731 1174 l 626 993 l 585 993 z "},"Ӵ":{"ha":886,"x_min":89,"x_max":858,"o":"m 638 375 q 446 347 572 347 q 226 390 303 347 q 149 556 149 433 q 165 676 149 596 q 182 810 182 763 q 164 869 182 849 q 103 889 146 889 l 89 889 l 94 917 l 219 917 q 300 899 276 917 q 324 832 324 882 q 317 763 324 800 q 304 692 311 726 q 290 610 294 643 q 285 543 285 578 q 328 433 285 463 q 463 403 371 403 q 561 410 511 403 q 647 431 611 417 l 733 917 l 858 917 l 697 0 l 572 0 l 638 375 m 404 1007 q 366 1021 381 1007 q 351 1057 351 1035 q 373 1109 351 1086 q 426 1132 394 1132 q 465 1117 450 1132 q 479 1081 479 1103 q 456 1030 479 1053 q 404 1007 433 1007 m 640 1007 q 602 1021 617 1007 q 588 1057 588 1035 q 609 1109 588 1086 q 663 1132 631 1132 q 701 1117 686 1132 q 715 1081 715 1103 q 692 1030 715 1053 q 640 1007 669 1007 z "},"Ӷ":{"ha":751,"x_min":83,"x_max":797,"o":"m 696 917 q 797 835 797 917 q 792 797 797 832 l 776 701 l 749 701 q 753 743 753 725 q 603 861 753 861 l 360 861 l 218 56 l 294 56 q 327 42 315 56 q 335 7 339 28 l 290 -250 l 228 -250 q 229 -200 229 -232 q 197 -45 229 -90 q 97 0 165 0 l 83 0 l 93 57 l 178 544 q 221 810 221 793 q 203 869 221 849 q 142 889 185 889 l 114 889 l 119 917 l 696 917 z "},"Ӹ":{"ha":1161,"x_min":83,"x_max":1106,"o":"m 167 483 q 201 683 181 568 q 221 810 221 799 q 203 869 221 849 q 142 889 185 889 l 114 889 l 119 917 l 244 917 q 325 899 301 917 q 349 832 349 882 q 338 747 349 814 q 301 528 328 681 l 454 528 q 667 481 576 528 q 758 317 758 435 q 693 123 758 193 q 538 26 628 53 q 361 0 449 0 l 83 0 l 167 483 m 944 0 q 863 17 886 0 q 839 83 839 35 q 863 242 839 103 q 981 917 886 382 l 1106 917 q 967 104 967 146 q 984 47 967 65 q 1046 28 1001 28 l 1074 28 l 1069 0 l 944 0 m 349 49 q 485 82 424 49 q 583 175 547 115 q 619 314 619 235 q 567 437 619 394 q 424 479 514 479 q 289 460 360 479 l 219 68 q 349 49 286 49 m 582 1007 q 544 1021 558 1007 q 529 1057 529 1035 q 551 1109 529 1086 q 604 1132 572 1132 q 642 1117 628 1132 q 657 1081 657 1103 q 634 1030 657 1053 q 582 1007 611 1007 m 818 1007 q 780 1021 794 1007 q 765 1057 765 1035 q 787 1109 765 1086 q 840 1132 808 1132 q 878 1117 864 1132 q 893 1081 893 1103 q 870 1030 893 1053 q 818 1007 847 1007 z "},"Ԛ":{"ha":988,"x_min":67,"x_max":946,"o":"m 819 -285 q 524 -222 654 -285 q 299 -10 393 -160 q 127 119 188 24 q 67 349 67 214 q 133 628 67 490 q 318 856 199 767 q 592 944 438 944 q 783 896 703 944 q 904 763 863 847 q 946 568 946 678 q 897 323 946 442 q 756 115 849 204 q 538 -12 664 25 q 592 -135 546 -79 q 701 -224 638 -192 q 825 -257 765 -257 l 819 -285 m 431 28 q 640 117 554 28 q 769 338 726 207 q 811 593 811 469 q 752 811 811 733 q 582 889 693 889 q 372 799 457 889 q 244 576 286 708 q 203 321 203 444 q 261 104 203 181 q 431 28 319 28 z "},"Ԝ":{"ha":1204,"x_min":42,"x_max":1246,"o":"m 168 754 q 128 865 153 835 q 42 900 103 894 l 46 928 q 67 929 53 928 q 94 931 81 931 q 226 897 172 931 q 300 754 279 863 l 392 218 l 618 658 l 601 754 q 561 865 586 835 q 475 900 536 894 l 479 928 q 500 929 486 928 q 528 931 514 931 q 659 897 606 931 q 733 754 713 863 l 825 218 l 1186 917 l 1246 917 l 764 -14 l 736 -14 l 633 571 l 331 -14 l 303 -14 l 168 754 z "},"а":{"ha":729,"x_min":44,"x_max":675,"o":"m 246 -14 q 95 53 146 -14 q 44 226 44 119 q 83 426 44 328 q 197 591 121 524 q 379 667 272 658 q 539 590 493 667 l 546 590 l 606 653 l 675 653 l 582 121 l 561 0 l 492 0 l 453 63 l 446 63 q 367 8 414 29 q 246 -14 321 -14 m 297 42 q 390 64 354 42 q 457 125 425 86 l 529 528 q 482 590 506 569 q 411 611 458 611 q 279 547 332 611 q 201 390 226 482 q 176 218 176 297 q 206 90 176 138 q 297 42 235 42 z "},"б":{"ha":742,"x_min":68,"x_max":729,"o":"m 311 -14 q 133 44 197 -14 q 68 225 68 103 q 108 518 68 386 q 216 733 147 650 q 369 833 285 815 l 586 882 q 667 908 640 894 q 701 944 693 921 l 729 944 l 714 854 q 661 792 706 803 l 408 736 q 297 690 342 721 q 219 594 253 658 q 157 417 185 529 l 164 417 q 276 565 208 519 q 449 611 343 611 q 604 553 543 611 q 665 382 665 494 q 615 163 665 253 q 485 30 565 74 q 311 -14 404 -14 m 321 42 q 443 99 394 42 q 513 237 492 156 q 535 394 535 318 q 501 517 535 478 q 411 556 467 556 q 289 499 338 556 q 218 360 240 442 q 196 201 196 278 q 321 42 196 42 z "},"в":{"ha":703,"x_min":50,"x_max":632,"o":"m 51 0 q 143 549 143 522 q 125 606 143 588 q 64 625 107 625 l 50 625 l 54 653 l 394 653 q 567 621 501 653 q 632 515 632 589 q 465 340 632 374 q 569 292 532 326 q 606 208 606 258 q 515 48 606 96 q 281 0 425 0 l 51 0 m 317 368 q 449 404 399 368 q 499 508 499 440 q 465 580 499 556 q 372 604 432 604 q 324 600 351 604 q 279 590 296 596 l 240 368 l 317 368 m 275 49 q 421 88 368 49 q 474 208 474 128 q 307 313 474 313 l 231 313 l 186 63 q 229 53 203 57 q 275 49 256 49 z "},"г":{"ha":592,"x_min":-11,"x_max":543,"o":"m 203 -14 q 47 27 104 -14 q -11 147 -11 68 q 206 361 -11 281 l 296 396 q 394 455 360 421 q 429 529 429 489 q 398 589 429 567 q 306 611 367 611 q 169 573 224 611 q 93 465 115 535 l 65 465 q 103 584 76 542 q 185 647 129 626 q 343 667 242 667 q 488 628 433 667 q 543 518 543 590 q 492 390 543 440 q 340 299 440 339 l 251 264 q 139 202 175 233 q 103 124 103 171 q 137 64 103 86 q 240 42 171 42 q 382 80 326 42 q 460 188 438 118 l 488 188 q 449 68 476 111 q 364 6 421 25 q 203 -14 307 -14 z "},"ѓ":{"ha":592,"x_min":-11,"x_max":544,"o":"m 203 -14 q 47 27 104 -14 q -11 147 -11 68 q 206 361 -11 281 l 296 396 q 394 455 360 421 q 429 529 429 489 q 398 589 429 567 q 306 611 367 611 q 169 573 224 611 q 93 465 115 535 l 65 465 q 103 584 76 542 q 185 647 129 626 q 343 667 242 667 q 488 628 433 667 q 543 518 543 590 q 492 390 543 440 q 340 299 440 339 l 251 264 q 139 202 175 233 q 103 124 103 171 q 137 64 103 86 q 240 42 171 42 q 382 80 326 42 q 460 188 438 118 l 488 188 q 449 68 476 111 q 364 6 421 25 q 203 -14 307 -14 m 300 750 l 426 910 l 544 910 l 369 750 l 300 750 z "},"ґ":{"ha":607,"x_min":50,"x_max":642,"o":"m 51 0 q 143 549 143 522 q 125 606 143 588 q 64 625 107 625 l 50 625 l 54 653 l 443 653 q 556 690 508 653 q 614 792 603 726 l 642 792 l 617 653 q 551 597 607 597 l 281 597 l 176 0 l 51 0 z "},"д":{"ha":750,"x_min":46,"x_max":689,"o":"m 300 -14 q 112 56 178 -14 q 46 242 46 126 q 94 446 46 351 q 226 597 142 540 q 417 653 311 653 q 526 623 478 653 q 592 542 575 593 q 594 597 594 586 q 567 742 594 681 q 492 836 539 804 q 386 868 444 868 q 274 850 333 868 q 197 818 214 832 l 179 868 q 280 912 219 893 q 411 931 340 931 q 615 827 542 931 q 689 547 689 724 q 641 256 689 383 q 506 58 593 129 q 300 -14 418 -14 m 310 42 q 434 101 382 42 q 513 244 486 160 q 539 403 539 328 q 504 544 539 492 q 407 597 469 597 q 295 548 349 597 q 209 415 242 499 q 176 233 176 331 q 212 93 176 144 q 310 42 247 42 z "},"е":{"ha":676,"x_min":44,"x_max":636,"o":"m 285 -14 q 106 56 168 -14 q 44 240 44 126 q 88 440 44 340 q 213 603 131 539 q 404 667 294 667 q 579 623 522 667 q 636 508 636 579 q 595 384 636 436 q 488 305 554 332 q 343 278 421 278 l 176 278 q 171 221 171 250 q 210 92 171 143 q 322 42 250 42 q 438 69 388 42 q 536 153 488 97 l 560 132 q 433 20 500 54 q 285 -14 367 -14 m 346 333 q 459 384 414 336 q 504 506 504 432 q 476 583 504 556 q 394 611 447 611 q 265 538 321 611 q 186 333 210 464 l 346 333 z "},"ѐ":{"ha":676,"x_min":44,"x_max":636,"o":"m 285 -14 q 106 56 168 -14 q 44 240 44 126 q 88 440 44 340 q 213 603 131 539 q 404 667 294 667 q 579 623 522 667 q 636 508 636 579 q 595 384 636 436 q 488 305 554 332 q 343 278 421 278 l 176 278 q 171 221 171 250 q 210 92 171 143 q 322 42 250 42 q 438 69 388 42 q 536 153 488 97 l 560 132 q 433 20 500 54 q 285 -14 367 -14 m 346 333 q 459 384 414 336 q 504 506 504 432 q 476 583 504 556 q 394 611 447 611 q 265 538 321 611 q 186 333 210 464 l 346 333 m 367 729 l 267 910 l 399 910 l 422 729 l 367 729 z "},"ё":{"ha":676,"x_min":44,"x_max":636,"o":"m 285 -14 q 106 56 168 -14 q 44 240 44 126 q 88 440 44 340 q 213 603 131 539 q 404 667 294 667 q 579 623 522 667 q 636 508 636 579 q 595 384 636 436 q 488 305 554 332 q 343 278 421 278 l 176 278 q 171 221 171 250 q 210 92 171 143 q 322 42 250 42 q 438 69 388 42 q 536 153 488 97 l 560 132 q 433 20 500 54 q 285 -14 367 -14 m 346 333 q 459 384 414 336 q 504 506 504 432 q 476 583 504 556 q 394 611 447 611 q 265 538 321 611 q 186 333 210 464 l 346 333 m 293 743 q 255 757 269 743 q 240 793 240 771 q 262 845 240 822 q 315 868 283 868 q 353 853 339 868 q 368 817 368 839 q 345 766 368 789 q 293 743 322 743 m 529 743 q 491 757 506 743 q 476 793 476 771 q 498 845 476 822 q 551 868 519 868 q 590 853 575 868 q 604 817 604 839 q 581 766 604 789 q 529 743 558 743 z "},"ж":{"ha":953,"x_min":-56,"x_max":947,"o":"m 11 -14 q -56 0 -25 -14 l -51 26 q 40 60 -3 33 q 128 139 82 88 l 310 340 l 215 556 q 94 618 185 618 l 100 653 l 135 653 q 300 563 258 653 l 403 319 l 461 653 l 586 653 l 528 319 l 717 563 q 913 653 788 653 l 947 653 l 942 618 q 860 602 899 618 q 799 556 822 586 l 629 340 l 739 139 q 801 60 768 88 q 879 26 833 33 l 875 0 q 803 -14 842 -14 q 708 13 749 -14 q 635 97 667 39 l 524 299 l 472 0 l 347 0 l 399 299 l 218 97 q 115 13 165 39 q 11 -14 65 -14 z "},"з":{"ha":633,"x_min":0,"x_max":571,"o":"m 224 -14 q 84 15 136 -14 q 0 97 32 44 l 31 118 q 99 62 61 82 q 206 42 136 42 q 351 81 297 42 q 406 200 406 121 q 231 306 406 306 l 168 306 l 178 361 l 240 361 q 386 400 333 361 q 439 513 439 439 q 406 585 439 560 q 319 611 372 611 q 188 572 244 611 q 114 465 131 532 l 86 465 q 127 592 100 549 q 206 651 154 635 q 350 667 257 667 q 508 632 446 667 q 571 521 571 597 q 526 398 571 444 q 403 333 481 351 q 501 285 467 319 q 536 200 536 251 q 445 36 536 86 q 224 -14 354 -14 z "},"и":{"ha":746,"x_min":35,"x_max":692,"o":"m 269 -14 q 69 167 69 -14 q 81 253 69 183 q 121 486 92 322 q 128 549 128 531 q 110 606 128 588 q 49 625 92 625 l 35 625 l 39 653 l 150 653 q 231 635 207 653 q 256 568 256 618 q 246 486 256 544 q 197 183 197 217 q 233 81 197 114 q 322 49 268 49 q 474 122 392 49 l 567 653 l 692 653 l 578 0 l 508 0 l 469 56 l 463 56 q 376 6 425 25 q 269 -14 326 -14 z "},"й":{"ha":746,"x_min":35,"x_max":692,"o":"m 269 -14 q 69 167 69 -14 q 81 253 69 183 q 121 486 92 322 q 128 549 128 531 q 110 606 128 588 q 49 625 92 625 l 35 625 l 39 653 l 150 653 q 231 635 207 653 q 256 568 256 618 q 246 486 256 544 q 197 183 197 217 q 233 81 197 114 q 322 49 268 49 q 474 122 392 49 l 567 653 l 692 653 l 578 0 l 508 0 l 469 56 l 463 56 q 376 6 425 25 q 269 -14 326 -14 m 432 724 q 331 753 369 724 q 271 835 293 782 l 303 856 q 358 814 326 828 q 446 800 390 800 q 539 814 501 800 q 608 856 576 828 l 632 835 q 432 724 553 724 z "},"ѝ":{"ha":746,"x_min":35,"x_max":692,"o":"m 269 -14 q 69 167 69 -14 q 81 253 69 183 q 121 486 92 322 q 128 549 128 531 q 110 606 128 588 q 49 625 92 625 l 35 625 l 39 653 l 150 653 q 231 635 207 653 q 256 568 256 618 q 246 486 256 544 q 197 183 197 217 q 233 81 197 114 q 322 49 268 49 q 474 122 392 49 l 567 653 l 692 653 l 578 0 l 508 0 l 469 56 l 463 56 q 376 6 425 25 q 269 -14 326 -14 m 360 729 l 260 910 l 392 910 l 415 729 l 360 729 z "},"к":{"ha":693,"x_min":44,"x_max":688,"o":"m 543 -14 q 361 97 431 -14 l 236 299 l 185 0 l 60 0 q 151 549 151 522 q 133 606 151 588 q 72 625 115 625 l 44 625 l 49 653 l 174 653 q 255 635 231 653 q 279 568 279 618 q 270 503 279 554 q 257 422 261 451 l 240 319 l 457 563 q 543 630 497 607 q 653 653 589 653 l 688 653 l 682 618 q 546 556 601 618 l 356 340 l 479 139 q 542 61 508 89 q 619 26 575 33 l 615 0 q 543 -14 582 -14 z "},"ќ":{"ha":693,"x_min":44,"x_max":688,"o":"m 543 -14 q 361 97 431 -14 l 236 299 l 185 0 l 60 0 q 151 549 151 522 q 133 606 151 588 q 72 625 115 625 l 44 625 l 49 653 l 174 653 q 255 635 231 653 q 279 568 279 618 q 270 503 279 554 q 257 422 261 451 l 240 319 l 457 563 q 543 630 497 607 q 653 653 589 653 l 688 653 l 682 618 q 546 556 601 618 l 356 340 l 479 139 q 542 61 508 89 q 619 26 575 33 l 615 0 q 543 -14 582 -14 m 338 750 l 464 910 l 582 910 l 407 750 l 338 750 z "},"л":{"ha":761,"x_min":-53,"x_max":707,"o":"m 13 -14 q -19 -10 1 -14 q -53 -1 -39 -6 l -47 33 q 100 130 33 33 q 213 486 167 226 q 219 547 219 524 q 201 606 219 586 q 139 625 183 625 l 143 653 l 707 653 l 593 0 l 468 0 l 572 597 l 328 597 l 308 486 q 182 94 258 201 q 13 -14 106 -14 z "},"м":{"ha":903,"x_min":33,"x_max":821,"o":"m 806 -28 q 656 13 701 -28 q 611 136 611 54 q 622 215 611 153 q 657 425 632 278 l 671 507 l 353 0 l 325 0 l 181 521 l 89 0 l 33 0 l 147 653 l 279 653 l 407 194 l 696 653 l 821 653 q 751 253 765 343 q 738 142 738 164 q 757 40 738 81 q 811 0 776 0 l 806 -28 z "},"н":{"ha":771,"x_min":46,"x_max":704,"o":"m 54 0 q 146 549 146 522 q 128 606 146 588 q 67 625 110 625 l 46 625 l 50 653 l 168 653 q 249 635 225 653 q 274 568 274 618 q 266 503 274 551 q 240 354 258 454 l 518 354 l 571 653 l 696 653 q 624 236 643 354 q 604 104 604 118 q 622 47 604 65 q 683 28 639 28 l 704 28 l 700 0 l 582 0 q 500 17 524 0 q 476 83 476 35 q 508 299 476 118 l 231 299 l 179 0 l 54 0 z "},"о":{"ha":735,"x_min":44,"x_max":669,"o":"m 297 -14 q 110 59 176 -14 q 44 249 44 132 q 91 447 44 350 q 222 605 138 543 q 417 667 307 667 q 603 594 538 667 q 669 404 669 521 q 623 206 669 303 q 492 48 576 110 q 297 -14 407 -14 m 307 42 q 432 103 379 42 q 512 253 485 165 q 539 413 539 340 q 504 556 539 501 q 407 611 469 611 q 282 549 335 611 q 202 400 229 488 q 175 240 175 313 q 210 97 175 151 q 307 42 244 42 z "},"п":{"ha":763,"x_min":43,"x_max":679,"o":"m 58 0 q 131 417 111 299 q 150 549 150 535 q 132 606 150 588 q 71 625 114 625 l 43 625 l 47 653 l 172 653 q 281 597 269 653 l 288 597 q 374 647 325 628 q 481 667 424 667 q 679 489 679 667 q 666 386 679 469 q 600 0 653 303 l 475 0 q 553 471 553 435 q 517 572 553 539 q 428 604 482 604 q 276 531 358 604 l 183 0 l 58 0 z "},"р":{"ha":754,"x_min":11,"x_max":688,"o":"m 115 335 q 150 549 150 542 q 132 606 150 588 q 71 625 114 625 l 43 625 l 47 653 l 172 653 q 250 638 225 653 q 279 590 275 622 l 286 590 q 488 667 363 667 q 637 600 586 667 q 688 424 688 533 q 650 224 688 325 q 537 54 613 122 q 354 -14 461 -14 q 188 28 263 -14 l 136 -264 l 11 -264 l 115 335 m 322 42 q 456 106 403 42 q 532 260 508 169 q 556 435 556 351 q 526 565 556 518 q 436 611 497 611 q 345 588 383 611 q 276 528 307 565 l 197 83 q 322 42 272 42 z "},"с":{"ha":672,"x_min":44,"x_max":631,"o":"m 299 -14 q 108 56 171 -14 q 44 242 44 125 q 90 444 44 346 q 219 605 135 543 q 418 667 304 667 q 568 647 506 667 q 631 558 631 628 q 615 447 631 526 l 614 438 l 586 438 q 588 468 588 449 q 547 575 588 539 q 436 611 506 611 q 292 553 351 611 q 205 410 233 496 q 176 238 176 324 q 216 94 176 146 q 336 42 256 42 q 458 69 407 42 q 557 153 508 96 l 581 132 q 453 20 521 54 q 299 -14 385 -14 z "},"т":{"ha":1096,"x_min":43,"x_max":1014,"o":"m 58 0 q 131 417 111 299 q 150 549 150 535 q 132 606 150 588 q 71 625 114 625 l 43 625 l 47 653 l 172 653 q 281 597 269 653 l 288 597 q 374 647 325 628 q 481 667 424 667 q 576 644 538 667 q 631 569 615 622 q 735 641 675 615 q 856 667 796 667 q 972 631 929 667 q 1014 504 1014 594 q 1001 397 1014 482 q 933 0 988 311 l 808 0 q 875 391 861 304 q 889 497 889 478 q 867 579 889 554 q 803 604 844 604 q 716 576 764 604 q 642 514 668 547 l 642 504 q 623 374 642 486 q 558 0 604 261 l 433 0 q 500 391 486 304 q 514 497 514 478 q 492 579 514 554 q 428 604 469 604 q 276 531 358 604 l 183 0 l 58 0 z "},"у":{"ha":715,"x_min":24,"x_max":717,"o":"m 32 -236 q 150 -205 100 -236 q 244 -90 200 -174 l 286 -14 l 160 529 q 26 640 136 629 l 31 668 l 149 668 q 296 557 269 668 l 388 171 l 647 654 l 717 654 l 314 -90 q 199 -239 256 -200 q 65 -278 143 -278 l 24 -278 l 32 -236 z "},"ў":{"ha":714,"x_min":24,"x_max":717,"o":"m 469 711 q 369 740 407 711 q 308 822 331 769 l 340 843 q 396 801 364 815 q 483 788 428 788 q 576 801 539 788 q 646 843 614 815 l 669 822 q 469 711 590 711 m 32 -236 q 150 -205 100 -236 q 244 -90 200 -174 l 286 -14 l 160 529 q 26 640 136 629 l 31 668 l 149 668 q 296 557 269 668 l 388 171 l 647 654 l 717 654 l 314 -90 q 199 -239 256 -200 q 65 -278 143 -278 l 24 -278 l 32 -236 z "},"ф":{"ha":921,"x_min":47,"x_max":853,"o":"m 328 -14 q 119 62 192 -11 q 47 251 47 135 q 96 456 47 363 q 235 607 144 550 q 447 667 326 664 q 468 810 468 788 q 450 869 468 849 q 389 889 432 889 l 368 889 l 374 917 l 492 917 q 572 899 549 917 q 596 832 596 882 q 572 667 596 789 q 781 590 710 661 q 853 401 853 519 q 804 196 853 289 q 665 46 756 103 q 453 -14 574 -11 l 408 -264 l 283 -264 l 328 -14 m 440 618 q 249 501 319 604 q 178 235 178 397 q 338 35 178 53 l 440 618 m 460 35 q 598 92 539 42 q 690 227 657 143 q 722 418 722 311 q 563 618 722 600 l 460 35 z "},"х":{"ha":681,"x_min":-14,"x_max":669,"o":"m 263 313 l 178 514 q 54 625 136 614 l 58 653 l 176 653 q 258 624 222 653 q 314 542 293 594 l 375 396 l 600 653 l 669 653 l 393 340 l 478 139 q 608 28 519 38 l 604 0 l 479 0 q 398 29 433 0 q 342 111 363 58 l 281 257 l 56 0 l -14 0 l 263 313 z "},"ч":{"ha":736,"x_min":53,"x_max":682,"o":"m 490 268 q 346 243 418 243 q 128 399 128 243 q 136 469 128 422 q 146 549 146 514 q 128 606 146 588 q 67 625 110 625 l 53 625 l 57 653 l 175 653 q 256 635 232 653 q 281 568 281 618 q 269 486 281 542 q 258 397 258 431 q 288 322 258 346 q 363 299 317 299 q 500 324 428 299 l 557 653 l 682 653 l 568 0 l 443 0 l 490 268 z "},"ц":{"ha":783,"x_min":39,"x_max":696,"o":"m 590 -215 q 594 -122 594 -160 q 578 -38 594 -64 q 515 0 561 -12 q 474 56 474 13 l 467 56 q 380 6 429 25 q 274 -14 331 -14 q 74 167 74 -14 q 81 236 74 192 q 121 465 110 397 q 132 549 132 533 q 114 606 132 588 q 53 625 96 625 l 39 625 l 43 653 l 154 653 q 236 635 213 653 q 260 569 260 618 q 245 469 260 553 q 226 358 231 385 l 206 236 q 201 185 201 207 q 236 81 201 114 q 326 49 271 49 q 478 122 396 49 l 571 653 l 696 653 l 592 56 l 646 56 q 675 45 664 56 q 686 17 686 35 q 681 -12 686 15 q 646 -215 675 -40 l 590 -215 z "},"ш":{"ha":1071,"x_min":60,"x_max":1017,"o":"m 219 -14 q 60 151 60 -14 q 78 279 60 171 q 142 653 96 388 l 267 653 q 203 282 221 390 q 185 157 185 174 q 207 74 185 100 q 272 49 229 49 q 359 77 311 49 q 433 139 407 106 q 449 260 433 161 q 506 589 465 358 q 512 622 510 606 q 517 653 514 639 l 642 653 q 578 282 596 390 q 560 157 560 174 q 582 74 560 100 q 647 49 604 49 q 799 122 717 49 l 892 653 l 1017 653 l 903 0 l 833 0 l 794 56 l 788 56 q 701 6 750 25 q 594 -14 651 -14 q 498 8 536 -14 q 444 83 460 29 q 340 12 400 38 q 219 -14 279 -14 z "},"щ":{"ha":1104,"x_min":60,"x_max":1017,"o":"m 911 -215 q 915 -122 915 -160 q 899 -37 915 -64 q 836 0 882 -11 q 794 56 794 13 l 788 56 q 701 6 750 25 q 594 -14 651 -14 q 498 8 536 -14 q 444 83 460 29 q 340 12 400 38 q 219 -14 279 -14 q 60 151 60 -14 q 78 279 60 171 q 142 653 96 388 l 267 653 q 203 282 221 390 q 185 157 185 174 q 207 74 185 100 q 272 49 229 49 q 359 77 311 49 q 433 139 407 106 q 449 260 433 161 q 506 589 465 358 q 512 622 510 606 q 517 653 514 639 l 642 653 q 578 282 596 390 q 560 157 560 174 q 582 74 560 100 q 647 49 604 49 q 799 122 717 49 l 892 653 l 1017 653 l 913 56 l 967 56 q 996 45 985 56 q 1007 17 1007 35 q 1001 -12 1007 15 q 967 -215 996 -40 l 911 -215 z "},"џ":{"ha":750,"x_min":46,"x_max":696,"o":"m 269 0 l 54 0 q 146 549 146 522 q 128 606 146 588 q 67 625 110 625 l 46 625 l 50 653 l 168 653 q 249 635 225 653 q 274 568 274 618 q 253 435 274 558 l 189 56 l 467 56 l 571 653 l 696 653 l 582 0 l 367 0 l 308 -208 l 253 -208 l 269 0 z "},"ь":{"ha":640,"x_min":46,"x_max":606,"o":"m 54 0 q 146 549 146 522 q 128 606 146 588 q 67 625 110 625 l 46 625 l 50 653 l 168 653 q 249 635 225 653 q 274 568 274 618 q 247 389 274 544 l 351 389 q 606 235 606 389 q 516 53 606 107 q 283 0 426 0 l 54 0 m 278 49 q 421 93 368 49 q 474 233 474 138 q 438 315 474 290 q 329 340 401 340 q 281 336 308 340 q 236 326 253 332 l 189 63 q 232 53 206 57 q 278 49 258 49 z "},"ъ":{"ha":811,"x_min":53,"x_max":740,"o":"m 293 597 l 279 597 q 156 554 203 597 q 88 417 110 511 l 53 417 l 86 604 q 106 639 89 625 q 143 653 122 653 l 428 653 l 382 389 l 486 389 q 740 235 740 389 q 651 53 740 107 q 418 0 561 0 l 189 0 l 293 597 m 413 49 q 556 93 503 49 q 608 233 608 138 q 572 315 608 290 q 464 340 536 340 q 415 336 443 340 q 371 326 388 332 l 324 63 q 367 53 340 57 q 413 49 393 49 z "},"ы":{"ha":958,"x_min":46,"x_max":892,"o":"m 54 0 q 146 549 146 522 q 128 606 146 588 q 67 625 110 625 l 46 625 l 50 653 l 168 653 q 249 635 225 653 q 274 568 274 618 q 247 389 274 544 l 351 389 q 592 235 592 389 q 503 54 592 108 q 283 0 414 0 l 54 0 m 769 0 q 688 17 711 0 q 664 83 664 35 q 674 157 664 97 q 708 358 683 217 l 758 653 l 883 653 q 811 236 831 354 q 792 104 792 118 q 809 47 792 65 q 871 28 826 28 l 892 28 l 888 0 l 769 0 m 278 49 q 408 94 356 49 q 460 233 460 139 q 329 340 460 340 q 281 336 308 340 q 236 326 253 332 l 189 63 q 232 53 206 57 q 278 49 258 49 z "},"љ":{"ha":1075,"x_min":-53,"x_max":1004,"o":"m 13 -14 q -19 -10 1 -14 q -53 -1 -39 -6 l -47 33 q 100 130 33 33 q 213 486 167 226 q 219 547 219 524 q 201 606 219 586 q 139 625 183 625 l 143 653 l 692 653 l 646 389 l 750 389 q 1004 235 1004 389 q 915 53 1004 107 q 682 0 825 0 l 453 0 l 557 597 l 328 597 l 308 486 q 182 94 258 201 q 13 -14 106 -14 m 676 49 q 819 93 767 49 q 872 233 872 138 q 836 315 872 290 q 728 340 800 340 q 679 336 707 340 q 635 326 651 332 l 588 63 q 631 53 604 57 q 676 49 657 49 z "},"њ":{"ha":1061,"x_min":46,"x_max":990,"o":"m 54 0 q 146 549 146 522 q 128 606 146 588 q 67 625 110 625 l 46 625 l 50 653 l 168 653 q 249 635 225 653 q 274 568 274 618 q 260 467 274 551 l 242 361 l 506 361 l 557 653 l 682 653 l 631 361 l 735 361 q 990 215 990 361 q 902 49 990 99 q 672 0 814 0 l 443 0 l 496 306 l 232 306 l 179 0 l 54 0 m 667 49 q 806 90 754 49 q 858 211 858 131 q 713 313 858 313 q 664 308 692 313 q 619 299 636 304 l 578 63 q 621 53 594 57 q 667 49 647 49 z "},"ѕ":{"ha":624,"x_min":24,"x_max":567,"o":"m 250 -14 q 91 8 158 -14 q 24 104 24 31 q 28 151 24 124 q 35 188 33 178 l 63 188 l 63 185 q 104 79 63 117 q 232 42 146 42 q 349 69 294 42 q 403 157 403 97 q 378 215 403 190 q 299 264 354 239 l 221 299 q 119 366 154 328 q 85 457 85 404 q 123 569 85 521 q 222 642 161 617 q 349 667 282 667 q 567 551 567 667 q 563 501 567 529 q 557 465 558 474 l 529 465 l 529 468 q 489 574 529 536 q 367 611 449 611 q 260 584 310 611 q 210 500 210 557 q 301 396 210 436 l 378 361 q 492 290 456 326 q 528 200 528 254 q 488 85 528 133 q 385 11 449 36 q 250 -14 321 -14 z "},"є":{"ha":683,"x_min":46,"x_max":632,"o":"m 300 -14 q 110 56 175 -14 q 46 242 46 126 q 92 453 46 356 q 222 608 138 550 q 419 667 307 667 q 581 642 531 667 q 632 558 632 618 q 615 438 632 533 l 588 438 q 589 468 589 449 q 548 575 589 539 q 438 611 507 611 q 280 538 343 611 q 190 347 217 465 l 482 347 l 472 292 l 181 292 q 176 233 176 261 q 217 92 176 143 q 338 42 257 42 q 459 69 408 42 q 558 153 510 96 l 582 132 q 454 20 522 54 q 300 -14 386 -14 z "},"э":{"ha":681,"x_min":10,"x_max":614,"o":"m 242 -14 q 99 20 156 -14 q 10 132 42 54 l 42 153 q 113 69 72 96 q 224 42 153 42 q 380 110 317 42 q 469 292 443 179 l 178 292 l 188 347 l 479 347 q 483 408 483 379 q 444 556 483 501 q 324 611 404 611 q 190 567 246 611 q 113 438 133 524 l 85 438 q 112 560 100 525 q 151 618 124 594 q 361 667 208 667 q 551 597 488 667 q 614 410 614 526 q 569 200 614 297 q 439 44 524 103 q 242 -14 354 -14 z "},"і":{"ha":349,"x_min":43,"x_max":317,"o":"m 240 736 q 194 757 213 736 q 176 808 176 778 q 197 865 176 842 q 253 888 218 888 q 299 867 281 888 q 317 815 317 846 q 296 759 317 782 q 240 736 275 736 m 58 0 q 131 417 111 299 q 150 549 150 535 q 132 606 150 588 q 71 625 114 625 l 43 625 l 47 653 l 172 653 q 253 635 229 653 q 278 568 278 618 q 269 498 278 556 q 236 306 260 440 l 183 0 l 58 0 z "},"ї":{"ha":349,"x_min":35,"x_max":399,"o":"m 58 0 q 131 417 111 299 q 150 549 150 535 q 132 606 150 588 q 71 625 114 625 l 43 625 l 47 653 l 172 653 q 253 635 229 653 q 278 568 278 618 q 269 498 278 556 q 236 306 260 440 l 183 0 l 58 0 m 88 743 q 49 757 64 743 q 35 793 35 771 q 56 845 35 822 q 110 868 78 868 q 148 853 133 868 q 163 817 163 839 q 140 766 163 789 q 88 743 117 743 m 324 743 q 285 757 300 743 q 271 793 271 771 q 292 845 271 822 q 346 868 314 868 q 384 853 369 868 q 399 817 399 839 q 376 766 399 789 q 324 743 353 743 z "},"ј":{"ha":349,"x_min":-119,"x_max":317,"o":"m 240 736 q 194 757 213 736 q 176 808 176 778 q 197 865 176 842 q 253 888 218 888 q 299 867 281 888 q 317 815 317 846 q 296 759 317 782 q 240 736 275 736 m -114 -236 q -3 -165 -49 -236 q 64 35 42 -94 q 131 424 113 313 q 150 549 150 535 q 132 606 150 588 q 71 625 114 625 l 43 625 l 47 653 l 172 653 q 253 635 229 653 q 278 568 278 618 q 269 503 278 556 q 240 333 261 451 l 189 35 q 135 -138 169 -74 q 40 -233 101 -203 q -119 -264 -21 -264 l -114 -236 z "},"ћ":{"ha":739,"x_min":33,"x_max":643,"o":"m 156 694 l 58 694 l 68 750 l 165 750 l 179 833 l 264 917 l 319 917 l 290 750 l 457 750 l 447 694 l 281 694 l 251 528 q 335 577 286 557 q 443 597 385 597 q 643 417 643 597 q 575 0 643 379 l 450 0 q 501 301 486 215 q 515 399 515 388 q 480 501 515 468 q 390 535 444 535 q 239 461 321 535 l 158 0 l 33 0 l 156 694 z "},"ю":{"ha":965,"x_min":46,"x_max":897,"o":"m 544 -14 q 372 53 433 -14 q 310 236 310 119 q 314 299 310 265 l 231 299 l 179 0 l 54 0 q 146 549 146 522 q 128 606 146 588 q 67 625 110 625 l 46 625 l 50 653 l 168 653 q 249 635 225 653 q 274 568 274 618 q 266 503 274 551 q 240 354 258 454 l 324 354 q 447 581 354 496 q 664 667 540 667 q 835 598 774 667 q 897 413 897 529 q 849 195 897 293 q 721 42 801 97 q 544 -14 640 -14 m 554 42 q 653 88 604 42 q 735 224 703 135 q 768 438 768 314 q 738 567 768 524 q 654 611 708 611 q 555 564 604 611 q 473 426 506 517 q 440 214 440 336 q 470 85 440 129 q 554 42 500 42 z "},"я":{"ha":711,"x_min":-42,"x_max":732,"o":"m 32 -14 q -42 0 0 -14 l -37 28 q 44 65 7 35 q 114 139 81 94 l 224 285 q 129 332 167 294 q 92 429 92 369 q 181 601 92 549 q 406 653 269 653 l 732 653 l 728 625 q 642 590 669 625 q 606 486 615 556 l 521 0 l 396 0 l 444 278 l 336 278 l 224 111 q 135 16 181 46 q 32 -14 89 -14 m 363 326 q 411 331 383 326 q 456 340 439 335 l 499 590 q 456 600 482 596 q 411 604 431 604 q 275 562 326 604 q 224 431 224 519 q 363 326 224 326 z "},"ђ":{"ha":738,"x_min":33,"x_max":643,"o":"m 288 -167 q 398 -96 353 -167 q 468 104 443 -25 q 474 135 471 121 q 478 158 476 149 q 501 299 486 211 q 515 399 515 388 q 480 501 515 468 q 390 535 444 535 q 239 461 321 535 l 158 0 l 33 0 l 156 694 l 58 694 l 68 750 l 165 750 l 179 833 l 264 917 l 319 917 l 290 750 l 526 750 l 517 694 l 281 694 l 251 528 q 335 577 286 557 q 443 597 385 597 q 643 417 643 597 q 635 342 643 397 q 593 104 626 286 q 539 -69 574 -4 q 443 -164 504 -133 q 283 -194 382 -194 l 288 -167 z "},"ѣ":{"ha":903,"x_min":43,"x_max":869,"o":"m 58 0 q 131 417 111 299 q 150 549 150 535 q 132 606 150 588 q 71 625 114 625 l 43 625 l 47 653 l 172 653 q 281 597 269 653 l 288 597 q 355 647 317 628 q 439 667 393 667 q 596 489 596 667 q 583 389 596 465 l 657 389 q 869 235 869 389 q 831 106 869 160 q 728 26 792 53 q 589 0 664 0 q 465 33 504 0 q 425 150 425 67 q 432 233 425 193 l 469 471 q 474 514 474 494 q 455 581 474 558 q 400 604 436 604 q 276 531 335 604 l 183 0 l 58 0 m 597 49 q 698 94 658 49 q 738 233 738 139 q 712 315 738 290 q 635 340 686 340 q 574 328 608 340 l 543 157 q 539 113 539 132 q 597 49 539 49 z "}}}
